<svg xmlns="http://www.w3.org/2000/svg" width="1050" height="800" viewBox="0 0 1050 800"><defs><style>.cls-1{fill:#8a7c00;}.cls-2{stroke:#000;stroke-linecap:round;stroke-linejoin:round;stroke-width:4px;}.cls-3{fill:#fff;}.cls-4{fill:#5f4300;}</style></defs><title>Arablady</title><g id="Mofo_Kebab" data-name="Mofo Kebab"><path class="cls-1" d="M801.22,455.79c-59.64-10.3-103.6-49-98.11-58.47,8.76-15.15,54.51,5.7,93.29,5.34,3.58,0,10.54-1,24.45-3.06,55.93-8.11,76.4-19.76,85.26-44.34,10.55-29.25-24.53-63.77-39.46-78.46-20.29-20-27.9-17.69-38.69-33-16.43-23.29-26.48-67.85,4.61-92.64,32.5-25.91,92.92-16.61,101.26,1.77,8,17.71-34.69,38.47-28.24,71.16,2.83,14.32,13.42,22.44,20.63,29.38,38.93,37.4,61.74,119.38,22.95,165.78C915.7,459.31,844.38,463.25,801.22,455.79Z"/><path class="cls-1" d="M206.67,278.27c59.64,10.3,103.6,49,98.11,58.47-8.77,15.15-54.52-5.7-93.29-5.34-3.58,0-10.54,1-24.45,3.06-55.93,8.12-76.4,19.76-85.26,44.34-10.55,29.25,24.53,63.77,39.45,78.46,20.3,20,27.9,17.69,38.69,33,16.43,23.3,26.49,67.85-4.6,92.64C142.81,608.8,82.4,599.5,74.06,581.12c-8-17.71,34.69-38.47,28.24-71.16-2.83-14.32-13.42-22.44-20.64-29.37C42.74,443.18,19.92,361.2,58.71,314.8,92.19,274.75,163.51,270.81,206.67,278.27Z"/><path class="cls-2" d="M205,275c-65.55,69.93-13.89,169.63-14,250-.14,99-20,225.54,61,237,28.28,4,54.67,9.87,63,7,44.3-15.24,105.53,2,152-4,151.86-19.51,206.92,12.47,381-54,16.23-6.2,25.67-4.28,55-158,8.86-46.42,10.48-120.2-35-164-38.8-37.37-19.76-75.86-63-121-41.13-42.93-98-38.52-138-76-9.36-8.77,7.76-49.7-43-41-89.27,15.3,16.59-79.86-57-71-65,7.82-160.4,68.46-262,48C202.51,107.37,268.62,207.14,205,275Z"/><path class="cls-1" d="M303.58,338.27c-30.3-45.67-28.45-125.48-4.31-143.16,14.06-10.3,26.17,7.43,64.69,17.46,55.3,14.39,70.24-11.75,145.19-7,39,2.47,79.89,5.07,93.44,36.66,11.46,26.71-2.88,59.67-4.31,62.85-10.94,24.33-32.86,42.67-87.69,55.86C433.66,379.47,345.07,400.78,303.58,338.27Z"/><path class="cls-3" d="M424.8,283.36c23.52,7.59-40.29,60.69-73.6,46.86S308.25,240,332.45,245C341.06,246.8,407.57,277.81,424.8,283.36Z"/><path class="cls-4" d="M930.7,270.6c17.59,13.1,28.24,19.59,41.43,18.24,28.3-2.89,54.46-40.42,48.21-67.51-2.75-11.89-11.08-18.86-18.34-25.31-48.52-43-82-59.3-98-81-4.06-5.53-3.81-30.14-16.8-55.62-15.44-30.29-24.85-26.76-34-29.69-11.78-3.78-23.67,5.12-48.21,21.8-13,8.81-28.63,19.69-41.32,39.63-8.41,13.21-16.45,25.84-13.1,38,4.54,16.45,26.37,18.65,51.05,29.73C850.73,180.86,850,210.54,930.7,270.6Z"/><path d="M804.82,85.6c.83,7.56,9.89,10.56,10.44,19,.23,3.39-1,6.1-2.06,8.37a23.53,23.53,0,0,1-7,8.8c-7,5.64-16.86,31-7.1,56.35,8.32,21.62,27.52,34.48,38.89,42.1A121.39,121.39,0,0,0,849.28,227c33.9,17.86,93.59,33.58,100.82,17.7,2.48-5.45-1.31-14.38-6.49-18.86-6.88-6-16.67-4.5-22.42-4-26.84,2.51-56.85-6.78-73.06-16.69-1.5-.92-31.33-19.72-35.31-49.17-3.76-27.84,18.39-44.4,23.76-48.42,31.25-23.37,74.74-7.43,78.92-5.84,8.26,3.17,40.6-2.16,57.77,18,5.41,6.37,19.18,33.16,22.48,48.84,4.39,20.87-22.79,27.15-14.49,40.34,5.23,8.32,16,16.36,23.37,14.75,14.19-3.11,17.39-42.74,4.56-75C999,123,968.26,97.62,934,88.31c-49.1-13.33-88.08,21.91-106.81,3.53-6.36-6.25-7.53-17.49-13.29-18.2C809.33,73.08,804.14,79.4,804.82,85.6Z"/><path class="cls-3" d="M540,240.62c19.93-14.62,25.56,68.21-5.18,87.09s-98.29-18.09-80-34.75C461.32,287,525.43,251.32,540,240.62Z"/><path d="M514.64,256.66c8.33,14.51,3.62,32.85-10.52,41s-32.36,2.95-40.69-11.56"/><path d="M418.44,280.83c-6.54,15.45-23.46,23.05-37.81,17s-20.67-23.51-14.13-39"/><polygon points="425 273.94 317.36 254.09 318.39 238 427 242 425 273.94"/><polygon points="552.5 229.33 458.1 283.83 440 251 544.43 215.36 552.5 229.33"/></g></svg>
