<svg xmlns="http://www.w3.org/2000/svg" xmlns:xlink="http://www.w3.org/1999/xlink" width="1920" height="1080" viewBox="0 0 1920 1080"><defs><style>.cls-1{opacity:0.7;}.cls-2{fill:url(#linear-gradient);}.cls-3{fill:#fde58f;}.cls-4{fill:url(#linear-gradient-2);}.cls-5{opacity:0.3;fill:url(#linear-gradient-3);}.cls-6{opacity:0.08;fill:url(#linear-gradient-4);}.cls-7{fill:#e09686;}.cls-8{fill:#c98273;}.cls-9{fill:#bf6e5d;}.cls-10{fill:#aa6253;}.cls-11{opacity:0.5;}.cls-12{opacity:0.07;fill:url(#linear-gradient-5);}.cls-13{fill:#008a17;}.cls-13,.cls-25,.cls-30,.cls-35,.cls-36,.cls-38,.cls-39,.cls-40,.cls-42,.cls-43,.cls-44,.cls-45{stroke:#000;}.cls-13,.cls-18,.cls-19,.cls-30,.cls-31,.cls-35,.cls-36,.cls-42,.cls-43{stroke-miterlimit:10;}.cls-13,.cls-30,.cls-35{stroke-width:5px;}.cls-14,.cls-15{fill:#b9dc32;}.cls-14{stroke:#8cc63f;stroke-width:46px;}.cls-14,.cls-39{stroke-linecap:square;}.cls-14,.cls-25,.cls-33,.cls-34,.cls-38,.cls-39,.cls-40,.cls-44,.cls-45{stroke-linejoin:round;}.cls-16,.cls-18{fill:#fff;}.cls-17{fill:#009245;}.cls-18,.cls-19{stroke:#006837;}.cls-20{fill:#2e3192;}.cls-21,.cls-43{fill:red;}.cls-22{fill:#edc53b;}.cls-23{fill:#fff35f;}.cls-24{fill:#8a7c00;}.cls-25,.cls-31,.cls-33,.cls-34,.cls-40{stroke-linecap:round;}.cls-25,.cls-31,.cls-33{stroke-width:4px;}.cls-26{fill:#5f4300;}.cls-27{fill:#001900;}.cls-28{fill:#008a00;}.cls-29{fill:#009400;}.cls-30{fill:#f15a24;}.cls-31,.cls-33,.cls-45{fill:gray;}.cls-31,.cls-33{stroke:gray;}.cls-32{fill:url(#linear-gradient-6);}.cls-34{fill:#4d4d4d;stroke:#333;stroke-width:10px;}.cls-34,.cls-41{opacity:0.99;}.cls-36{fill:#ccc;stroke-width:18px;}.cls-37{fill:#c69c6d;}.cls-38{stroke-width:6px;}.cls-39,.cls-40{stroke-width:12px;}.cls-40{fill:none;}.cls-41{fill:#606060;}.cls-42,.cls-43{stroke-width:8px;}.cls-44{stroke-width:2px;}.cls-45{stroke-width:7px;}</style><linearGradient id="linear-gradient" x1="961.21" y1="780.19" x2="961.21" y2="0.05" gradientUnits="userSpaceOnUse"><stop offset="0" stop-color="#f0c57b"/><stop offset="0.17" stop-color="#f0be7a"/><stop offset="0.42" stop-color="#f1ab76"/><stop offset="0.72" stop-color="#f18c6f"/><stop offset="1" stop-color="#f26868"/></linearGradient><linearGradient id="linear-gradient-2" x1="960.41" y1="852.18" x2="960.41" y2="1108.25" gradientUnits="userSpaceOnUse"><stop offset="0" stop-color="#f0c57b"/><stop offset="0.18" stop-color="#f0bb79"/><stop offset="0.5" stop-color="#f19f73"/><stop offset="0.91" stop-color="#f2726a"/><stop offset="1" stop-color="#f26868"/></linearGradient><linearGradient id="linear-gradient-3" x1="725.17" y1="404.02" x2="725.17" y2="567.79" gradientUnits="userSpaceOnUse"><stop offset="0" stop-color="#fff"/><stop offset="0.09" stop-color="#fff" stop-opacity="0.97"/><stop offset="0.22" stop-color="#fff" stop-opacity="0.89"/><stop offset="0.38" stop-color="#fff" stop-opacity="0.75"/><stop offset="0.56" stop-color="#fff" stop-opacity="0.57"/><stop offset="0.76" stop-color="#fff" stop-opacity="0.33"/><stop offset="0.97" stop-color="#fff" stop-opacity="0.04"/><stop offset="1" stop-color="#fff" stop-opacity="0"/></linearGradient><linearGradient id="linear-gradient-4" x1="-3914.9" y1="210.78" x2="-3914.9" y2="381.54" gradientTransform="matrix(-1, 0, 0, 1, -2950, 0)" gradientUnits="userSpaceOnUse"><stop offset="0" stop-color="#fff"/><stop offset="0.18" stop-color="#fff" stop-opacity="0.99"/><stop offset="0.32" stop-color="#fff" stop-opacity="0.95"/><stop offset="0.43" stop-color="#fff" stop-opacity="0.89"/><stop offset="0.54" stop-color="#fff" stop-opacity="0.8"/><stop offset="0.64" stop-color="#fff" stop-opacity="0.69"/><stop offset="0.74" stop-color="#fff" stop-opacity="0.55"/><stop offset="0.83" stop-color="#fff" stop-opacity="0.38"/><stop offset="0.92" stop-color="#fff" stop-opacity="0.2"/><stop offset="1" stop-color="#fff" stop-opacity="0"/></linearGradient><linearGradient id="linear-gradient-5" x1="705.19" y1="93.65" x2="705.19" y2="384.04" gradientTransform="translate(-145.82)" xlink:href="#linear-gradient-4"/><linearGradient id="linear-gradient-6" x1="1793.1" y1="103.22" x2="1831.01" y2="103.22" xlink:href="#linear-gradient"/></defs><title>Artboard 1 copy 9</title><g id="Settings_Menu" data-name="Settings Menu"><g id="_1check" data-name="1check"><g id="allle_elemnter" data-name="allle elemnter" class="cls-1"><rect class="cls-2" x="0.8" y="-1" width="1920.81" height="785.32"/><rect class="cls-3" y="784.54" width="1920.81" height="296.27"/><rect class="cls-4" y="784.54" width="1920.81" height="296.27"/><path class="cls-5" d="M-2.2,362.51s64-32.65,160.07-11.81,90.9,46.78,115.08,58.16,40.94,32.21,115.42,14.1,109.71-23.64,155.7,7.12-4.86,55.11,61.38,74.05,91-10.83,148.23,0,104.22,56.81,145.57,52.76,142.42-14.42,161-11.58,393.11,26.15,393.11,26.15S940,568.61,874.92,594.31,788.36,646.62,734.82,620s-106.35-62.39-221.6-48.56-82.19,21-170.75,22.85-171.28-53.44-218.76-61S-3,545.31-3,545.31Z"/><path class="cls-6" d="M1917.33,187c-33.38-61.36-244.94-19.41-302,8.16-41.86,20.2-87.11,50-139.72,40.69-18.46-3.26-33.09-11-49.06-17.19-60.89-23.46-148.57-22-206.91,3.43-36.47,15.91-66.69,41.1-112.77,42.33-25.54.68-49.84-6.61-75.39-7.17-60.59-1.34-101.65,32.88-152.59,51.41-56.6,20.6-106.64,14.05-167.69,8.54-54.17-4.9-111.27-.54-166,2.63-76.64,4.42-158.85,20.75-235.4,20.79-14.41,0-304.93,27.06-304.93,27.06S232.9,389.27,353,382.51s60.68-7.28,170,0,232.21,25.71,280.81,23-25.27.54,150.93.27,188.54,14.79,362.49,13.94,191.11-27.75,297.74-37.22,305.9,3.65,305.9,3.65V277c0-20.33,11.42-62.58-3.45-90Z"/><path class="cls-7" d="M1135.32,784.54s-164.63-52.83-326.78-69.19c-80.95-8.16-110.64,28.94-186.55,0s-58-48.3-111.63-48.68-80.37-20.5-169.68-20.5-62.51,36.48-223.26,20.5c-39-3.88-82.61,0-82.61,0V784.54Z"/><path class="cls-7" d="M1402.67,653s-5.74,6.47-34.45,9.7-68.9-18-74.64-16-47.92,8.12-47.92,8.12-13.32-5-22.89-8.25-28.7,17.76-28.7,17.76-38.28-5.24-57.42-1.26-32.53,2.9-47.84,13.68-74.64,3.23-91.87-5.39S951,654.73,935.7,664.1s-32.53,18-36.36,23.39-11.07,22.65-39,29.12-26.3,24.8-26.3,24.8S882.79,767,888,767s514.67,17.54,514.67,17.54Z"/><path class="cls-8" d="M0,577.11s74.43,4.51,93.64,12.62c31.68,13.39,78,14.74,92.36,28.27s66.11,44.08,66.11,44.08L391.37,784.54H0Z"/><path class="cls-8" d="M221.69,662.08s124.86,2.51,132.86,5.22,32,20.74,51.22,14.43,35.8-9.45,46.42-9.16c21.29.59,34.42,21.78,58.43,24.94,22,2.9,81.14,82.52,214.64,87H221.69Z"/><path class="cls-8" d="M581.05,784.54s118.45-44.64,146.1-37.88c34.34,8.4,54.73.8,65.49-6.33,6.05-4,15-6.29,24.31-6.29H925.37l72-23.9s29.05-14.89,57.27-14.89,153.66,14.89,153.66,14.89l109.85-14.89,38.41,89.29Z"/><path class="cls-9" d="M0,635.73s2.4-18,68-18c19.54,0,20.81,9,40,13.53s20.8,3.61,30.41,4.51,32,3.61,32,11.72,22.41,18.94,33.62,20.75S222,701,222,701l267,79L0,784.54Z"/><path class="cls-9" d="M1917,476c17.63-30.67-41.09-368.56-183-139-.09.14-44.83,112-45,112-16.52-3.65-40.61,68.68-53,79s-406.74,13.36-415,25-132.34,12.89-153,35,40.5,39.59,30,68c-5.12,13.86,128,25,128,25s107.63-12.84,84.16-1.2-1.77,34.91-45.67,37.24-144.4,0-144.4,0-18.4-2.33-91.14,9.31S877.42,761,877.42,761L919,785l1001.81-.46V502.9"/><path class="cls-10" d="M1920.81,539.68s-12-18.94-45.62-8.12,21.61,25.71-33.61,21.65-62.43-28-88.84-24.81-40.82,30.23-76.83,25.49-64.83,6.08-79.23,16.9-14.41,29.77-62.43,50.06-38.42,51-48,62.7-14.41,10.35-38.42,26.59-50.42,37.87-57.62,41.93-145.45,13.53-143.56,17.59-139.12,14.88-139.12,14.88h813.3Z"/><g class="cls-11"><path class="cls-7" d="M1135.32,784.5s-164.63,34.23-326.78,44.82c-80.95,5.29-110.64-18.74-186.55,0s-58,31.29-111.63,31.54S430,874.14,340.68,874.14s-62.51-23.63-223.26-13.28c-39,2.51-82.61,0-82.61,0V784.5Z"/><path class="cls-7" d="M1402.67,869.73s-5.74-4.2-34.45-6.29-68.9,11.69-74.64,10.38-47.92-5.25-47.92-5.25-13.32,3.24-22.89,5.34-28.7-11.5-28.7-11.5-38.28,3.39-57.42.81-32.53-1.88-47.84-8.86-74.64-2.1-91.87,3.49S951,868.6,935.7,862.53s-32.53-11.67-36.36-15.16-11.07-14.67-39-18.86S834,812.44,834,812.44s-65.65-27.94-60.45-27.94h629.11Z"/><path class="cls-8" d="M0,918.88S74.43,916,93.64,910.7c31.68-8.67,86.44,8.77,100.84,0s57.63-46.87,57.63-46.87L391.37,784.5H0Z"/><path class="cls-8" d="M221.69,863.83s124.86-1.62,132.86-3.37,32-13.44,51.22-9.35,35.8,6.12,46.42,5.93c21.29-.38,34.42-14.11,58.43-16.16,22-1.87,81.14-53.46,214.64-56.38H221.69Z"/><path class="cls-8" d="M674,785s25.5,28.42,53.15,24c34.34-5.44,54.73-.52,65.49,4.11,6.05,2.59,15,4.07,24.31,4.07H925.37l72,15.48s29.05,9.64,57.27,9.64,153.66-9.64,153.66-9.64l109.85,9.64,38.41-57.84Z"/><path class="cls-9" d="M0,880.9s2.4,11.69,68,11.69c19.54,0,20.81-5.84,40-8.76s20.8-2.34,30.41-2.93,32-2.33,32-7.59,22.41-12.27,33.62-13.44,17.6-6.91,17.6-6.91L581.05,784.5H0Z"/><path class="cls-9" d="M1920.81,967h-43.37s2.48,24.53-26.44,29-24.61,33.48-37,38c-4.88,1.78-45.79,2-53,4-21.93,6-72.36,23.07-65-31,0-.17-27.83,9-28,9-16.52,2.36-39.61-6.32-52-13s-93.84-39.06-102.1-46.6-16.52-21.11-37.18-35.44-59.73-12.5-70.23-30.91c-5.12-9-41.31-37.69-41.31-37.69s-31.55,7.54-55,0-1.77-22.62-45.67-24.13-144.4,0-144.4,0-18.4,1.51-91.14-6-151.53-22.44-151.53-22.44L795.1,784.5H1920.81Z"/><path class="cls-10" d="M1920.81,943.13s-12,12.27-45.62,5.26,21.61-16.65-33.61-14-62.43,18.13-88.84,16.08-40.82-19.59-76.83-16.52S1611.08,930,1596.68,923s-14.41-19.28-62.43-32.42-38.42-33-48-40.62-14.41-6.71-38.42-17.23-50.42-24.53-57.62-27.16-145.45-8.77-143.56-11.4-139.12-9.64-139.12-9.64h813.3Z"/></g><path class="cls-12" d="M1117.06,235.52c12.81,71.1-50.43,138.61-103.88,167.83C974.37,424.56,938,428,923,428c-176.2-.27-254,21.85-428,21s-273.38-30.54-380-40S0,216.16,0,216.16V107C0,86.71,8.51,47.81,3.45,17,0-4,3,17,3,17,20.14-10.11,240-5,305.53,25.12c42.24,19.41,87.12,50,139.72,40.69,18.47-3.26,33.09-11,49.06-17.19,60.9-23.46,148.57-22,206.91,3.43C737.7,68,767.92,93.15,814,94.38c35,.94,37.84-6.92,75.39-7.17C970.83,86.67,1031,130.69,1042,139,1072.15,161.79,1108.76,189.47,1117.06,235.52Z"/></g><path class="cls-13" d="M362.4,190l-25.56,9.07,19.61,59-17.6,6.24-19.62-59-25.56,9.07-5.65-17L356.75,173Z"/><path class="cls-13" d="M460.7,224.79,443,230.2l-8.46-29.94-32.16,9.8L410.79,240l-17.63,5.38-21.81-77.11L389,162.89l8.47,29.93,32.16-9.8-8.47-29.93,17.75-5.41Z"/><path class="cls-13" d="M514.58,127.86l4.12,17.45-38.83,10,3.18,13.43,32.41-8.37,3.86,16.3-32.42,8.37,3.18,13.43,38.83-10L533,205.91l-56.66,14.63-18.46-78Z"/><path class="cls-13" d="M590.72,193.24l-18,3.82-15-78.85,18-3.82Z"/><path class="cls-13" d="M699.21,173.6,681,176.72l-6.08-40.54L663,179.8l-20.23,3.46-24.1-37.46,6.08,40.54-18.13,3.1L594.67,110l20.11-3.44,35,53.82,17.34-62.76,20.22-3.46Z"/><path class="cls-13" d="M773.28,115.05c1.55,15.78-6.4,32.2-25.76,34.5l-16.46,1.95,1.78,18.13-18.36,2.18-7.86-80,34.93-4.15C760.91,85.32,771.76,99.52,773.28,115.05Zm-46.54-7.57,2.57,26.25L743.78,132c7.34-.87,11.89-6,11-14.76S748.55,105,741.2,105.76Z"/><path class="cls-13" d="M852.28,108c.64,11.58-4.17,21.8-12.07,27l17,23-22.77,1.72-12.5-19.12-13.39,1,1.11,20L791.33,163l-4.46-80.36,36.72-2.78C839,78.71,851.3,90.48,852.28,108Zm-46.11-8.74,1.36,24.46,15.74-1.19c6.25-.47,11-6.4,10.59-13.14S828.16,97.57,822,98Z"/><path class="cls-13" d="M925.91,143.17l-36.66,1-4.92,12.7-19.45.55L896.7,76l20.45-.58L950.5,155l-19.56.55Zm-6.51-15.69L907.29,97.72l-11.81,30.43Z"/><path class="cls-13" d="M1028.4,136.88c-7.24,12-20.18,20.65-36.26,20.38-23.8-.4-40.46-19.17-39.62-43a41.54,41.54,0,0,1,42.56-40.43c16.2.27,28.65,8.54,35,20.74l-15.87,9.34c-3.32-7.41-10.18-12.39-19.79-12.55-13.29-.22-22.93,9.94-23.4,23.21-.45,12.8,8.43,24.21,21.72,24.43a22.41,22.41,0,0,0,20.43-11.87Z"/><path class="cls-13" d="M1111.85,98.79,1085,97.12l-5,62.46-18.49-1.15,5-62.46-26.85-1.66,1.44-18,72.2,4.48Z"/><path class="cls-13" d="M1136.87,164.3l-18.22-1.71,8.92-80.25,18.22,1.71Z"/><path class="cls-13" d="M1228.18,155.47c-8.47,11.13-22.24,18.36-38.17,16.34-23.56-3-38.07-23.52-34.68-47.16,3.2-22.22,23-38.62,46.58-35.63,16,2,27.5,11.64,32.52,24.49l-16.74,7.57c-2.49-7.74-8.77-13.44-18.28-14.65-13.17-1.68-23.82,7.39-25.71,20.56-1.83,12.7,5.75,25,18.92,26.71a22.29,22.29,0,0,0,21.54-9.6Z"/><path class="cls-13" d="M1290.26,173.22l-36-6.27L1247,178.47l-19.11-3.32,47-73.86,20.09,3.49,17,85-19.21-3.34ZM1287,156.48l-6-31.69-17.49,27.6Z"/><path class="cls-13" d="M1345.14,178.68l38.83,8.55-4.14,17.6-56.66-12.47,18.49-78.75,17.83,3.93Z"/><path class="cls-13" d="M1484.9,218.72l3.19,7.69-15.45,8.77-4.18-9.46a37.17,37.17,0,0,1-17.21-.63c-21.86-6.14-32.68-29.7-26.37-51.17s28.14-35.38,50-29.24,32.92,29.28,26.62,50.75A43.27,43.27,0,0,1,1484.9,218.72Zm-28.55-11a19.47,19.47,0,0,0,4.56.66l-6.59-15.08,15.92-8.76,7.08,16.95a25.57,25.57,0,0,0,6.49-11c3.79-12.9-2.14-25.08-14-28.42s-23.53,3.91-27.32,16.81C1438.83,191.19,1444.56,204.42,1456.35,207.73Z"/><path class="cls-13" d="M1580.6,220.55c-8.67,25.35-28.92,35.72-49,29.09-20.39-6.74-29-26.64-20.3-52l12.77-37.3,17.32,5.72-12.77,37.3c-5.05,14.76-2.14,25.51,8.84,29.14,10.77,3.56,20.54-3,25.59-17.76l12.77-37.29,17.53,5.79Z"/><path class="cls-13" d="M1596,270.66l-17.12-6.26,28.53-75.83,17.13,6.26Z"/><path class="cls-13" d="M1701.7,243.83l-61.54,24.37L1685,286.3,1678.08,303l-69.78-28.17,6.69-16.19L1677.68,235,1635,217.81l6.92-16.75,66.38,26.8Z"/><polyline class="cls-14" points="220.3 711.38 164.25 633.01 142.91 664.15 211.67 756.7 220.3 720.8"/><polyline class="cls-14" points="775.22 723.21 831.27 644.84 852.6 675.98 783.85 768.53 775.22 732.63"/><path class="cls-15" d="M710.56,982.55c38.19-26.89,66.33-18.39,75.86-43,57.06-147.43,11.09-108.72-1-188.21-13-85.62-52.47-213.34-101.31-235.54-50.44-22.92-90.25,65-188.37,61.31C413.71,574,380.57,510.4,337.9,533c-35.18,18.64-17.22,64.34-63.13,137.67-40,64-74.13,61.8-96.73,108.62-17,35.16-26,95,21.38,200l74.84,11.83,110,16.14,116.07,6.45,132.37-21.51Z"/><ellipse class="cls-16" cx="394.41" cy="707.22" rx="52.95" ry="55.93"/><ellipse cx="385.76" cy="706.69" rx="21.89" ry="23.12"/><path class="cls-17" d="M444,685.78c16.12,63.67-24.52,20.37-58.71,20.37-29.25,0-43.79,32-43.79,1.07,0-42.29,44.44-73.61,86.69-44.72A39.9,39.9,0,0,1,444,685.78Z"/><ellipse class="cls-18" cx="601.11" cy="683.56" rx="52.95" ry="55.93"/><ellipse class="cls-19" cx="601.62" cy="670.12" rx="21.89" ry="23.12"/><path class="cls-17" d="M654.05,683.56c0,30.89-16.57-10.75-45.82-10.75s-60.07,41.64-60.07,10.75,23.7-55.92,53-55.92S654.05,652.68,654.05,683.56Z"/><polygon class="cls-17" points="349.61 796.93 349.61 790.26 314.46 773.58 278.6 815.37 286.11 858.74 327.5 887.86 397 893.28 433.72 885.36 514.67 842.82 596.01 880.35 660.77 889.53 731.46 859.5 750.81 817.79 733.04 773.58 694.34 766.9 678.94 784.84 681.31 791.51 696.32 783.59 712.5 785.67 719.61 801.94 686.84 821.13 575.48 763.15 516.64 784.84 460.18 763.15 338.95 831.55 314.46 814.03 319.6 794.01 349.61 796.93"/><path d="M846.72,710.54l11.33-2.4L875.81,513.5l-32,6.78L829.28,706.33Z"/><path d="M300,645.68l1.07,5.74,377.85-51-3-16.19-362,50.19Z"/><polygon class="cls-20" points="895.4 600.51 861.7 596.29 870.69 516.19 904.39 520.41 895.4 600.51"/><polygon class="cls-16" points="929.11 604.73 895.4 600.51 904.39 520.41 938.1 524.63 929.11 604.73"/><polygon class="cls-21" points="962.81 608.95 929.11 604.73 938.1 524.63 971.8 528.85 962.81 608.95"/><path class="cls-22" d="M154,479.72c11.48-34.87,63.39-36.63,47.22,16.55S116.81,763,125.36,736c0,0-59.64,23-38.2-45.3S142.46,514.6,154,479.72Z"/><path class="cls-23" d="M168.79,508.25c-10.61-4.9-17.23.06-14.39,3.48,3.5,4.21,25.51,11.1,26.67,7.6C181.75,517.27,175.32,511.26,168.79,508.25Z"/><path class="cls-23" d="M155.55,545.89c-10.61-4.9-17.23.07-14.38,3.49,3.5,4.2,25.51,11.1,26.66,7.59C168.51,554.91,162.08,548.9,155.55,545.89Z"/><path class="cls-23" d="M142.31,583.53c-10.6-4.89-17.23.07-14.38,3.49,3.5,4.2,25.51,11.1,26.67,7.6C155.28,592.55,148.84,586.55,142.31,583.53Z"/><path class="cls-23" d="M129.08,621.18c-10.61-4.9-17.23.06-14.39,3.48,3.5,4.2,25.51,11.1,26.67,7.6C142,630.2,135.61,624.19,129.08,621.18Z"/><path class="cls-23" d="M115.84,665.27c-10.61-4.9-17.23.07-14.38,3.49,3.5,4.2,25.51,11.1,26.66,7.59C128.8,674.29,122.37,668.28,115.84,665.27Z"/><path class="cls-24" d="M1674.73,791.3c-49.37-14.69-83.06-53.18-77.6-61.14,8.71-12.68,45.46,10.11,78.19,13.38,3,.3,9,0,20.88-.47,47.86-2.07,66.14-10.55,75.76-31.62,11.44-25.08-15.12-59.06-26.42-73.51-15.36-19.66-22-18.33-29.73-33-11.82-22.27-16.4-62.87,12-82.08,29.67-20.07,79.79-6.22,85.21,10.93,5.23,16.51-32.61,31-30,60.75,1.13,13,9.35,21.23,14.83,28.07,29.54,36.9,41.62,112,4.86,149.76C1771,805,1710.47,801.92,1674.73,791.3Z"/><path class="cls-24" d="M1189,578.32c49.37,14.69,83.06,53.18,77.6,61.14-8.71,12.68-45.46-10.11-78.19-13.38-3-.3-9,0-20.88.47-47.86,2.07-66.14,10.55-75.76,31.62-11.44,25.08,15.12,59.06,26.42,73.51,15.36,19.66,22,18.33,29.73,33,11.82,22.27,16.4,62.87-12,82.08-29.66,20.07-79.79,6.22-85.21-10.93-5.23-16.51,32.61-31,30-60.75-1.13-13-9.35-21.23-14.83-28.07-29.54-36.91-41.62-112-4.86-149.76C1092.77,564.63,1153.25,567.7,1189,578.32Z"/><path class="cls-25" d="M1187.86,575.26c-61.38,56.23-26.53,149.78-33.65,221.34-8.77,88.19-36.54,199,30.72,216.69,23.5,6.17,45.23,13.83,52.51,12,38.68-9.49,88.8,11.49,128.5,10.47,129.73-3.37,173.36,30.2,325.94-12.93,14.23-4,22-1.44,60.17-135.63,11.53-40.51,19.34-106.07-15.17-149.27-29.45-36.86-10-69.39-42.54-113.57-30.93-42-79.26-43.35-109.71-80.42-7.13-8.68,10.88-43.54-32.67-40.48-76.6,5.38,21-69.59-41.85-68.49-55.46,1-141.22,46.16-225.09,18.56C1200.42,425.75,1247.43,520.7,1187.86,575.26Z"/><path class="cls-24" d="M1265.45,640.7c-21.56-43.46-13-114.36,8.87-127.88,12.75-7.88,21.42,9,53,21.52,45.36,17.92,60.25-4,123,7.18,32.62,5.8,66.91,11.89,75.58,41.27,7.32,24.85-7.65,52.88-9.13,55.57-11.36,20.66-31.43,35-78.82,41.66C1371.52,689.4,1295,700.2,1265.45,640.7Z"/><path class="cls-16" d="M1372.44,603c19.18,8.92-39.26,50.33-66.14,34.93s-28.33-84.33-8.37-77.61C1305,562.71,1358.4,596.46,1372.44,603Z"/><path class="cls-26" d="M1800.08,638.33c13.69,13.28,22.1,20,33.34,20.06,24.11,0,49.45-31,46.54-55.67-1.27-10.84-7.68-17.82-13.25-24.23-37.14-42.81-64-60.38-75.51-81.16-2.94-5.29-.57-27.19-9.3-51.08-10.38-28.4-18.61-26.13-26-29.57-9.59-4.46-20.39,2.37-42.55,15-11.69,6.65-25.85,14.89-38.29,31.48-8.24,11-16.13,21.49-14.37,32.6,2.4,15.06,20.61,19,40.45,31.18C1740.51,551,1737.29,577.39,1800.08,638.33Z"/><path d="M1710.12,462c0,6.8,7.42,10.32,7.14,17.92a15.64,15.64,0,0,1-2.46,7.26,20.56,20.56,0,0,1-6.72,7.19c-6.35,4.37-16.91,26-10.9,49.52,5.12,20,20.19,33.25,29.11,41.08a103.2,103.2,0,0,0,9,7c27,19,76,38.54,83.46,25.06,2.57-4.62.15-12.92-3.82-17.4-5.28-5.94-13.67-5.54-18.56-5.59-22.85-.24-47.34-11.28-60.14-21.61-1.19-.95-24.69-20.45-25.47-47-.74-25.14,19.38-37.85,24.26-40.93,28.39-17.92,63.67.28,67,2.09,6.69,3.58,34.42,1.82,47.12,21.4,4,6.17,13.28,31.3,14.69,45.57,1.87,19-21.58,22.07-15.74,34.59,3.68,7.89,12.09,16,18.41,15.29,12.24-1.46,18.4-36.45,10.4-66.39-6.36-23.82-30-49.25-58.12-60.71-40.23-16.4-76.18,11.38-90.36-6.72-4.82-6.15-4.82-16.26-9.62-17.43C1715,451.22,1710.09,456.37,1710.12,462Z"/><path class="cls-16" d="M1473.33,575.56c18.08-11.17,15.59,63.11-12,77.09s-81.29-25.19-64.44-38.33C1402.92,609.64,1460.09,583.75,1473.33,575.56Z"/><path d="M1450.53,587.51c5.75,13.69.18,29.59-12.46,35.52s-27.54-.37-33.29-14.06"/><path d="M1367.31,600.16c-6.87,13.15-21.8,18.35-33.36,11.63s-15.38-22.85-8.52-36"/><polygon points="1373.44 594.62 1284.42 567.01 1286.7 552.78 1377.91 566.36 1373.44 594.62"/><polygon points="1484.83 566.66 1400.48 606.48 1388.09 575.58 1479.25 553.48 1484.83 566.66"/><ellipse class="cls-27" cx="962.96" cy="355.23" rx="298.21" ry="151.64"/><ellipse class="cls-28" cx="962.96" cy="352.13" rx="286.8" ry="145.84"/><ellipse class="cls-29" cx="976.61" cy="355.23" rx="261.19" ry="132.81"/><path class="cls-30" d="M798.65,330.72l-18.85,6.43c-1.42-4.16-8-8.2-16.06-5.44-5.66,1.94-11.69,7-10.06,11.75,1.37,4,7.12,3.85,19.26,3.11,13.54-.8,32.51-2.36,38.75,16,5.42,15.88-4.39,30.27-22.78,36.54-24.63,8.4-40.92-5.68-45.34-18.63L762.42,374s6,12.68,21.62,7.36c8.44-2.88,10.27-7.73,9.06-11.28-1.79-5.25-9-4.83-16.92-4.18-12.79,1.09-35.07,3.51-41.36-14.93-5.17-15.15,5.11-31.2,23-37.31C778.32,306.7,794.23,317.77,798.65,330.72Z"/><path class="cls-30" d="M887.76,303.67l-28.9,5.63,13,66.89L852,380.06l-13-66.88L810,318.8l-3.74-19.25L884,284.42Z"/><path class="cls-30" d="M955.67,353.87l-40,2.37-4.69,14-21.22,1.25,30.32-89.7,22.32-1.32,40.8,85.49-21.35,1.27Zm-8-16.85-14.86-32-11.24,33.5Z"/><path class="cls-30" d="M1068.44,319.87c-1.3,12.58-8.24,22.63-17.63,26.72l14.28,28.08-24.79-2.57-10.15-23-14.58-1.51-2.25,21.69-19.93-2.07,9.05-87.29,40,4.15C1059.2,285.82,1070.42,300.87,1068.44,319.87Zm-48.09-18.36-2.76,26.58,17.14,1.78c6.81.7,12.9-4.76,13.66-12.08s-4.1-13.79-10.78-14.48Z"/><path class="cls-30" d="M1159.93,327.73l-28.59-7.06L1115,386.82,1095.3,382l16.35-66.15-28.59-7.06,4.71-19.05,76.86,19Z"/><path class="cls-30" d="M1177.27,395.43a12.32,12.32,0,0,1-15.56,7.61c-6-2.14-9.25-9.33-7-15.65,2.38-6.69,9.51-10.31,15.5-8.18C1176.54,381.47,1179.65,388.74,1177.27,395.43Zm3.43-18.37-16.91-6,18.48-55.48,19.11,6.81Z"/><ellipse class="cls-31" cx="1812.46" cy="103.63" rx="40.32" ry="41.32"/><ellipse class="cls-32" cx="1812.06" cy="103.22" rx="18.95" ry="19.42"/><rect class="cls-33" x="1807.62" y="54.05" width="8.06" height="11.57"/><rect class="cls-33" x="1808.43" y="142.48" width="8.06" height="11.57"/><rect class="cls-33" x="1852.68" y="93.86" width="8.26" height="11.29" transform="translate(1757.31 1956.32) rotate(-90)"/><polygon class="cls-33" points="1850.79 135.1 1845.32 141.17 1837.03 133.32 1842.5 127.25 1850.79 135.1"/><polygon class="cls-33" points="1786.28 73.12 1780.81 79.19 1772.51 71.34 1777.98 65.27 1786.28 73.12"/><rect class="cls-33" x="1763.97" y="93.86" width="8.26" height="11.29" transform="translate(1668.6 1867.61) rotate(-90)"/><polygon class="cls-33" points="1780.88 127.5 1785.53 134.26 1776.29 140.92 1771.65 134.16 1780.88 127.5"/><polygon class="cls-33" points="1845.86 65.41 1850.84 71.91 1841.96 79.05 1836.98 72.55 1845.86 65.41"/><rect class="cls-34" x="383" y="187.47" width="1177" height="742.71"/><path class="cls-35" d="M457.58,323.58h25.35c0,.15,1.05,13.35,18.3,13.35,9.3,0,17.69-5.55,17.69-11.55,0-12.45-22.64-13.35-29.09-14.7-11.4-2.25-30.75-7.35-30.75-25.8,0-17.25,18.45-31.35,40.95-31.35,27.44,0,40.94,14,40.94,27H516.83c0-2.4-4.05-7.5-16.8-7.5-8.55,0-15.6,5.25-15.6,11.85,0,7.95,15.15,7.95,20.55,8.85,13.65,2.55,39.29,5.85,39.29,31.65,0,16.8-19.8,30.89-43,30.89C471.38,356.27,457.58,336.78,457.58,323.58Z"/><path class="cls-35" d="M638.17,338.88c-8.55,9.9-18.9,17.39-33.75,17.39a41,41,0,0,1-40.94-36.74C560.93,296,580,273.78,604.57,273.78c25.65,0,41.4,25.2,37.35,49.35H584.47a21.24,21.24,0,0,0,19.95,13.5c6.3,0,12.15-2.85,17-8.1Zm-53.7-30.6h38.25c0-8.1-9.3-14.85-18.15-14.85C593.62,293.43,584.47,300.63,584.47,308.28Z"/><path class="cls-35" d="M692.17,294.18v24.9c0,15.15,6.15,15,14.55,15.15v20.85c-29,5.09-38.7-9.75-38.7-28.35V294.18H656.63v-17.7H668v-28.8h24.15v28.8h21v17.7Z"/><path class="cls-35" d="M763.42,294.18v24.9c0,15.15,6.15,15,14.55,15.15v20.85c-29,5.09-38.7-9.75-38.7-28.35V294.18h-11.4v-17.7h11.4v-28.8h24.15v28.8h21v17.7Z"/><path class="cls-35" d="M812.17,267.63a13.58,13.58,0,1,1,13.5-13.5A13.57,13.57,0,0,1,812.17,267.63Zm-11.7,9.15h23.4v77h-23.4Z"/><path class="cls-35" d="M919.72,315.48v38.25H896.47V315.48c0-12.3-4.2-18.75-18-18.75-9.9,0-17.4,8.1-17.55,18.3v38.7H837.37V276.48h23.25v6.15a30.18,30.18,0,0,1,20.7-8.7C913,273.93,919.72,297.33,919.72,315.48Z"/><path class="cls-35" d="M1013.92,276.48v75.45c0,20.54-14.55,46.94-46.95,46.94-14.4,0-25.8-7.5-29.1-10.05l15.6-17.4a24,24,0,0,0,13.5,4.2,23.71,23.71,0,0,0,23.55-21.89,42,42,0,1,1-18.9-79.5,29.74,29.74,0,0,1,19,6.6v-4.35Zm-23.25,39.3c0-10.95-9-21.3-21-21.3a20.85,20.85,0,0,0,0,41.7C980.32,336.18,990.67,327.18,990.67,315.78Z"/><path class="cls-35" d="M1101.81,331.23a19.85,19.85,0,0,1-2.85,9.9,25.47,25.47,0,0,1-7.64,7.95,34.17,34.17,0,0,1-11,5.4,43.63,43.63,0,0,1-13.35,2.1,43.07,43.07,0,0,1-15.45-2.7,29.57,29.57,0,0,1-11.1-6.6c-7.35-7.5-8.7-13.2-8.7-18.45h21.9c0,7.05,6.75,10.5,13.35,10.5,4.35,0,12.9-2.25,12.9-8.1,0-7.35-12.3-9.15-18.9-10.05-6.3-.75-13-2.4-18.75-6a17.86,17.86,0,0,1-9.15-15.6c0-14.1,14.85-25.5,33-25.5,10.2,0,18.6,2.4,24.75,6.9,7.64,5.7,8.39,12.15,8.39,16.2h-19.94c0-5.25-9.15-6.6-13-6.6-4.65,0-11.4,1.2-11.4,7.2,0,4.05,6.3,5.1,14.25,6.3,7.05,1.05,15,2.4,21.45,6.15a22.59,22.59,0,0,1,8.1,7.8,25.35,25.35,0,0,1,2.25,5.85A28.64,28.64,0,0,1,1101.81,331.23Z"/><ellipse class="cls-36" cx="154.5" cy="134" rx="112.5" ry="83"/><path class="cls-37" d="M190.48,141.43c-4.64-4.84-5.86-12-4.7-12.69,1.87-1.19,4.51,4,8,6.35a23,23,0,0,0,2.42,1.15c5.61,2.52,5,2,7.55-.26,3-2.68,3.13-6.43,2.83-9-.42-3.52,1.19-5.61,1.3-8,.17-3.66,4.09-14.45,8.65-15.36,4.77-1,11.85,11,11.29,13.62s-10.72-6.18-12.45-2.06c-.76,1.8.52,9.71.68,10.94.86,6.66-2.89,17.4-9.68,20.3C200.56,148.88,193.85,144.94,190.48,141.43Z"/><path class="cls-37" d="M101.33,132.78c5.9-2.23,9.81-7.72,9.11-8.81-1.11-1.74-5.45,1.58-9.4,2.15a21.46,21.46,0,0,1-2.52,0c-5.8-.12-5.08-.32-6.34-3.22-1.49-3.46-.07-6.65,1.23-8.71,1.77-2.8,1.25-5.2,2.12-7.27,1.33-3.14,2.33-13.78-1.19-16.35-3.68-2.69-14.52,4.57-15.1,7s11.62-.95,11.44,3.2c-.08,1.82-4.36,8-5,8.94-3.41,5.26-4.53,15.78.08,20.91C89.75,135.05,97.05,134.4,101.33,132.78Z"/><path class="cls-17" d="M107.68,104.64c-14.75,16.09-20.61,46.12-13.29,56.83,1.56,2.28,2.08,1.3,8.76,5.92,11.52,8,12.43,12.63,19.72,16.65,4.12,2.27,3.13.4,20,3.3,14.56,2.5,16.23,4,23.31,3.58,6.45-.43,10.51-.41,15.51-2.89,3.52-1.76,5-3.41,8.65-3.86,4.26-.52,6.16,1.23,8.86-.68,3-2.14,3.9-6.61,4-7.16,1-5.17-1.44-8.62-2.85-13.76-1.25-4.52-.17-12.83,2-29.44,1.31-10.06,2.37-15.63.53-22.84-.68-2.66-1.23-4.81-2.74-6.88-2.64-3.61-5.77-3.66-19.52-4.27-8.91-.39-10.56-.5-12.45,1.38-4,4-2.58,10.6-5.27,12-4.32,2.19-8.94-12.92-18.78-18.85C132.36,86.51,116.67,94.84,107.68,104.64Z"/><ellipse class="cls-16" cx="129.2" cy="125.38" rx="14.86" ry="21.26"/><ellipse cx="131.43" cy="125.38" rx="4.91" ry="9.07"/><ellipse class="cls-16" cx="152.6" cy="129.33" rx="12.83" ry="18.35"/><ellipse cx="154.52" cy="129.33" rx="4.23" ry="7.83"/><polygon points="173.31 122.64 111.41 107.71 118.4 99.26 169.15 115.86 173.31 122.64"/><g id="Mic"><rect class="cls-38" x="489.83" y="509.65" width="57.55" height="60"/><polygon class="cls-39" points="579.03 482 579.03 593 527.24 559.7 492.71 537.5 579.03 482"/><path class="cls-40" d="M604,506c1.07.89,10,8.7,11.83,25.57,1.49,13.83-2.42,28.19-9.93,36.43"/><path class="cls-40" d="M628,487c1.07,1.44,10,14,11.83,41.25,1.49,22.3-2.42,45.45-9.93,58.75"/><path class="cls-40" d="M657.69,472c1.06,1.87,10,18.25,11.83,53.63,1.48,29-2.42,59.09-9.94,76.37"/></g><g class="cls-11"><rect class="cls-41" x="1450.5" y="217" width="68.75" height="68.75"/><polyline class="cls-42" points="1470.47 231.82 1472.75 234.94 1499.7 271.79"/><polyline class="cls-43" points="1499.7 231.82 1497.42 234.94 1470.47 271.79"/></g><path class="cls-44" d="M546.49,804c7.49-12.23-3.48-97.47,2.61-98.28,15.49-2,94.28-15.52,94.37-16.09,2.87-17.72,1.15,115.77,0,110.89-.52-2.23,0,9.47-4.35,13.92-4.53,4.62-17.73,12-26.53,10-1.31-.29-11.76-4.5-13-13-1.08-7.21,13.49-21.77,24.78-23.49,5.51-.84,6.85,2.54,9.57,2.18,3.19-.42-3.74-43.27,0-58.28,2-8-74.14,13-76.54,12.18-6.94-2.41,1.2,56.76-.43,74.36-1.07,11.54-17.78,22.1-29.14,20-6.25-1.16-13-6.72-13.91-13.92-1.18-9.69,9.09-16.38,10-17C533.38,801.47,543,809.63,546.49,804Z"/><rect class="cls-45" x="1022.5" y="497.5" width="78" height="78"/><rect class="cls-45" x="1022.5" y="717.5" width="78" height="78"/></g></g></svg>