<svg xmlns="http://www.w3.org/2000/svg" xmlns:xlink="http://www.w3.org/1999/xlink" width="1920" height="1080" viewBox="0 0 1920 1080"><defs><style>.cls-1{opacity:0.7;}.cls-2{fill:url(#linear-gradient);}.cls-3{fill:#fde58f;}.cls-4{fill:url(#linear-gradient-2);}.cls-5{opacity:0.3;fill:url(#linear-gradient-3);}.cls-6{opacity:0.08;fill:url(#linear-gradient-4);}.cls-7{fill:#e09686;}.cls-8{fill:#c98273;}.cls-9{fill:#bf6e5d;}.cls-10{fill:#aa6253;}.cls-11{opacity:0.5;}.cls-12{opacity:0.07;fill:url(#linear-gradient-5);}.cls-13{fill:none;stroke-width:19px;opacity:0.6;}.cls-13,.cls-19{stroke:#000;}.cls-13,.cls-19,.cls-25,.cls-26{stroke-miterlimit:10;}.cls-14{fill:#333;}.cls-15{fill:url(#linear-gradient-6);}.cls-16{fill:url(#linear-gradient-7);}.cls-17{fill:url(#linear-gradient-8);}.cls-18{fill:url(#linear-gradient-9);}.cls-19{fill:#7d932a;stroke-width:12px;opacity:0.54;}.cls-20{fill:red;}.cls-21,.cls-22{fill:#b9dc32;}.cls-21{stroke:#8cc63f;stroke-linecap:square;stroke-linejoin:round;stroke-width:46px;}.cls-23,.cls-25{fill:#fff;}.cls-24{fill:#009245;}.cls-25,.cls-26{stroke:#006837;}.cls-27{fill:#2e3192;}.cls-28{fill:#edc53b;}.cls-29{fill:#fff35f;}</style><linearGradient id="linear-gradient" x1="960.21" y1="781.19" x2="960.21" y2="1.05" gradientUnits="userSpaceOnUse"><stop offset="0" stop-color="#f0c57b"/><stop offset="0.17" stop-color="#f0be7a"/><stop offset="0.42" stop-color="#f1ab76"/><stop offset="0.72" stop-color="#f18c6f"/><stop offset="1" stop-color="#f26868"/></linearGradient><linearGradient id="linear-gradient-2" x1="959.41" y1="853.18" x2="959.41" y2="1109.25" gradientUnits="userSpaceOnUse"><stop offset="0" stop-color="#f0c57b"/><stop offset="0.18" stop-color="#f0bb79"/><stop offset="0.5" stop-color="#f19f73"/><stop offset="0.91" stop-color="#f2726a"/><stop offset="1" stop-color="#f26868"/></linearGradient><linearGradient id="linear-gradient-3" x1="724.17" y1="405.02" x2="724.17" y2="568.79" gradientUnits="userSpaceOnUse"><stop offset="0" stop-color="#fff"/><stop offset="0.09" stop-color="#fff" stop-opacity="0.97"/><stop offset="0.22" stop-color="#fff" stop-opacity="0.89"/><stop offset="0.38" stop-color="#fff" stop-opacity="0.75"/><stop offset="0.56" stop-color="#fff" stop-opacity="0.57"/><stop offset="0.76" stop-color="#fff" stop-opacity="0.33"/><stop offset="0.97" stop-color="#fff" stop-opacity="0.04"/><stop offset="1" stop-color="#fff" stop-opacity="0"/></linearGradient><linearGradient id="linear-gradient-4" x1="9402.1" y1="211.78" x2="9402.1" y2="382.54" gradientTransform="matrix(-1, 0, 0, 1, 10366, 0)" gradientUnits="userSpaceOnUse"><stop offset="0" stop-color="#fff"/><stop offset="0.18" stop-color="#fff" stop-opacity="0.99"/><stop offset="0.32" stop-color="#fff" stop-opacity="0.95"/><stop offset="0.43" stop-color="#fff" stop-opacity="0.89"/><stop offset="0.54" stop-color="#fff" stop-opacity="0.8"/><stop offset="0.64" stop-color="#fff" stop-opacity="0.69"/><stop offset="0.74" stop-color="#fff" stop-opacity="0.55"/><stop offset="0.83" stop-color="#fff" stop-opacity="0.38"/><stop offset="0.92" stop-color="#fff" stop-opacity="0.2"/><stop offset="1" stop-color="#fff" stop-opacity="0"/></linearGradient><linearGradient id="linear-gradient-5" x1="704.19" y1="94.65" x2="704.19" y2="385.04" gradientTransform="translate(-145.82)" xlink:href="#linear-gradient-4"/><linearGradient id="linear-gradient-6" x1="365.42" y1="668.22" x2="810.03" y2="668.22" gradientUnits="userSpaceOnUse"><stop offset="0" stop-color="#f2726a"/><stop offset="0.03" stop-color="#f2856e"/><stop offset="0.08" stop-color="#f19d73"/><stop offset="0.13" stop-color="#f1af76"/><stop offset="0.2" stop-color="#f0bb79"/><stop offset="0.28" stop-color="#f0c37b"/><stop offset="0.47" stop-color="#f0c57b"/><stop offset="0.7" stop-color="#f0c37b"/><stop offset="0.78" stop-color="#f0bc79"/><stop offset="0.84" stop-color="#f0b177"/><stop offset="0.89" stop-color="#f1a073"/><stop offset="0.93" stop-color="#f18a6f"/><stop offset="0.96" stop-color="#f26f69"/><stop offset="0.96" stop-color="#f26d69"/><stop offset="1" stop-color="#f26868"/></linearGradient><linearGradient id="linear-gradient-7" x1="365.42" y1="894.22" x2="810.03" y2="894.22" xlink:href="#linear-gradient-6"/><linearGradient id="linear-gradient-8" x1="1135.42" y1="894.22" x2="1580.03" y2="894.22" xlink:href="#linear-gradient-6"/><linearGradient id="linear-gradient-9" x1="1127.42" y1="668.22" x2="1572.03" y2="668.22" xlink:href="#linear-gradient-6"/></defs><title>Artboard 1 copy 16</title><g id="Scene_1" data-name="Scene 1"><g id="allle_elemnter" data-name="allle elemnter" class="cls-1"><rect class="cls-2" x="-0.2" width="1920.81" height="785.32"/><rect class="cls-3" x="-1" y="785.54" width="1920.81" height="296.27"/><rect class="cls-4" x="-1" y="785.54" width="1920.81" height="296.27"/><path class="cls-5" d="M-3.2,363.51s64-32.65,160.07-11.81,90.9,46.78,115.08,58.16,40.94,32.21,115.42,14.1,109.71-23.64,155.7,7.12-4.86,55.11,61.38,74.05,91-10.83,148.23,0,104.22,56.81,145.57,52.76,142.42-14.42,161-11.58,393.11,26.15,393.11,26.15S939,569.61,873.92,595.31,787.36,647.62,733.82,621s-106.35-62.39-221.6-48.56-82.19,21-170.75,22.85-171.28-53.44-218.76-61S-4,546.31-4,546.31Z"/><path class="cls-6" d="M1916.33,188c-33.38-61.36-244.94-19.41-302,8.16-41.86,20.2-87.11,50-139.72,40.69-18.46-3.26-33.09-11-49.06-17.19-60.89-23.46-148.57-22-206.91,3.43-36.47,15.91-66.69,41.1-112.77,42.33-25.54.68-49.84-6.61-75.39-7.17-60.59-1.34-101.65,32.88-152.59,51.41-56.6,20.6-106.64,14.05-167.69,8.54-54.17-4.9-111.27-.54-166,2.63-76.64,4.42-158.85,20.75-235.4,20.79-14.41,0-304.93,27.06-304.93,27.06S231.9,390.27,352,383.51s60.68-7.28,170,0,232.21,25.71,280.81,23-25.27.54,150.93.27,188.54,14.79,362.49,13.94,191.11-27.75,297.74-37.22,305.9,3.65,305.9,3.65V278c0-20.33,11.42-62.58-3.45-90Z"/><path class="cls-7" d="M1134.32,785.54s-164.63-52.83-326.78-69.19c-80.95-8.16-110.64,28.94-186.55,0s-58-48.3-111.63-48.68-80.37-20.5-169.68-20.5-62.51,36.48-223.26,20.5c-39-3.88-82.61,0-82.61,0V785.54Z"/><path class="cls-7" d="M1401.67,654s-5.74,6.47-34.45,9.7-68.9-18-74.64-16-47.92,8.12-47.92,8.12-13.32-5-22.89-8.25-28.7,17.76-28.7,17.76-38.28-5.24-57.42-1.26-32.53,2.9-47.84,13.68-74.64,3.23-91.87-5.39S950,655.73,934.7,665.1s-32.53,18-36.36,23.39-11.07,22.65-39,29.12-26.3,24.8-26.3,24.8S881.79,768,887,768s514.67,17.54,514.67,17.54Z"/><path class="cls-8" d="M-1,578.11s74.43,4.51,93.64,12.62c31.68,13.39,78,14.74,92.36,28.27s66.11,44.08,66.11,44.08L390.37,785.54H-1Z"/><path class="cls-8" d="M220.69,663.08s124.86,2.51,132.86,5.22,32,20.74,51.22,14.43,35.8-9.45,46.42-9.16c21.29.59,34.42,21.78,58.43,24.94,22,2.9,81.14,82.52,214.64,87H220.69Z"/><path class="cls-8" d="M580.05,785.54s118.45-44.64,146.1-37.88c34.34,8.4,54.73.8,65.49-6.33,6.05-4,15-6.29,24.31-6.29H924.37l72-23.9s29.05-14.89,57.27-14.89,153.66,14.89,153.66,14.89l109.85-14.89,38.41,89.29Z"/><path class="cls-9" d="M-1,636.73s2.4-18,68-18c19.54,0,20.81,9,40,13.53s20.8,3.61,30.41,4.51,32,3.61,32,11.72,22.41,18.94,33.62,20.75S221,702,221,702l267,79L-1,785.54Z"/><path class="cls-9" d="M1916,477c17.63-30.67-41.09-368.56-183-139-.09.14-44.83,112-45,112-16.52-3.65-40.61,68.68-53,79s-406.74,13.36-415,25-132.34,12.89-153,35,40.5,39.59,30,68c-5.12,13.86,128,25,128,25s107.63-12.84,84.16-1.2-1.77,34.91-45.67,37.24-144.4,0-144.4,0-18.4-2.33-91.14,9.31S876.42,762,876.42,762L918,786l1001.81-.46V503.9"/><path class="cls-10" d="M1919.81,540.68s-12-18.94-45.62-8.12,21.61,25.71-33.61,21.65-62.43-28-88.84-24.81-40.82,30.23-76.83,25.49-64.83,6.08-79.23,16.9-14.41,29.77-62.43,50.06-38.42,51-48,62.7-14.41,10.35-38.42,26.59-50.42,37.87-57.62,41.93-145.45,13.53-143.56,17.59-139.12,14.88-139.12,14.88h813.3Z"/><g class="cls-11"><path class="cls-7" d="M1134.32,785.5s-164.63,34.23-326.78,44.82c-80.95,5.29-110.64-18.74-186.55,0s-58,31.29-111.63,31.54S429,875.14,339.68,875.14s-62.51-23.63-223.26-13.28c-39,2.51-82.61,0-82.61,0V785.5Z"/><path class="cls-7" d="M1401.67,870.73s-5.74-4.2-34.45-6.29-68.9,11.69-74.64,10.38-47.92-5.25-47.92-5.25-13.32,3.24-22.89,5.34-28.7-11.5-28.7-11.5-38.28,3.39-57.42.81-32.53-1.88-47.84-8.86-74.64-2.1-91.87,3.49S950,869.6,934.7,863.53s-32.53-11.67-36.36-15.16-11.07-14.67-39-18.86S833,813.44,833,813.44s-65.65-27.94-60.45-27.94h629.11Z"/><path class="cls-8" d="M-1,919.88S73.43,917,92.64,911.7c31.68-8.67,86.44,8.77,100.84,0s57.63-46.87,57.63-46.87L390.37,785.5H-1Z"/><path class="cls-8" d="M220.69,864.83s124.86-1.62,132.86-3.37,32-13.44,51.22-9.35,35.8,6.12,46.42,5.93c21.29-.38,34.42-14.11,58.43-16.16,22-1.87,81.14-53.46,214.64-56.38H220.69Z"/><path class="cls-8" d="M673,786s25.5,28.42,53.15,24c34.34-5.44,54.73-.52,65.49,4.11,6.05,2.59,15,4.07,24.31,4.07H924.37l72,15.48s29.05,9.64,57.27,9.64,153.66-9.64,153.66-9.64l109.85,9.64,38.41-57.84Z"/><path class="cls-9" d="M-1,881.9s2.4,11.69,68,11.69c19.54,0,20.81-5.84,40-8.76s20.8-2.34,30.41-2.93,32-2.33,32-7.59,22.41-12.27,33.62-13.44,17.6-6.91,17.6-6.91L580.05,785.5H-1Z"/><path class="cls-9" d="M1919.81,968h-43.37s2.48,24.53-26.44,29-24.61,33.48-37,38c-4.88,1.78-45.79,2-53,4-21.93,6-72.36,23.07-65-31,0-.17-27.83,9-28,9-16.52,2.36-39.61-6.32-52-13s-93.84-39.06-102.1-46.6-16.52-21.11-37.18-35.44-59.73-12.5-70.23-30.91c-5.12-9-41.31-37.69-41.31-37.69s-31.55,7.54-55,0-1.77-22.62-45.67-24.13-144.4,0-144.4,0-18.4,1.51-91.14-6-151.53-22.44-151.53-22.44L794.1,785.5H1919.81Z"/><path class="cls-10" d="M1919.81,944.13s-12,12.27-45.62,5.26,21.61-16.65-33.61-14-62.43,18.13-88.84,16.08-40.82-19.59-76.83-16.52S1610.08,931,1595.68,924s-14.41-19.28-62.43-32.42-38.42-33-48-40.62-14.41-6.71-38.42-17.23-50.42-24.53-57.62-27.16-145.45-8.77-143.56-11.4-139.12-9.64-139.12-9.64h813.3Z"/></g><path class="cls-12" d="M1116.06,236.52c12.81,71.1-50.43,138.61-103.88,167.83C973.37,425.56,937,429,922,429c-176.2-.27-254,21.85-428,21s-273.38-30.54-380-40S-1,217.16-1,217.16V108c0-20.33,8.51-59.23,3.45-90C-1-3,2,18,2,18,19.14-9.11,239-4,304.53,26.12c42.24,19.41,87.12,50,139.72,40.69,18.47-3.26,33.09-11,49.06-17.19,60.9-23.46,148.57-22,206.91,3.43C736.7,69,766.92,94.15,813,95.38c35,.94,37.84-6.92,75.39-7.17C969.83,87.67,1030,131.69,1041,140,1071.15,162.79,1107.76,190.47,1116.06,236.52Z"/></g><g id="frames"><path class="cls-13" d="M1572.5,906.5c-176.45,24.68-538-13.14-646.63,4.5C853,922.83,232,882.52,179,905,98.88,938.94-.25,893.21-1,861c-1-42.7-109.49-278-28.5-228.5,17.46,10.67,264-2.43,430.75,57.5,243.91,87.67,352.27,3.64,599.31-41,110.86-20,102,57.77,191.67,66,122.23,11.21,174.76-41,409.44-95,152.1-35,194.84-24.16,235.77-2,61.58,33.35,254.9,109.33,78.29,186-82.45,35.79-133.12,122.4-184.48,90-51.86-32.73-136.21,12.88-158.75,12.5"/><polygon class="cls-14" points="390.15 585 782.62 585 782.62 591.47 795.08 591.47 807.54 596.86 807.54 603.33 820 603.33 820 732.67 809.62 732.67 807.54 738.07 788.85 744.53 784.7 751 390.15 751 390.15 743.46 375.61 741.3 369.38 733.75 354.85 732.67 354.85 603.33 365.23 603.33 373.53 594.7 390.15 591.47 390.15 585"/><polygon class="cls-15" points="399.16 588.88 774.3 588.88 774.3 595.06 786.21 595.06 798.12 600.21 798.12 606.4 810.03 606.4 810.03 730.03 800.11 730.03 798.12 735.19 780.26 741.37 776.29 747.55 399.16 747.55 399.16 740.34 385.27 738.28 379.31 731.07 365.42 730.03 365.42 606.4 375.34 606.4 383.28 598.15 399.16 595.06 399.16 588.88"/><polygon class="cls-14" points="390.15 811 782.62 811 782.62 817.47 795.08 817.47 807.54 822.86 807.54 829.33 820 829.33 820 958.67 809.62 958.67 807.54 964.07 788.85 970.53 784.7 977 390.15 977 390.15 969.46 375.61 967.3 369.38 959.75 354.85 958.67 354.85 829.33 365.23 829.33 373.53 820.7 390.15 817.47 390.15 811"/><polygon class="cls-16" points="399.16 814.88 774.3 814.88 774.3 821.06 786.21 821.06 798.12 826.21 798.12 832.4 810.03 832.4 810.03 956.03 800.11 956.03 798.12 961.19 780.26 967.37 776.29 973.55 399.16 973.55 399.16 966.34 385.27 964.28 379.31 957.07 365.42 956.03 365.42 832.4 375.34 832.4 383.28 824.15 399.16 821.06 399.16 814.88"/><polygon class="cls-14" points="1160.15 811 1552.62 811 1552.62 817.47 1565.08 817.47 1577.54 822.86 1577.54 829.33 1590 829.33 1590 958.67 1579.62 958.67 1577.54 964.07 1558.85 970.53 1554.7 977 1160.15 977 1160.15 969.46 1145.61 967.3 1139.38 959.75 1124.85 958.67 1124.85 829.33 1135.23 829.33 1143.53 820.7 1160.15 817.47 1160.15 811"/><polygon class="cls-17" points="1169.16 814.88 1544.3 814.88 1544.3 821.06 1556.21 821.06 1568.12 826.21 1568.12 832.4 1580.03 832.4 1580.03 956.03 1570.11 956.03 1568.12 961.19 1550.26 967.37 1546.29 973.55 1169.16 973.55 1169.16 966.34 1155.27 964.28 1149.31 957.07 1135.42 956.03 1135.42 832.4 1145.34 832.4 1153.28 824.15 1169.16 821.06 1169.16 814.88"/><polygon class="cls-14" points="1152.15 585 1544.62 585 1544.62 591.47 1557.08 591.47 1569.54 596.86 1569.54 603.33 1582 603.33 1582 732.67 1571.62 732.67 1569.54 738.07 1550.85 744.53 1546.7 751 1152.15 751 1152.15 743.46 1137.61 741.3 1131.38 733.75 1116.85 732.67 1116.85 603.33 1127.23 603.33 1135.53 594.7 1152.15 591.47 1152.15 585"/><polygon class="cls-18" points="1161.16 588.88 1536.3 588.88 1536.3 595.06 1548.21 595.06 1560.12 600.21 1560.12 606.4 1572.03 606.4 1572.03 730.03 1562.11 730.03 1560.12 735.19 1542.26 741.37 1538.29 747.55 1161.16 747.55 1161.16 740.34 1147.27 738.28 1141.31 731.07 1127.42 730.03 1127.42 606.4 1137.34 606.4 1145.28 598.15 1161.16 595.06 1161.16 588.88"/></g><path class="cls-19" d="M180,33c59.05,6.46,135.66,45.56,135,95-.57,42.8-58.85,77.81-105,87C117.29,233.47,9.08,160.59,14,108,18.22,62.86,106.51,25,180,33Z"/><path d="M57.69,1007.3H46.42v24.48H39.31V1007.3H28v-6.72H57.69Z"/><path d="M65.13,1004.23A4.24,4.24,0,0,1,61,999.91a4.14,4.14,0,1,1,8.26,0A4.2,4.2,0,0,1,65.13,1004.23Zm-3.56,2.93h7.12v24.62H61.57Z"/><path d="M116.64,1019.54v12.24h-7.07v-12.24c0-3.94-1.33-6-5.48-6a5.56,5.56,0,0,0-5.34,5.86v12.38H91.68v-12.24c0-3.94-1.32-6-5.47-6a5.56,5.56,0,0,0-5.34,5.86c-.05,3.07,0,12.38,0,12.38H73.66v-24.72h7.12v2a9,9,0,0,1,6.29-2.79c5.21,0,8.17,2.16,9.81,5.09a12,12,0,0,1,2.42-2.93,9.94,9.94,0,0,1,8.3-2C115,1007.68,116.64,1014.31,116.64,1019.54Z"/><path d="M144.56,1027c-2.6,3.17-5.75,5.57-10.26,5.57a12.73,12.73,0,0,1-12.46-11.76c-.77-7.54,5-14.64,12.5-14.64,7.8,0,12.6,8.06,11.36,15.79H128.23a6.48,6.48,0,0,0,6.07,4.32,6.81,6.81,0,0,0,5.15-2.59Zm-16.33-9.79h11.63c0-2.6-2.83-4.76-5.52-4.76C131,1012.48,128.23,1014.79,128.23,1017.24Z"/><path d="M169.25,997.84h7.11v33.94h-7.11Z"/><path d="M203.78,1027c-2.6,3.17-5.74,5.57-10.26,5.57a12.74,12.74,0,0,1-12.46-11.76c-.77-7.54,5-14.64,12.5-14.64,7.81,0,12.6,8.06,11.36,15.79H187.45a6.48,6.48,0,0,0,6.07,4.32,6.81,6.81,0,0,0,5.15-2.59Zm-16.33-9.79h11.63c0-2.6-2.82-4.76-5.52-4.76C190.23,1012.48,187.45,1014.79,187.45,1017.24Z"/><path d="M226.19,997.89v4.7s-6.12-1.2-6.12,2.5V1007h5.48v5.86h-5.48v18.91H213v-18.91H208.8V1007H213v-1.92C213,997.84,218.66,995.3,226.19,997.89Z"/><path d="M243,1012.72v8c0,4.85,1.87,4.8,4.43,4.85v6.67c-8.81,1.64-11.77-3.12-11.77-9.07v-10.42h-3.47v-5.66h3.47v-9.22H243v9.22h6.39v5.66Z"/><path d="M256.85,1012.29a5.12,5.12,0,1,1,4.88-5.13A5,5,0,0,1,256.85,1012.29Zm0,16.27a5.12,5.12,0,1,1,4.88-5.13A5,5,0,0,1,256.85,1028.56Z"/><path class="cls-20" d="M1872,1003.65a22.76,22.76,0,0,0-43.5-9.38,22.76,22.76,0,0,0-43.5,9.38,22.56,22.56,0,0,0,1.29,7.56,22.84,22.84,0,0,0,4.22,7.28,23.25,23.25,0,0,0,2.54,2.52l34.73,34.5a1.1,1.1,0,0,0,1.55,0l36-35.79h0a22.7,22.7,0,0,0,6.66-16.07Z"/><path class="cls-20" d="M1756,1003.65a22.76,22.76,0,0,0-43.5-9.38,22.76,22.76,0,0,0-43.5,9.38,22.56,22.56,0,0,0,1.29,7.56,22.84,22.84,0,0,0,4.22,7.28,23.25,23.25,0,0,0,2.54,2.52l34.73,34.5a1.1,1.1,0,0,0,1.55,0l36-35.79h0a22.7,22.7,0,0,0,6.66-16.07Z"/><polyline class="cls-21" points="1119 287.86 1063.96 215 1043 243.95 1110.52 330 1119 296.63"/><polyline class="cls-21" points="1664 298.86 1719.04 226 1740 254.95 1672.48 341 1664 307.63"/><path class="cls-22" d="M1600.5,540c37.5-25,65.14-17.1,74.5-40,56-137.08,10.89-101.09-1-175-12.81-79.61-51.53-198.36-99.5-219-49.54-21.31-88.63,60.39-185,57-80.54-2.83-113.1-62-155-41-34.55,17.33-16.91,59.82-62,128-39.33,59.47-72.8,57.47-95,101-16.67,32.69-25.56,88.28,21,186l73.5,11,108,15,114,6,130-20Z"/><circle class="cls-23" cx="1290" cy="284" r="52"/><circle cx="1281.5" cy="283.5" r="21.5"/><path class="cls-24" d="M1338.67,264.06C1354.5,323.26,1314.58,283,1281,283c-28.72,0-43,29.72-43,1,0-39.32,43.65-68.45,85.13-41.58A37.12,37.12,0,0,1,1338.67,264.06Z"/><circle class="cls-25" cx="1493" cy="262" r="52"/><circle class="cls-26" cx="1493.5" cy="249.5" r="21.5"/><path class="cls-24" d="M1545,262c0,28.72-16.28-10-45-10s-59,38.72-59,10a52,52,0,0,1,104,0Z"/><polygon class="cls-24" points="1246 367.41 1246 361.21 1211.48 345.7 1176.26 384.55 1183.63 424.88 1224.28 451.96 1292.54 457 1328.61 449.63 1408.11 410.07 1488 444.98 1551.6 453.51 1621.02 425.59 1640.03 386.8 1622.57 345.7 1584.57 339.49 1569.44 356.17 1571.77 362.37 1586.51 355 1602.41 356.94 1609.39 372.07 1577.2 389.91 1467.83 336 1410.05 356.17 1354.59 336 1235.53 399.6 1211.48 383.31 1216.53 364.7 1246 367.41"/><path d="M1734.22,287.09l11.13-2.24,17.44-181-31.41,6.31-14.28,173Z"/><path d="M1197.29,226.78l1,5.33,371.09-47.46-3-15.06L1211,216.26Z"/><rect class="cls-27" x="1753.23" y="108.08" width="33.33" height="75" transform="translate(29.43 -207.27) rotate(6.76)"/><rect class="cls-23" x="1786.33" y="112" width="33.33" height="75" transform="translate(30.12 -211.14) rotate(6.76)"/><rect class="cls-20" x="1819.44" y="115.92" width="33.33" height="75" transform="translate(30.81 -215) rotate(6.76)"/><path class="cls-28" d="M1053.84,72.47c11.28-32.43,62.25-34.06,46.38,15.38s-82.86,248-74.46,222.9c0,0-58.57,21.38-37.52-42.11S1042.56,104.89,1053.84,72.47Z"/><path class="cls-29" d="M1068.41,99c-10.42-4.55-16.92.06-14.13,3.24,3.44,3.91,25.06,10.32,26.2,7.07C1081.14,107.38,1074.82,101.79,1068.41,99Z"/><path class="cls-29" d="M1055.41,134c-10.42-4.55-16.92.06-14.13,3.24,3.44,3.91,25.06,10.32,26.2,7.07C1068.14,142.38,1061.82,136.79,1055.41,134Z"/><path class="cls-29" d="M1042.41,169c-10.42-4.55-16.92.06-14.13,3.24,3.44,3.91,25.06,10.32,26.2,7.07C1055.14,177.38,1048.82,171.79,1042.41,169Z"/><path class="cls-29" d="M1029.41,204c-10.42-4.55-16.92.06-14.13,3.24,3.44,3.91,25.06,10.32,26.2,7.07C1042.14,212.38,1035.82,206.79,1029.41,204Z"/><path class="cls-29" d="M1016.41,245c-10.42-4.55-16.92.06-14.13,3.24,3.44,3.91,25.06,10.32,26.2,7.07C1029.14,253.38,1022.82,247.79,1016.41,245Z"/><path d="M165.77,159.06H145.26V99.52c-4.82,6-17,9.62-17.43,9.88l-4.32-19.76c5.07-2.73,17.3-8.19,21.75-19h20.51Z"/><path d="M203.7,148.14a12.52,12.52,0,0,1-12.35,12.48c-6.43,0-11.86-5.72-11.86-12.48,0-7.15,5.43-13,11.86-13C198.14,135.14,203.7,141,203.7,148.14Z"/><path d="M315,236.73l-31.31,76.74H264.38L250.8,270.85l-13.58,42.62h-19.3l-31.31-76.74h20l20.09,47,15.49-47h17.28l15.6,47,20-47Z"/><path d="M383.56,286.08v27.39H366.28V286.08c0-9-3.48-14.88-13.81-14.88-7.4,0-13.46,6.5-13.57,14.52v27.75H321.27V229.88H338.9v29c.11-.11,6.17-7.08,15.59-7.08C378.51,251.84,383.56,271.67,383.56,286.08Z"/><path d="M460.66,252.79v60.68H443.37v-4.84a33.82,33.82,0,0,1-6.95,4.37,30.7,30.7,0,0,1-24.13,0,32.22,32.22,0,0,1-9.77-7,33,33,0,0,1-6.62-10.39,35,35,0,0,1,0-25.26,33.82,33.82,0,0,1,6.62-10.27,31.88,31.88,0,0,1,9.77-7,29.29,29.29,0,0,1,24.13,0,33.4,33.4,0,0,1,6.95,4.37v-4.72ZM439.9,283c0-9-7-16.29-15.49-16.29S408.81,274,408.81,283s7,16.41,15.6,16.41S439.9,292.1,439.9,283Z"/><path d="M500.83,266.6v19.6c0,11.92,4.6,11.8,10.89,11.92v16.41c-21.66,4-29-7.67-29-22.31V266.6h-8.53V252.67h8.53V230h18.07v22.67h15.71V266.6Z"/><path d="M639.42,230v83.47h-17.5v-4.61a31.09,31.09,0,0,1-19,6.73c-16.61,0-31.09-14.87-31.09-32.7,0-16.88,13.69-32.58,31.09-32.58a31.15,31.15,0,0,1,19,6.73V230Zm-20.87,52.89c0-9-7-16.41-15.6-16.41s-15.6,7.44-15.6,16.41,7,16.53,15.6,16.53S618.55,292,618.55,282.89Z"/><path d="M715.62,283.36A34.59,34.59,0,0,1,713.15,296a32.41,32.41,0,0,1-6.62,10.28,29,29,0,0,1-9.76,7,28.3,28.3,0,0,1-12,2.6,30.11,30.11,0,0,1-12-2.48,32.34,32.34,0,0,1-9.88-7,33.82,33.82,0,0,1-6.62-10.27,34.48,34.48,0,0,1-2.35-12.63,32.17,32.17,0,0,1,2.35-12.63,33,33,0,0,1,6.62-10.39,30.82,30.82,0,0,1,9.77-7,30.15,30.15,0,0,1,12-2.59,28.22,28.22,0,0,1,12,2.59,30.24,30.24,0,0,1,9.88,6.85,34.19,34.19,0,0,1,6.62,10.39A37,37,0,0,1,715.62,283.36Zm-15.37,0c0-9.09-7-16.29-15.6-16.29s-15.49,7.32-15.49,16.29,7,16.41,15.6,16.41S700.25,292.33,700.25,283.36Z"/><path d="M782.17,301.78c-6.4,7.79-14.14,13.69-25.25,13.69-15.83,0-29-12.39-30.64-28.92-1.91-18.53,12.34-36,30.75-36,19.19,0,31,19.84,27.94,38.84H742A15.92,15.92,0,0,0,756.92,300c4.71,0,9.09-2.24,12.68-6.38ZM742,277.7h28.62c0-6.38-7-11.69-13.58-11.69C748.83,266,742,271.67,742,277.7Z"/><path d="M848.27,295.76a16.22,16.22,0,0,1-2.14,7.79,19.67,19.67,0,0,1-5.72,6.26,25,25,0,0,1-8.19,4.25,31.28,31.28,0,0,1-10,1.65,30.8,30.8,0,0,1-11.56-2.12,22.15,22.15,0,0,1-8.31-5.2c-5.49-5.9-6.51-10.39-6.51-14.52h16.39c0,5.55,5,8.26,10,8.26,3.25,0,9.65-1.77,9.65-6.37,0-5.79-9.2-7.2-14.14-7.91a32.69,32.69,0,0,1-14-4.72,14.18,14.18,0,0,1-6.84-12.28c0-11.1,11.11-20.07,24.69-20.07,7.63,0,13.91,1.89,18.51,5.43A15.12,15.12,0,0,1,846.36,269H831.43c0-4.13-6.85-5.19-9.76-5.19-3.48,0-8.53.94-8.53,5.66,0,3.19,4.71,4,10.66,5,5.27.83,11.22,1.89,16.05,4.84a17.27,17.27,0,0,1,6.06,6.14,20.14,20.14,0,0,1,1.68,4.6A23.23,23.23,0,0,1,848.27,295.76Z"/><path d="M241.6,348.18v11.57s-15-2.95-15,6.14v4.72H240V385H226.56v46.52H209.05V385H198.84v-14.4h10.21v-4.72C209.05,348.06,223.08,341.8,241.6,348.18Z"/><path d="M298.27,369.78v15.47a17.35,17.35,0,0,0-3.59-.35c-8.3,0-15.49,6.72-15.49,18.53v28.1H261.91V370.85h17.28v7.08c.79-2,3.93-8.85,13.7-8.85A19.93,19.93,0,0,1,298.27,369.78Z"/><path d="M370.32,370.85v60.68H353v-4.84a33.47,33.47,0,0,1-7,4.37,30.7,30.7,0,0,1-24.13,0,32.06,32.06,0,0,1-9.76-7,32.83,32.83,0,0,1-6.63-10.39,35.11,35.11,0,0,1,0-25.26,33.67,33.67,0,0,1,6.63-10.27,31.72,31.72,0,0,1,9.76-7,29.29,29.29,0,0,1,24.13,0,33.47,33.47,0,0,1,7,4.37v-4.72Zm-20.76,30.22c0-9-7-16.29-15.49-16.29s-15.6,7.32-15.6,16.29,7,16.41,15.6,16.41S349.56,410.16,349.56,401.07Z"/><path d="M447.19,401.42v30.11h-17.4V401.42c0-9.68-3.14-14.75-13.46-14.75-7.41,0-13,6.37-13.13,14.4v30.46H385.58v-60.8H403v4.84c.11-.12,6.06-6.85,15.49-6.85C442.14,368.72,447.19,387.14,447.19,401.42Z"/><path d="M511.94,421.49c-6.29,6.61-13.47,12-24,12-15.93,0-30.86-14.16-30.86-32.46,0-17.12,13.69-32.47,30.86-32.47,9.54,0,18.07,4.84,24.36,12.4l-12.12,10.62a15.28,15.28,0,0,0-12.69-7c-8.64,0-15.71,7.32-15.71,16.41s7.07,16.41,15.71,16.41A15.34,15.34,0,0,0,499.93,411Z"/><path d="M574,419.84c-6.4,7.79-14.14,13.69-25.25,13.69-15.83,0-29-12.39-30.64-28.92-1.91-18.53,12.34-36,30.75-36,19.19,0,31,19.84,27.94,38.84h-43a15.92,15.92,0,0,0,14.93,10.63c4.71,0,9.09-2.24,12.68-6.38Zm-40.18-24.08h28.62c0-6.38-7-11.69-13.58-11.69C540.67,384.07,533.82,389.74,533.82,395.76Z"/><path d="M702.72,404.14v27.39H685.43V404.14c0-9-3.48-14.88-13.8-14.88-7.41,0-13.47,6.5-13.58,14.52v27.75H640.43V347.94h17.62V377c.11-.12,6.17-7.09,15.6-7.09C697.67,369.9,702.72,389.74,702.72,404.14Z"/><path d="M779.81,370.85v60.68H762.53v-4.84a33.21,33.21,0,0,1-7,4.37,30.7,30.7,0,0,1-24.13,0,32.06,32.06,0,0,1-9.76-7,32.8,32.8,0,0,1-6.62-10.39,35,35,0,0,1,0-25.26,33.64,33.64,0,0,1,6.62-10.27,31.72,31.72,0,0,1,9.76-7,29.29,29.29,0,0,1,24.13,0,33.21,33.21,0,0,1,7,4.37v-4.72Zm-20.76,30.22c0-9-7-16.29-15.49-16.29S728,392.1,728,401.07s7,16.41,15.6,16.41S759.05,410.16,759.05,401.07Z"/><path d="M851.86,370.73l-22.34,60.8h-19.3l-22.34-60.8h17.06l14.93,36.48,15-36.48Z"/><path d="M909.42,419.84c-6.39,7.79-14.14,13.69-25.25,13.69-15.82,0-28.95-12.39-30.63-28.92-1.91-18.53,12.34-36,30.75-36,19.19,0,31,19.84,27.94,38.84h-43a15.91,15.91,0,0,0,14.92,10.63c4.72,0,9.09-2.24,12.69-6.38Zm-40.17-24.08h28.62c0-6.38-7-11.69-13.58-11.69C876.09,384.07,869.25,389.74,869.25,395.76Z"/><path d="M264.16,488.91v60.68H246.88v-4.84a33.47,33.47,0,0,1-7,4.37,30.59,30.59,0,0,1-24.13,0,32.22,32.22,0,0,1-9.77-7,33,33,0,0,1-6.62-10.39,35.11,35.11,0,0,1,0-25.26A33.82,33.82,0,0,1,206,496.23a32.05,32.05,0,0,1,9.77-7,29.29,29.29,0,0,1,24.13,0,33.47,33.47,0,0,1,7,4.37v-4.72ZM243.4,519.13c0-9-7-16.29-15.49-16.29s-15.6,7.32-15.6,16.29,7,16.41,15.6,16.41S243.4,528.22,243.4,519.13Z"/><path d="M327.33,466.12h17.51v83.47H327.33Z"/><path d="M418.46,519.48A34.69,34.69,0,0,1,416,532.12a32.54,32.54,0,0,1-6.62,10.27,28.89,28.89,0,0,1-9.77,7,28.23,28.23,0,0,1-12,2.6,30,30,0,0,1-12-2.48,32.36,32.36,0,0,1-9.88-7,34,34,0,0,1-6.62-10.28,34.49,34.49,0,0,1-2.36-12.63A32.36,32.36,0,0,1,359.09,507a33,33,0,0,1,6.62-10.39,30.63,30.63,0,0,1,9.77-7,30,30,0,0,1,12-2.6,28.09,28.09,0,0,1,12,2.6,30.06,30.06,0,0,1,9.88,6.84A34.51,34.51,0,0,1,416,506.85,37.13,37.13,0,0,1,418.46,519.48Zm-15.38,0c0-9.09-6.95-16.29-15.6-16.29S372,510.51,372,519.48s6.95,16.41,15.6,16.41S403.08,528.46,403.08,519.48Z"/><path d="M456.27,502.72v19.6c0,11.92,4.61,11.8,10.89,11.92v16.41c-21.66,4-29-7.67-29-22.31V502.72h-8.53V488.79h8.53V466.12h18.06v22.67H472v13.93Z"/><path d="M591.73,519.48a34.69,34.69,0,0,1-2.47,12.64,32.54,32.54,0,0,1-6.62,10.27,29,29,0,0,1-9.77,7,28.24,28.24,0,0,1-12,2.6,30.11,30.11,0,0,1-12-2.48,32.44,32.44,0,0,1-9.87-7,33.8,33.8,0,0,1-6.62-10.28A34.49,34.49,0,0,1,530,519.6,32.36,32.36,0,0,1,532.36,507,32.8,32.8,0,0,1,539,496.58a30.59,30.59,0,0,1,9.76-7,30.06,30.06,0,0,1,12-2.6,28.15,28.15,0,0,1,12,2.6,30.17,30.17,0,0,1,9.88,6.84,34.51,34.51,0,0,1,6.62,10.39A37.37,37.37,0,0,1,591.73,519.48Zm-15.38,0c0-9.09-7-16.29-15.6-16.29s-15.49,7.32-15.49,16.29,7,16.41,15.6,16.41S576.35,528.46,576.35,519.48Z"/><path d="M644.24,466.24v11.57s-15-2.95-15,6.14v4.72h13.47v14.4H629.2v46.52H611.7V503.07H601.48v-14.4H611.7V484C611.7,466.12,625.73,459.87,644.24,466.24Z"/><path d="M705.85,486.31c0,9-8.08,14.88-13.8,19.24-1.68,1.3-3.14,2.36-4.15,3.31a8.24,8.24,0,0,0-1.57,3.89,62,62,0,0,0-.57,10.16V524h-17.5v-1.06c0-7.79.11-12.28,1.23-15.82s3-6,6.85-8.15a40.68,40.68,0,0,0,7.74-5.07c3-2.6,4.49-5.08,4.49-7.56,0-7.67-6-8.62-8.53-8.62-7.29,0-9.31,5.55-9.31,8.62v.94H654.45v-.94a22.6,22.6,0,0,1,1.57-8.62,21.11,21.11,0,0,1,4.72-7.67c4.6-5.08,11.33-7.79,19.3-7.79a32.47,32.47,0,0,1,10.44,1.65,30.24,30.24,0,0,1,8.19,5,23.64,23.64,0,0,1,5.28,7.67A25.4,25.4,0,0,1,705.85,486.31Zm-18.29,55.84a10.15,10.15,0,0,1-3.37,7.44,11.79,11.79,0,0,1-15.6,0,10.27,10.27,0,0,1,0-15,11.76,11.76,0,0,1,15.6,0A10.17,10.17,0,0,1,687.56,542.15Z"/><path d="M1285.27,628.73v31.21h-7.11V644l-7,15.94h-3.11l-6.84-15.8v15.8h-7.16V628.73h7.16v.15l8.4,17.52,8.53-17.67v0Z"/><path d="M1295.22,632.38a4.24,4.24,0,0,1-4.15-4.32,4.14,4.14,0,1,1,8.26,0A4.2,4.2,0,0,1,1295.22,632.38Zm-3.56,2.93h7.12v24.63h-7.12Z"/><path d="M1346.73,647.69v12.25h-7.07V647.69c0-3.93-1.32-6-5.48-6-3,0-5.33,2.6-5.33,5.86v12.39h-7.08V647.69c0-3.93-1.32-6-5.47-6a5.56,5.56,0,0,0-5.34,5.86c0,3.07,0,12.39,0,12.39h-7.21V635.21h7.12v2a9,9,0,0,1,6.3-2.78c5.2,0,8.16,2.16,9.81,5.09a11.51,11.51,0,0,1,2.41-2.93c2.28-2,5.2-2.45,8.31-2C1345.09,635.84,1346.73,642.46,1346.73,647.69Z"/><path d="M1374.65,655.18c-2.6,3.17-5.74,5.57-10.26,5.57A12.74,12.74,0,0,1,1351.93,649c-.77-7.54,5-14.64,12.5-14.64,7.81,0,12.6,8.06,11.36,15.79h-17.47a6.48,6.48,0,0,0,6.07,4.32,6.8,6.8,0,0,0,5.15-2.59Zm-16.33-9.79H1370c0-2.59-2.83-4.75-5.53-4.75C1361.1,640.64,1358.32,642.94,1358.32,645.39Z"/><path d="M1401.53,652.73a6.57,6.57,0,0,1-.87,3.17,8,8,0,0,1-2.33,2.55,10.24,10.24,0,0,1-3.33,1.73,12.66,12.66,0,0,1-4.06.67,12.4,12.4,0,0,1-4.7-.87,8.93,8.93,0,0,1-3.37-2.11c-2.24-2.4-2.65-4.22-2.65-5.9h6.66c0,2.25,2.06,3.36,4.06,3.36,1.33,0,3.93-.72,3.93-2.6,0-2.35-3.74-2.92-5.75-3.21a13.23,13.23,0,0,1-5.7-1.92,5.77,5.77,0,0,1-2.79-5c0-4.52,4.52-8.16,10-8.16a12.14,12.14,0,0,1,7.53,2.2,6.17,6.17,0,0,1,2.55,5.19h-6.07c0-1.68-2.78-2.11-4-2.11-1.41,0-3.46.38-3.46,2.3,0,1.3,1.91,1.63,4.33,2a17.67,17.67,0,0,1,6.53,2,7.08,7.08,0,0,1,2.46,2.5,8.16,8.16,0,0,1,.68,1.87A9.12,9.12,0,0,1,1401.53,652.73Z"/><path d="M1415.44,656.77a4.07,4.07,0,0,1-1.36,3.07,4.69,4.69,0,0,1-6.48,0,4,4,0,0,1-1.42-3.07,4.15,4.15,0,0,1,1.42-3.17,5,5,0,0,1,6.48,0A4.27,4.27,0,0,1,1415.44,656.77Zm-1.09-31.54v24.15h-7V625.23Z"/><path d="M1430.23,656.77a4.08,4.08,0,0,1-1.37,3.07,4.69,4.69,0,0,1-6.48,0,4,4,0,0,1-1.42-3.07,4.15,4.15,0,0,1,1.42-3.17,5,5,0,0,1,6.48,0A4.28,4.28,0,0,1,1430.23,656.77Zm-1.1-31.54v24.15h-7V625.23Z"/><path d="M1196.19,860.41a13.77,13.77,0,0,1-3.69,9.36,13,13,0,0,1-4,2.83,12.42,12.42,0,0,1-9.81,0,15.23,15.23,0,0,1-2.78-1.73v12h-7.07V848.21h7.07v1.73a15.23,15.23,0,0,1,2.78-1.73,12.53,12.53,0,0,1,9.81,0,13,13,0,0,1,4,2.84,13.72,13.72,0,0,1,3.69,9.36Zm-6.25,0a6.32,6.32,0,1,0-6.34,6.67A6.5,6.5,0,0,0,1189.94,860.41Z"/><path d="M1225.17,860.69a14,14,0,0,1-1,5.14,13.16,13.16,0,0,1-2.69,4.18,11.66,11.66,0,0,1-4,2.83,11.47,11.47,0,0,1-4.88,1.06,12.22,12.22,0,0,1-4.88-1,13.19,13.19,0,0,1-4-2.84,13.57,13.57,0,0,1-2.69-4.17,14,14,0,0,1-1-5.14,13.21,13.21,0,0,1,1-5.13,13.39,13.39,0,0,1,2.69-4.23,12.49,12.49,0,0,1,4-2.83,12.31,12.31,0,0,1,4.88-1.06,11.52,11.52,0,0,1,4.89,1.06,12.17,12.17,0,0,1,4,2.78,14,14,0,0,1,2.69,4.23A15.15,15.15,0,0,1,1225.17,860.69Zm-6.25,0a6.33,6.33,0,1,0-6.3,6.68A6.53,6.53,0,0,0,1218.92,860.69Z"/><path d="M1244.56,847.83v6.29a7,7,0,0,0-1.46-.15c-3.38,0-6.3,2.74-6.3,7.54v11.43h-7V848.26h7v2.88a5.61,5.61,0,0,1,5.57-3.6A8.16,8.16,0,0,1,1244.56,847.83Z"/><path d="M1262.72,847.83v6.29a7,7,0,0,0-1.46-.15c-3.38,0-6.3,2.74-6.3,7.54v11.43h-7V848.26h7v2.88a5.61,5.61,0,0,1,5.57-3.6A8.16,8.16,0,0,1,1262.72,847.83Z"/><path d="M1269.75,845.38a4.24,4.24,0,0,1-4.16-4.32,4.14,4.14,0,1,1,8.26,0A4.2,4.2,0,0,1,1269.75,845.38Zm-3.56,2.93h7.11v24.63h-7.11Z"/><path d="M1304.1,839v33.94H1297v-1.88a12.64,12.64,0,0,1-7.71,2.74c-6.75,0-12.64-6-12.64-13.3,0-6.86,5.57-13.25,12.64-13.25A12.61,12.61,0,0,1,1297,850V839Zm-8.49,21.5a6.35,6.35,0,1,0-6.34,6.72A6.52,6.52,0,0,0,1295.61,860.5Z"/><path d="M1334,848.21v24.15c0,6.58-4.43,15-14.28,15a15,15,0,0,1-8.85-3.21l4.74-5.57a7,7,0,0,0,4.11,1.34,7.36,7.36,0,0,0,7.16-7,12.34,12.34,0,0,1-5.75,1.44c-7.07,0-12.77-6-12.77-13.45s5.7-13.44,12.77-13.44a8.79,8.79,0,0,1,5.8,2.12v-1.4ZM1327,860.79c0-3.5-2.74-6.82-6.39-6.82a6.69,6.69,0,0,0,0,13.35A6.62,6.62,0,0,0,1327,860.79Z"/><path d="M1360.36,868.18c-2.61,3.17-5.75,5.57-10.27,5.57A12.74,12.74,0,0,1,1337.63,862c-.77-7.54,5-14.64,12.51-14.64,7.8,0,12.59,8.06,11.36,15.79H1344a6.48,6.48,0,0,0,6.07,4.32,6.81,6.81,0,0,0,5.16-2.59ZM1344,858.39h11.64c0-2.59-2.83-4.75-5.52-4.75C1346.81,853.64,1344,855.94,1344,858.39Z"/><path d="M1402.19,847.83v6.29a6.81,6.81,0,0,0-1.46-.15c-3.37,0-6.29,2.74-6.29,7.54v11.43h-7V848.26h7v2.88a5.6,5.6,0,0,1,5.56-3.6A8.11,8.11,0,0,1,1402.19,847.83Z"/><path d="M1429.57,860.69a14.25,14.25,0,0,1-1,5.14,13.19,13.19,0,0,1-2.7,4.18,11.66,11.66,0,0,1-4,2.83,11.47,11.47,0,0,1-4.88,1.06,12.22,12.22,0,0,1-4.88-1,13,13,0,0,1-4-2.84,13.6,13.6,0,0,1-2.7-4.17,14,14,0,0,1-1-5.14,13,13,0,0,1,1-5.13,13.41,13.41,0,0,1,2.7-4.23,12.21,12.21,0,0,1,8.85-3.89,11.47,11.47,0,0,1,4.88,1.06,12.17,12.17,0,0,1,4,2.78,14,14,0,0,1,2.7,4.23A15.39,15.39,0,0,1,1429.57,860.69Zm-6.25,0a6.33,6.33,0,1,0-6.3,6.68A6.53,6.53,0,0,0,1423.32,860.69Z"/><path d="M1434.73,860.46V848.21h7.07v12.25c0,3.93,1.28,6,5.43,6,3,0,5.29-2.55,5.33-5.81,0,0,.1-7.68.1-12.44h7.07v24.73h-7.07v-2a9,9,0,0,1-6.25,2.78C1436.78,873.75,1434.73,866.26,1434.73,860.46Z"/><path d="M1488.79,848.21v24.15c0,6.58-4.42,15-14.28,15a15,15,0,0,1-8.85-3.21l4.74-5.57a7,7,0,0,0,4.11,1.34,7.36,7.36,0,0,0,7.16-7,12.34,12.34,0,0,1-5.75,1.44c-7.07,0-12.77-6-12.77-13.45s5.7-13.44,12.77-13.44a8.79,8.79,0,0,1,5.8,2.12v-1.4Zm-7.07,12.58c0-3.5-2.74-6.82-6.39-6.82a6.69,6.69,0,0,0,0,13.35A6.62,6.62,0,0,0,1481.72,860.79Z"/><path d="M1515.12,868.18c-2.6,3.17-5.75,5.57-10.27,5.57A12.72,12.72,0,0,1,1492.4,862c-.78-7.54,5-14.64,12.5-14.64,7.8,0,12.59,8.06,11.36,15.79h-17.48a6.48,6.48,0,0,0,6.07,4.32,6.81,6.81,0,0,0,5.16-2.59Zm-16.34-9.79h11.64c0-2.59-2.83-4.75-5.52-4.75C1501.57,853.64,1498.78,855.94,1498.78,858.39Z"/><path d="M1236.6,920.31v24.63h-7v-2a12.74,12.74,0,0,1-2.87,1.77,12.32,12.32,0,0,1-9.77,0,13,13,0,0,1-4-2.83,13.74,13.74,0,0,1-2.69-4.18,13.71,13.71,0,0,1,2.69-14.49,13,13,0,0,1,4-2.83,12.32,12.32,0,0,1,9.77,0,12.39,12.39,0,0,1,2.87,1.77v-1.87Zm-6.35-5.76h-12.77l-2.55-5.62h12.72Zm-8.39,11.9a6.11,6.11,0,1,0,5.75,6.1A6,6,0,0,0,1221.86,926.45Z"/><path d="M1261.51,911h7.12v33.94h-7.12Z"/><path d="M1299.51,920.26v24.68h-7v-2a13.68,13.68,0,0,1-2.83,1.77,12.42,12.42,0,0,1-9.81,0,13,13,0,0,1-4-2.83,13.45,13.45,0,0,1-2.69-4.22,14.24,14.24,0,0,1,0-10.28,13.81,13.81,0,0,1,2.69-4.17,13,13,0,0,1,4-2.83,11.88,11.88,0,0,1,9.81,0,13.27,13.27,0,0,1,2.83,1.77v-1.92Zm-8.44,12.29a6.32,6.32,0,1,0-6.29,6.67A6.47,6.47,0,0,0,1291.07,932.55Z"/><path d="M1347,940.86c-2.55,2.68-5.47,4.89-9.76,4.89-6.48,0-12.55-5.76-12.55-13.2,0-7,5.57-13.2,12.55-13.2a12.94,12.94,0,0,1,9.9,5l-4.93,4.32a6.19,6.19,0,0,0-5.15-2.83,6.68,6.68,0,0,0,0,13.34,6.22,6.22,0,0,0,5.06-2.64Z"/><path d="M1365.63,919.83v6.29a7,7,0,0,0-1.46-.15c-3.38,0-6.3,2.74-6.3,7.54v11.43h-7V920.26h7v2.88a5.6,5.6,0,0,1,5.56-3.6A8.18,8.18,0,0,1,1365.63,919.83Z"/><path d="M1395.92,939.37a6.19,6.19,0,0,0-.46.62,12.67,12.67,0,0,1-9.81,5,12.76,12.76,0,0,1-12.45-11.77c-.78-7.24,4.24-13.77,11.13-14.54a5.88,5.88,0,0,1,1.32-.1c6.44,0,10.86,5,11.59,11.76a14.64,14.64,0,0,1-.18,4h-17.47a6.53,6.53,0,0,0,6.06,4.32,3.54,3.54,0,0,0,.73,0,6.31,6.31,0,0,0,4.38-2.55Zm-6-23.76h-9.77l-2.23-4.85h9.72Zm-10.31,14h11.63c0-2.64-2.83-4.75-5.57-4.75C1382.37,924.82,1379.59,927.08,1379.59,929.57Z"/><path d="M1445.92,932.69v12.25h-7.07V932.69c0-3.93-1.32-6-5.47-6a5.56,5.56,0,0,0-5.34,5.86v12.39H1421V932.69c0-3.93-1.32-6-5.48-6-3,0-5.33,2.6-5.33,5.86-.05,3.07,0,12.39,0,12.39H1403V920.21h7.11v2a9,9,0,0,1,6.3-2.78c5.2,0,8.17,2.16,9.81,5.09a11.56,11.56,0,0,1,2.42-2.93c2.28-2,5.2-2.45,8.3-2C1444.28,920.84,1445.92,927.46,1445.92,932.69Z"/><path d="M1473.85,940.18c-2.6,3.17-5.75,5.57-10.27,5.57A12.72,12.72,0,0,1,1451.13,934c-.78-7.54,5-14.64,12.5-14.64,7.8,0,12.59,8.06,11.36,15.79h-17.47a6.46,6.46,0,0,0,6.06,4.32,6.81,6.81,0,0,0,5.16-2.59Zm-16.33-9.79h11.63c0-2.59-2.83-4.75-5.52-4.75C1460.3,925.64,1457.52,927.94,1457.52,930.39Z"/><path d="M434.17,895.78H419.79l-2,4.28h-8l14.73-31.21h5.39l14.19,31.21h-7.9Zm-2.79-6.09-4.42-10-4.2,10Z"/><path d="M449.59,866.12h7.12v33.94h-7.12Z"/><path d="M461.5,866.12h7.11v33.94H461.5Z"/><path d="M499.5,875.38v24.68h-7v-2a13.82,13.82,0,0,1-2.82,1.78,12.53,12.53,0,0,1-9.81,0,13,13,0,0,1-6.66-7.06,14.21,14.21,0,0,1,0-10.27,13.55,13.55,0,0,1,2.69-4.18,13,13,0,0,1,4-2.83,11.88,11.88,0,0,1,9.81,0,13.36,13.36,0,0,1,2.82,1.77v-1.92Zm-8.44,12.29a6.33,6.33,0,1,0-6.3,6.67A6.48,6.48,0,0,0,491.06,887.67Z"/><path d="M533.63,888.92v11.14h-7V888.92c0-3.65-1.41-6-5.61-6a5.78,5.78,0,0,0-5.52,5.91v11.28h-7.16v-34h7.16v11.81a9.08,9.08,0,0,1,6.34-2.88C531.57,875,533.63,883.06,533.63,888.92Z"/><path d="M539.61,887.58V875.33h7.07v12.25c0,3.93,1.27,6,5.43,6,3,0,5.29-2.55,5.33-5.81,0,0,.1-7.68.1-12.44h7.07v24.73h-7.07v-2a9,9,0,0,1-6.25,2.78C541.66,900.87,539.61,893.38,539.61,887.58Z"/><path d="M612.42,895.78H598.05l-2,4.28h-8l14.74-31.21h5.38l14.19,31.21h-7.89Zm-2.78-6.09-4.43-10-4.19,10Z"/><path d="M655.36,900.06h-9.45L639.07,890l-3,3.12v7h-7.12V866.12h7.12v16.51l7.39-7.3h8.67l-9,9.7Z"/><path d="M689.67,887.67c0,7.06-5.71,13.25-12.6,13.25a12.22,12.22,0,0,1-7.66-2.74v1.88h-7.12V866.12h7.12v11a12.2,12.2,0,0,1,7.66-2.74C683.73,874.42,689.67,880.47,689.67,887.67Zm-6.25,0a6.35,6.35,0,1,0-6.35,6.67A6.53,6.53,0,0,0,683.42,887.67Z"/><path d="M719.64,875.38v24.68h-7v-2a14.17,14.17,0,0,1-2.83,1.78,12.53,12.53,0,0,1-9.81,0,13.15,13.15,0,0,1-4-2.84,13.45,13.45,0,0,1-2.69-4.22,14.21,14.21,0,0,1,0-10.27,13.74,13.74,0,0,1,2.69-4.18,13,13,0,0,1,4-2.83,11.88,11.88,0,0,1,9.81,0,13.68,13.68,0,0,1,2.83,1.77v-1.92Zm-8.44,12.29a6.33,6.33,0,1,0-6.29,6.67A6.47,6.47,0,0,0,711.2,887.67Z"/><path d="M743.28,875v6.29a7,7,0,0,0-1.46-.14c-3.38,0-6.3,2.73-6.3,7.53v11.43h-7V875.38h7v2.88a5.61,5.61,0,0,1,5.57-3.6A8.16,8.16,0,0,1,743.28,875Z"/><path d="M757.65,896.89a4.08,4.08,0,0,1-1.37,3.07,4.69,4.69,0,0,1-6.48,0,4,4,0,0,1-1.41-3.07,4.14,4.14,0,0,1,1.41-3.17,5,5,0,0,1,6.48,0A4.28,4.28,0,0,1,757.65,896.89Zm-1.1-31.54V889.5h-7V865.35Z"/><path d="M389.71,637.41h7.71c0,.05.32,4.27,5.57,4.27,2.82,0,5.38-1.78,5.38-3.7,0-4-6.89-4.27-8.85-4.7-3.47-.72-9.35-2.35-9.35-8.26,0-5.52,5.61-10,12.45-10,8.35,0,12.46,4.46,12.46,8.64h-7.35c0-.77-1.23-2.4-5.11-2.4-2.6,0-4.74,1.68-4.74,3.79,0,2.55,4.6,2.55,6.25,2.84,4.15.81,11.95,1.87,11.95,10.12,0,5.38-6,9.89-13.09,9.89C393.91,647.87,389.71,641.63,389.71,637.41Z"/><path d="M446.79,634.82v12.24h-7.08V634.82c0-3.94-1.27-6-5.47-6-3,0-5.29,2.6-5.34,5.86v12.39h-7.16V622.33h7.07v2a9,9,0,0,1,6.3-2.78C444.73,621.52,446.79,629,446.79,634.82Z"/><path d="M477.44,622.38v24.68h-7v-2a14.17,14.17,0,0,1-2.83,1.78,12.53,12.53,0,0,1-9.81,0,13.15,13.15,0,0,1-4-2.84,13.45,13.45,0,0,1-2.69-4.22,14.21,14.21,0,0,1,0-10.27,13.74,13.74,0,0,1,2.69-4.18,13,13,0,0,1,4-2.83,11.88,11.88,0,0,1,9.81,0,13.68,13.68,0,0,1,2.83,1.77v-1.92ZM469,634.67a6.32,6.32,0,1,0-6.29,6.67A6.47,6.47,0,0,0,469,634.67Z"/><path d="M488,619.5a4.24,4.24,0,0,1-4.15-4.32,4.14,4.14,0,1,1,8.26,0A4.2,4.2,0,0,1,488,619.5Zm-3.56,2.93h7.12v24.63h-7.12Z"/><path d="M496,613.12h7.12v33.94H496Z"/><path d="M534.2,622.57v5.57h12v6.68h-12v5.56h15.2v6.68H527.08V615.85H549.4v6.72Z"/><path d="M579.87,622.38v24.68h-7v-2a14.17,14.17,0,0,1-2.83,1.78,12.53,12.53,0,0,1-9.81,0,13.15,13.15,0,0,1-4-2.84,13.45,13.45,0,0,1-2.69-4.22,14.21,14.21,0,0,1,0-10.27,13.74,13.74,0,0,1,2.69-4.18,13,13,0,0,1,4-2.83,11.88,11.88,0,0,1,9.81,0,13.68,13.68,0,0,1,2.83,1.77v-1.92Zm-8.44,12.29a6.33,6.33,0,1,0-6.29,6.67A6.47,6.47,0,0,0,571.43,634.67Z"/><path d="M596.21,628v8c0,4.85,1.87,4.8,4.42,4.85v6.67c-8.8,1.63-11.77-3.12-11.77-9.07V628h-3.47v-5.67h3.47v-9.21h7.35v9.21h6.38V628Z"/><path d="M611,619.5a4.24,4.24,0,0,1-4.16-4.32,4.14,4.14,0,1,1,8.26,0A4.2,4.2,0,0,1,611,619.5Zm-3.56,2.93h7.11v24.63h-7.11Z"/><path d="M643.75,634.82v12.24h-7.07V634.82c0-3.94-1.28-6-5.48-6-3,0-5.29,2.6-5.34,5.86v12.39H618.7V622.33h7.07v2a9,9,0,0,1,6.3-2.78C641.7,621.52,643.75,629,643.75,634.82Z"/><path d="M672.4,622.33v24.15c0,6.58-4.42,15-14.28,15a14.93,14.93,0,0,1-8.85-3.22l4.74-5.57a7.07,7.07,0,0,0,4.11,1.35,7.37,7.37,0,0,0,7.16-7,12.33,12.33,0,0,1-5.74,1.44c-7.08,0-12.78-6-12.78-13.44s5.7-13.45,12.78-13.45a8.78,8.78,0,0,1,5.79,2.12v-1.4Zm-7.07,12.58c0-3.5-2.74-6.81-6.39-6.81a6.68,6.68,0,0,0,0,13.34A6.62,6.62,0,0,0,665.33,634.91Z"/><path d="M722.09,634.82a14,14,0,0,1-1,5.13,13.16,13.16,0,0,1-2.69,4.18,11.66,11.66,0,0,1-4,2.83,11.47,11.47,0,0,1-4.88,1.06,12.22,12.22,0,0,1-4.88-1,13.16,13.16,0,0,1-4-2.83A13.74,13.74,0,0,1,698,640a14,14,0,0,1-1-5.14,13.21,13.21,0,0,1,1-5.13,13.39,13.39,0,0,1,2.69-4.23,12.49,12.49,0,0,1,4-2.83,12.31,12.31,0,0,1,4.88-1.06,11.55,11.55,0,0,1,4.89,1.06,12.27,12.27,0,0,1,4,2.78,14.1,14.1,0,0,1,2.69,4.23A15.16,15.16,0,0,1,722.09,634.82Zm-6.25,0a6.33,6.33,0,1,0-6.3,6.67A6.53,6.53,0,0,0,715.84,634.82Z"/><path d="M726.51,613.12h7.12v33.94h-7.12Z"/><path d="M764.84,613.12v33.94h-7.12v-1.88a12.6,12.6,0,0,1-7.71,2.74c-6.75,0-12.64-6-12.64-13.3,0-6.86,5.57-13.25,12.64-13.25a12.64,12.64,0,0,1,7.71,2.74v-11Zm-8.49,21.5a6.35,6.35,0,1,0-6.34,6.72A6.53,6.53,0,0,0,756.35,634.62Z"/><path d="M570.72,706.82v12.24h-7.07V706.82c0-3.94-1.32-6-5.47-6a5.56,5.56,0,0,0-5.34,5.86v12.39h-7.07V706.82c0-3.94-1.33-6-5.48-6-3,0-5.33,2.6-5.33,5.86-.05,3.07,0,12.39,0,12.39h-7.21V694.33h7.11v2a9,9,0,0,1,6.3-2.78c5.2,0,8.17,2.16,9.81,5.09a11.56,11.56,0,0,1,2.42-2.93c2.28-2,5.2-2.45,8.3-2C569.08,695,570.72,701.58,570.72,706.82Z"/><path d="M598.65,714.3c-2.6,3.17-5.75,5.57-10.27,5.57a12.72,12.72,0,0,1-12.45-11.76c-.78-7.53,5-14.64,12.5-14.64,7.8,0,12.59,8.07,11.36,15.79H582.31a6.47,6.47,0,0,0,6.07,4.32,6.81,6.81,0,0,0,5.16-2.59Zm-16.34-9.79H594c0-2.59-2.83-4.75-5.52-4.75C585.1,699.76,582.31,702.06,582.31,704.51Z"/><path d="M628.9,706.82v12.24h-7.07V706.82c0-3.94-1.28-6-5.48-6-3,0-5.29,2.6-5.34,5.86v12.39h-7.16V694.33h7.07v2a9,9,0,0,1,6.3-2.78C626.84,693.52,628.9,701,628.9,706.82Z"/></g></svg>