<svg xmlns="http://www.w3.org/2000/svg" xmlns:xlink="http://www.w3.org/1999/xlink" width="1920" height="1080" viewBox="0 0 1920 1080"><defs><style>.cls-1{opacity:0.7;}.cls-2{fill:url(#linear-gradient);}.cls-3{fill:#fde58f;}.cls-4{fill:url(#linear-gradient-2);}.cls-5{opacity:0.3;fill:url(#linear-gradient-3);}.cls-6{opacity:0.08;fill:url(#linear-gradient-4);}.cls-7{fill:#e09686;}.cls-8{fill:#c98273;}.cls-9{fill:#bf6e5d;}.cls-10{fill:#aa6253;}.cls-11{opacity:0.5;}.cls-12{opacity:0.07;fill:url(#linear-gradient-5);}.cls-13{fill:none;stroke-width:19px;opacity:0.6;}.cls-13,.cls-19{stroke:#000;stroke-miterlimit:10;}.cls-14{fill:#333;}.cls-15{fill:url(#linear-gradient-6);}.cls-16{fill:url(#linear-gradient-7);}.cls-17{fill:url(#linear-gradient-8);}.cls-18{fill:url(#linear-gradient-9);}.cls-19{fill:#7d932a;stroke-width:12px;opacity:0.54;}.cls-20{fill:red;}</style><linearGradient id="linear-gradient" x1="960.21" y1="781.19" x2="960.21" y2="1.05" gradientUnits="userSpaceOnUse"><stop offset="0" stop-color="#f0c57b"/><stop offset="0.17" stop-color="#f0be7a"/><stop offset="0.42" stop-color="#f1ab76"/><stop offset="0.72" stop-color="#f18c6f"/><stop offset="1" stop-color="#f26868"/></linearGradient><linearGradient id="linear-gradient-2" x1="959.41" y1="853.18" x2="959.41" y2="1109.25" gradientUnits="userSpaceOnUse"><stop offset="0" stop-color="#f0c57b"/><stop offset="0.18" stop-color="#f0bb79"/><stop offset="0.5" stop-color="#f19f73"/><stop offset="0.91" stop-color="#f2726a"/><stop offset="1" stop-color="#f26868"/></linearGradient><linearGradient id="linear-gradient-3" x1="724.17" y1="405.02" x2="724.17" y2="568.79" gradientUnits="userSpaceOnUse"><stop offset="0" stop-color="#fff"/><stop offset="0.09" stop-color="#fff" stop-opacity="0.97"/><stop offset="0.22" stop-color="#fff" stop-opacity="0.89"/><stop offset="0.38" stop-color="#fff" stop-opacity="0.75"/><stop offset="0.56" stop-color="#fff" stop-opacity="0.57"/><stop offset="0.76" stop-color="#fff" stop-opacity="0.33"/><stop offset="0.97" stop-color="#fff" stop-opacity="0.04"/><stop offset="1" stop-color="#fff" stop-opacity="0"/></linearGradient><linearGradient id="linear-gradient-4" x1="9364.1" y1="211.78" x2="9364.1" y2="382.54" gradientTransform="matrix(-1, 0, 0, 1, 10328, 0)" gradientUnits="userSpaceOnUse"><stop offset="0" stop-color="#fff"/><stop offset="0.18" stop-color="#fff" stop-opacity="0.99"/><stop offset="0.32" stop-color="#fff" stop-opacity="0.95"/><stop offset="0.43" stop-color="#fff" stop-opacity="0.89"/><stop offset="0.54" stop-color="#fff" stop-opacity="0.8"/><stop offset="0.64" stop-color="#fff" stop-opacity="0.69"/><stop offset="0.74" stop-color="#fff" stop-opacity="0.55"/><stop offset="0.83" stop-color="#fff" stop-opacity="0.38"/><stop offset="0.92" stop-color="#fff" stop-opacity="0.2"/><stop offset="1" stop-color="#fff" stop-opacity="0"/></linearGradient><linearGradient id="linear-gradient-5" x1="704.19" y1="94.65" x2="704.19" y2="385.04" gradientTransform="translate(-145.82)" xlink:href="#linear-gradient-4"/><linearGradient id="linear-gradient-6" x1="365.42" y1="668.22" x2="810.03" y2="668.22" gradientUnits="userSpaceOnUse"><stop offset="0" stop-color="#f2726a"/><stop offset="0.03" stop-color="#f2856e"/><stop offset="0.08" stop-color="#f19d73"/><stop offset="0.13" stop-color="#f1af76"/><stop offset="0.2" stop-color="#f0bb79"/><stop offset="0.28" stop-color="#f0c37b"/><stop offset="0.47" stop-color="#f0c57b"/><stop offset="0.7" stop-color="#f0c37b"/><stop offset="0.78" stop-color="#f0bc79"/><stop offset="0.84" stop-color="#f0b177"/><stop offset="0.89" stop-color="#f1a073"/><stop offset="0.93" stop-color="#f18a6f"/><stop offset="0.96" stop-color="#f26f69"/><stop offset="0.96" stop-color="#f26d69"/><stop offset="1" stop-color="#f26868"/></linearGradient><linearGradient id="linear-gradient-7" x1="365.42" y1="894.22" x2="810.03" y2="894.22" xlink:href="#linear-gradient-6"/><linearGradient id="linear-gradient-8" x1="1135.42" y1="894.22" x2="1580.03" y2="894.22" xlink:href="#linear-gradient-6"/><linearGradient id="linear-gradient-9" x1="1127.42" y1="668.22" x2="1572.03" y2="668.22" xlink:href="#linear-gradient-6"/></defs><title>Artboard 1 copy 14</title><g id="_2_hearts" data-name="2 hearts"><g id="allle_elemnter" data-name="allle elemnter" class="cls-1"><rect class="cls-2" x="-0.2" width="1920.81" height="785.32"/><rect class="cls-3" x="-1" y="785.54" width="1920.81" height="296.27"/><rect class="cls-4" x="-1" y="785.54" width="1920.81" height="296.27"/><path class="cls-5" d="M-3.2,363.51s64-32.65,160.07-11.81,90.9,46.78,115.08,58.16,40.94,32.21,115.42,14.1,109.71-23.64,155.7,7.12-4.86,55.11,61.38,74.05,91-10.83,148.23,0,104.22,56.81,145.57,52.76,142.42-14.42,161-11.58,393.11,26.15,393.11,26.15S939,569.61,873.92,595.31,787.36,647.62,733.82,621s-106.35-62.39-221.6-48.56-82.19,21-170.75,22.85-171.28-53.44-218.76-61S-4,546.31-4,546.31Z"/><path class="cls-6" d="M1916.33,188c-33.38-61.36-244.94-19.41-302,8.16-41.86,20.2-87.11,50-139.72,40.69-18.46-3.26-33.09-11-49.06-17.19-60.89-23.46-148.57-22-206.91,3.43-36.47,15.91-66.69,41.1-112.77,42.33-25.54.68-49.84-6.61-75.39-7.17-60.59-1.34-101.65,32.88-152.59,51.41-56.6,20.6-106.64,14.05-167.69,8.54-54.17-4.9-111.27-.54-166,2.63-76.64,4.42-158.85,20.75-235.4,20.79-14.41,0-304.93,27.06-304.93,27.06S231.9,390.27,352,383.51s60.68-7.28,170,0,232.21,25.71,280.81,23-25.27.54,150.93.27,188.54,14.79,362.49,13.94,191.11-27.75,297.74-37.22,305.9,3.65,305.9,3.65V278c0-20.33,11.42-62.58-3.45-90Z"/><path class="cls-7" d="M1134.32,785.54s-164.63-52.83-326.78-69.19c-80.95-8.16-110.64,28.94-186.55,0s-58-48.3-111.63-48.68-80.37-20.5-169.68-20.5-62.51,36.48-223.26,20.5c-39-3.88-82.61,0-82.61,0V785.54Z"/><path class="cls-7" d="M1401.67,654s-5.74,6.47-34.45,9.7-68.9-18-74.64-16-47.92,8.12-47.92,8.12-13.32-5-22.89-8.25-28.7,17.76-28.7,17.76-38.28-5.24-57.42-1.26-32.53,2.9-47.84,13.68-74.64,3.23-91.87-5.39S950,655.73,934.7,665.1s-32.53,18-36.36,23.39-11.07,22.65-39,29.12-26.3,24.8-26.3,24.8S881.79,768,887,768s514.67,17.54,514.67,17.54Z"/><path class="cls-8" d="M-1,578.11s74.43,4.51,93.64,12.62c31.68,13.39,78,14.74,92.36,28.27s66.11,44.08,66.11,44.08L390.37,785.54H-1Z"/><path class="cls-8" d="M220.69,663.08s124.86,2.51,132.86,5.22,32,20.74,51.22,14.43,35.8-9.45,46.42-9.16c21.29.59,34.42,21.78,58.43,24.94,22,2.9,81.14,82.52,214.64,87H220.69Z"/><path class="cls-8" d="M580.05,785.54s118.45-44.64,146.1-37.88c34.34,8.4,54.73.8,65.49-6.33,6.05-4,15-6.29,24.31-6.29H924.37l72-23.9s29.05-14.89,57.27-14.89,153.66,14.89,153.66,14.89l109.85-14.89,38.41,89.29Z"/><path class="cls-9" d="M-1,636.73s2.4-18,68-18c19.54,0,20.81,9,40,13.53s20.8,3.61,30.41,4.51,32,3.61,32,11.72,22.41,18.94,33.62,20.75S221,702,221,702l267,79L-1,785.54Z"/><path class="cls-9" d="M1916,477c17.63-30.67-41.09-368.56-183-139-.09.14-44.83,112-45,112-16.52-3.65-40.61,68.68-53,79s-406.74,13.36-415,25-132.34,12.89-153,35,40.5,39.59,30,68c-5.12,13.86,128,25,128,25s107.63-12.84,84.16-1.2-1.77,34.91-45.67,37.24-144.4,0-144.4,0-18.4-2.33-91.14,9.31S876.42,762,876.42,762L918,786l1001.81-.46V503.9"/><path class="cls-10" d="M1919.81,540.68s-12-18.94-45.62-8.12,21.61,25.71-33.61,21.65-62.43-28-88.84-24.81-40.82,30.23-76.83,25.49-64.83,6.08-79.23,16.9-14.41,29.77-62.43,50.06-38.42,51-48,62.7-14.41,10.35-38.42,26.59-50.42,37.87-57.62,41.93-145.45,13.53-143.56,17.59-139.12,14.88-139.12,14.88h813.3Z"/><g class="cls-11"><path class="cls-7" d="M1134.32,785.5s-164.63,34.23-326.78,44.82c-80.95,5.29-110.64-18.74-186.55,0s-58,31.29-111.63,31.54S429,875.14,339.68,875.14s-62.51-23.63-223.26-13.28c-39,2.51-82.61,0-82.61,0V785.5Z"/><path class="cls-7" d="M1401.67,870.73s-5.74-4.2-34.45-6.29-68.9,11.69-74.64,10.38-47.92-5.25-47.92-5.25-13.32,3.24-22.89,5.34-28.7-11.5-28.7-11.5-38.28,3.39-57.42.81-32.53-1.88-47.84-8.86-74.64-2.1-91.87,3.49S950,869.6,934.7,863.53s-32.53-11.67-36.36-15.16-11.07-14.67-39-18.86S833,813.44,833,813.44s-65.65-27.94-60.45-27.94h629.11Z"/><path class="cls-8" d="M-1,919.88S73.43,917,92.64,911.7c31.68-8.67,86.44,8.77,100.84,0s57.63-46.87,57.63-46.87L390.37,785.5H-1Z"/><path class="cls-8" d="M220.69,864.83s124.86-1.62,132.86-3.37,32-13.44,51.22-9.35,35.8,6.12,46.42,5.93c21.29-.38,34.42-14.11,58.43-16.16,22-1.87,81.14-53.46,214.64-56.38H220.69Z"/><path class="cls-8" d="M673,786s25.5,28.42,53.15,24c34.34-5.44,54.73-.52,65.49,4.11,6.05,2.59,15,4.07,24.31,4.07H924.37l72,15.48s29.05,9.64,57.27,9.64,153.66-9.64,153.66-9.64l109.85,9.64,38.41-57.84Z"/><path class="cls-9" d="M-1,881.9s2.4,11.69,68,11.69c19.54,0,20.81-5.84,40-8.76s20.8-2.34,30.41-2.93,32-2.33,32-7.59,22.41-12.27,33.62-13.44,17.6-6.91,17.6-6.91L580.05,785.5H-1Z"/><path class="cls-9" d="M1919.81,968h-43.37s2.48,24.53-26.44,29-24.61,33.48-37,38c-4.88,1.78-45.79,2-53,4-21.93,6-72.36,23.07-65-31,0-.17-27.83,9-28,9-16.52,2.36-39.61-6.32-52-13s-93.84-39.06-102.1-46.6-16.52-21.11-37.18-35.44-59.73-12.5-70.23-30.91c-5.12-9-41.31-37.69-41.31-37.69s-31.55,7.54-55,0-1.77-22.62-45.67-24.13-144.4,0-144.4,0-18.4,1.51-91.14-6-151.53-22.44-151.53-22.44L794.1,785.5H1919.81Z"/><path class="cls-10" d="M1919.81,944.13s-12,12.27-45.62,5.26,21.61-16.65-33.61-14-62.43,18.13-88.84,16.08-40.82-19.59-76.83-16.52S1610.08,931,1595.68,924s-14.41-19.28-62.43-32.42-38.42-33-48-40.62-14.41-6.71-38.42-17.23-50.42-24.53-57.62-27.16-145.45-8.77-143.56-11.4-139.12-9.64-139.12-9.64h813.3Z"/></g><path class="cls-12" d="M1116.06,236.52c12.81,71.1-50.43,138.61-103.88,167.83C973.37,425.56,937,429,922,429c-176.2-.27-254,21.85-428,21s-273.38-30.54-380-40S-1,217.16-1,217.16V108c0-20.33,8.51-59.23,3.45-90C-1-3,2,18,2,18,19.14-9.11,239-4,304.53,26.12c42.24,19.41,87.12,50,139.72,40.69,18.47-3.26,33.09-11,49.06-17.19,60.9-23.46,148.57-22,206.91,3.43C736.7,69,766.92,94.15,813,95.38c35,.94,37.84-6.92,75.39-7.17C969.83,87.67,1030,131.69,1041,140,1071.15,162.79,1107.76,190.47,1116.06,236.52Z"/></g><g id="frames"><path class="cls-13" d="M1572.5,906.5c-176.45,24.68-538-13.14-646.63,4.5C853,922.83,232,882.52,179,905,98.88,938.94-.25,893.21-1,861c-1-42.7-109.49-278-28.5-228.5,17.46,10.67,264-2.43,430.75,57.5,243.91,87.67,352.27,3.64,599.31-41,110.86-20,102,57.77,191.67,66,122.23,11.21,174.76-41,409.44-95,152.1-35,194.84-24.16,235.77-2,61.58,33.35,254.9,109.33,78.29,186-82.45,35.79-133.12,122.4-184.48,90-51.86-32.73-136.21,12.88-158.75,12.5"/><polygon class="cls-14" points="390.15 585 782.62 585 782.62 591.47 795.08 591.47 807.54 596.86 807.54 603.33 820 603.33 820 732.67 809.62 732.67 807.54 738.07 788.85 744.53 784.7 751 390.15 751 390.15 743.46 375.61 741.3 369.38 733.75 354.85 732.67 354.85 603.33 365.23 603.33 373.53 594.7 390.15 591.47 390.15 585"/><polygon class="cls-15" points="399.16 588.88 774.3 588.88 774.3 595.06 786.21 595.06 798.12 600.21 798.12 606.4 810.03 606.4 810.03 730.03 800.11 730.03 798.12 735.19 780.26 741.37 776.29 747.55 399.16 747.55 399.16 740.34 385.27 738.28 379.31 731.07 365.42 730.03 365.42 606.4 375.34 606.4 383.28 598.15 399.16 595.06 399.16 588.88"/><polygon class="cls-14" points="390.15 811 782.62 811 782.62 817.47 795.08 817.47 807.54 822.86 807.54 829.33 820 829.33 820 958.67 809.62 958.67 807.54 964.07 788.85 970.53 784.7 977 390.15 977 390.15 969.46 375.61 967.3 369.38 959.75 354.85 958.67 354.85 829.33 365.23 829.33 373.53 820.7 390.15 817.47 390.15 811"/><polygon class="cls-16" points="399.16 814.88 774.3 814.88 774.3 821.06 786.21 821.06 798.12 826.21 798.12 832.4 810.03 832.4 810.03 956.03 800.11 956.03 798.12 961.19 780.26 967.37 776.29 973.55 399.16 973.55 399.16 966.34 385.27 964.28 379.31 957.07 365.42 956.03 365.42 832.4 375.34 832.4 383.28 824.15 399.16 821.06 399.16 814.88"/><polygon class="cls-14" points="1160.15 811 1552.62 811 1552.62 817.47 1565.08 817.47 1577.54 822.86 1577.54 829.33 1590 829.33 1590 958.67 1579.62 958.67 1577.54 964.07 1558.85 970.53 1554.7 977 1160.15 977 1160.15 969.46 1145.61 967.3 1139.38 959.75 1124.85 958.67 1124.85 829.33 1135.23 829.33 1143.53 820.7 1160.15 817.47 1160.15 811"/><polygon class="cls-17" points="1169.16 814.88 1544.3 814.88 1544.3 821.06 1556.21 821.06 1568.12 826.21 1568.12 832.4 1580.03 832.4 1580.03 956.03 1570.11 956.03 1568.12 961.19 1550.26 967.37 1546.29 973.55 1169.16 973.55 1169.16 966.34 1155.27 964.28 1149.31 957.07 1135.42 956.03 1135.42 832.4 1145.34 832.4 1153.28 824.15 1169.16 821.06 1169.16 814.88"/><polygon class="cls-14" points="1152.15 585 1544.62 585 1544.62 591.47 1557.08 591.47 1569.54 596.86 1569.54 603.33 1582 603.33 1582 732.67 1571.62 732.67 1569.54 738.07 1550.85 744.53 1546.7 751 1152.15 751 1152.15 743.46 1137.61 741.3 1131.38 733.75 1116.85 732.67 1116.85 603.33 1127.23 603.33 1135.53 594.7 1152.15 591.47 1152.15 585"/><polygon class="cls-18" points="1161.16 588.88 1536.3 588.88 1536.3 595.06 1548.21 595.06 1560.12 600.21 1560.12 606.4 1572.03 606.4 1572.03 730.03 1562.11 730.03 1560.12 735.19 1542.26 741.37 1538.29 747.55 1161.16 747.55 1161.16 740.34 1147.27 738.28 1141.31 731.07 1127.42 730.03 1127.42 606.4 1137.34 606.4 1145.28 598.15 1161.16 595.06 1161.16 588.88"/></g><path class="cls-19" d="M180,33c59.05,6.46,135.66,45.56,135,95-.57,42.8-58.85,77.81-105,87C117.29,233.47,9.08,160.59,14,108,18.22,62.86,106.51,25,180,33Z"/><path d="M57.69,1007.3H46.42v24.48H39.31V1007.3H28v-6.72H57.69Z"/><path d="M65.13,1004.23A4.24,4.24,0,0,1,61,999.91a4.14,4.14,0,1,1,8.26,0A4.2,4.2,0,0,1,65.13,1004.23Zm-3.56,2.93h7.12v24.62H61.57Z"/><path d="M116.64,1019.54v12.24h-7.07v-12.24c0-3.94-1.33-6-5.48-6a5.56,5.56,0,0,0-5.34,5.86v12.38H91.68v-12.24c0-3.94-1.32-6-5.47-6a5.56,5.56,0,0,0-5.34,5.86c-.05,3.07,0,12.38,0,12.38H73.66v-24.72h7.12v2a9,9,0,0,1,6.29-2.79c5.21,0,8.17,2.16,9.81,5.09a12,12,0,0,1,2.42-2.93,9.94,9.94,0,0,1,8.3-2C115,1007.68,116.64,1014.31,116.64,1019.54Z"/><path d="M144.56,1027c-2.6,3.17-5.75,5.57-10.26,5.57a12.73,12.73,0,0,1-12.46-11.76c-.77-7.54,5-14.65,12.5-14.65,7.8,0,12.6,8.07,11.36,15.8H128.23a6.48,6.48,0,0,0,6.07,4.32,6.81,6.81,0,0,0,5.15-2.59Zm-16.33-9.79h11.63c0-2.6-2.83-4.76-5.52-4.76C131,1012.48,128.23,1014.79,128.23,1017.24Z"/><path d="M169.25,997.84h7.11v33.94h-7.11Z"/><path d="M203.78,1027c-2.6,3.17-5.74,5.57-10.26,5.57a12.74,12.74,0,0,1-12.46-11.76c-.77-7.54,5-14.65,12.5-14.65,7.81,0,12.6,8.07,11.36,15.8H187.45a6.48,6.48,0,0,0,6.07,4.32,6.81,6.81,0,0,0,5.15-2.59Zm-16.33-9.79h11.63c0-2.6-2.82-4.76-5.52-4.76C190.23,1012.48,187.45,1014.79,187.45,1017.24Z"/><path d="M226.19,997.89v4.7s-6.12-1.2-6.12,2.5V1007h5.48v5.86h-5.48v18.91H213v-18.91H208.8V1007H213v-1.92C213,997.84,218.66,995.3,226.19,997.89Z"/><path d="M243,1012.72v8c0,4.85,1.87,4.8,4.43,4.85v6.67c-8.81,1.64-11.77-3.12-11.77-9.07v-10.42h-3.47v-5.66h3.47v-9.22H243v9.22h6.39v5.66Z"/><path d="M256.85,1012.29a5.12,5.12,0,1,1,4.88-5.13A5,5,0,0,1,256.85,1012.29Zm0,16.27a5.12,5.12,0,1,1,4.88-5.13A5,5,0,0,1,256.85,1028.56Z"/><path class="cls-20" d="M1872,1003.65a22.76,22.76,0,0,0-43.5-9.38,22.76,22.76,0,0,0-43.5,9.38,22.56,22.56,0,0,0,1.29,7.56,22.84,22.84,0,0,0,4.22,7.28,23.25,23.25,0,0,0,2.54,2.52l34.73,34.5a1.1,1.1,0,0,0,1.55,0l36-35.79h0a22.7,22.7,0,0,0,6.66-16.07Z"/><path class="cls-20" d="M1756,1003.65a22.76,22.76,0,0,0-43.5-9.38,22.76,22.76,0,0,0-43.5,9.38,22.56,22.56,0,0,0,1.29,7.56,22.84,22.84,0,0,0,4.22,7.28,23.25,23.25,0,0,0,2.54,2.52l34.73,34.5a1.1,1.1,0,0,0,1.55,0l36-35.79h0a22.7,22.7,0,0,0,6.66-16.07Z"/></g></svg>