<svg xmlns="http://www.w3.org/2000/svg" xmlns:xlink="http://www.w3.org/1999/xlink" width="1920" height="1080" viewBox="0 0 1920 1080"><defs><style>.cls-1{opacity:0.7;}.cls-2{fill:url(#linear-gradient);}.cls-3{fill:#fde58f;}.cls-4{fill:url(#linear-gradient-2);}.cls-5{opacity:0.3;fill:url(#linear-gradient-3);}.cls-6{opacity:0.08;fill:url(#linear-gradient-4);}.cls-7{fill:#e09686;}.cls-8{fill:#c98273;}.cls-9{fill:#bf6e5d;}.cls-10{fill:#aa6253;}.cls-11{opacity:0.5;}.cls-12{opacity:0.07;fill:url(#linear-gradient-5);}.cls-13{fill:#008a17;}.cls-13,.cls-25,.cls-30,.cls-35,.cls-36,.cls-38,.cls-39,.cls-40,.cls-42,.cls-43,.cls-44,.cls-45{stroke:#000;}.cls-13,.cls-18,.cls-19,.cls-30,.cls-31,.cls-35,.cls-36,.cls-42,.cls-43{stroke-miterlimit:10;}.cls-13,.cls-30,.cls-35{stroke-width:5px;}.cls-14,.cls-15{fill:#b9dc32;}.cls-14{stroke:#8cc63f;stroke-width:46px;}.cls-14,.cls-39{stroke-linecap:square;}.cls-14,.cls-25,.cls-33,.cls-34,.cls-38,.cls-39,.cls-40,.cls-44,.cls-45{stroke-linejoin:round;}.cls-16,.cls-18{fill:#fff;}.cls-17{fill:#009245;}.cls-18,.cls-19{stroke:#006837;}.cls-20{fill:#2e3192;}.cls-21,.cls-43{fill:red;}.cls-22{fill:#edc53b;}.cls-23{fill:#fff35f;}.cls-24{fill:#8a7c00;}.cls-25,.cls-31,.cls-33,.cls-34,.cls-40{stroke-linecap:round;}.cls-25,.cls-31,.cls-33{stroke-width:4px;}.cls-26{fill:#5f4300;}.cls-27{fill:#001900;}.cls-28{fill:#008a00;}.cls-29{fill:#009400;}.cls-30{fill:#f15a24;}.cls-31,.cls-33,.cls-45{fill:gray;}.cls-31,.cls-33{stroke:gray;}.cls-32{fill:url(#linear-gradient-6);}.cls-34{fill:#4d4d4d;stroke:#333;stroke-width:10px;}.cls-34,.cls-41{opacity:0.99;}.cls-36{fill:#ccc;stroke-width:18px;}.cls-37{fill:#c69c6d;}.cls-38{stroke-width:6px;}.cls-39,.cls-40{stroke-width:12px;}.cls-40{fill:none;}.cls-41{fill:#606060;}.cls-42,.cls-43{stroke-width:8px;}.cls-44{stroke-width:2px;}.cls-45{stroke-width:7px;}</style><linearGradient id="linear-gradient" x1="961.21" y1="783.19" x2="961.21" y2="3.05" gradientUnits="userSpaceOnUse"><stop offset="0" stop-color="#f0c57b"/><stop offset="0.17" stop-color="#f0be7a"/><stop offset="0.42" stop-color="#f1ab76"/><stop offset="0.72" stop-color="#f18c6f"/><stop offset="1" stop-color="#f26868"/></linearGradient><linearGradient id="linear-gradient-2" x1="960.41" y1="855.18" x2="960.41" y2="1111.25" gradientUnits="userSpaceOnUse"><stop offset="0" stop-color="#f0c57b"/><stop offset="0.18" stop-color="#f0bb79"/><stop offset="0.5" stop-color="#f19f73"/><stop offset="0.91" stop-color="#f2726a"/><stop offset="1" stop-color="#f26868"/></linearGradient><linearGradient id="linear-gradient-3" x1="725.17" y1="407.02" x2="725.17" y2="570.79" gradientUnits="userSpaceOnUse"><stop offset="0" stop-color="#fff"/><stop offset="0.09" stop-color="#fff" stop-opacity="0.97"/><stop offset="0.22" stop-color="#fff" stop-opacity="0.89"/><stop offset="0.38" stop-color="#fff" stop-opacity="0.75"/><stop offset="0.56" stop-color="#fff" stop-opacity="0.57"/><stop offset="0.76" stop-color="#fff" stop-opacity="0.33"/><stop offset="0.97" stop-color="#fff" stop-opacity="0.04"/><stop offset="1" stop-color="#fff" stop-opacity="0"/></linearGradient><linearGradient id="linear-gradient-4" x1="-3914.9" y1="213.78" x2="-3914.9" y2="384.54" gradientTransform="matrix(-1, 0, 0, 1, -2950, 0)" gradientUnits="userSpaceOnUse"><stop offset="0" stop-color="#fff"/><stop offset="0.18" stop-color="#fff" stop-opacity="0.99"/><stop offset="0.32" stop-color="#fff" stop-opacity="0.95"/><stop offset="0.43" stop-color="#fff" stop-opacity="0.89"/><stop offset="0.54" stop-color="#fff" stop-opacity="0.8"/><stop offset="0.64" stop-color="#fff" stop-opacity="0.69"/><stop offset="0.74" stop-color="#fff" stop-opacity="0.55"/><stop offset="0.83" stop-color="#fff" stop-opacity="0.38"/><stop offset="0.92" stop-color="#fff" stop-opacity="0.2"/><stop offset="1" stop-color="#fff" stop-opacity="0"/></linearGradient><linearGradient id="linear-gradient-5" x1="705.19" y1="96.65" x2="705.19" y2="387.04" gradientTransform="translate(-145.82)" xlink:href="#linear-gradient-4"/><linearGradient id="linear-gradient-6" x1="1790.1" y1="112.22" x2="1828.01" y2="112.22" xlink:href="#linear-gradient"/></defs><title>Artboard 1 copy 11</title><g id="Settings_Menu" data-name="Settings Menu"><g id="bothcheck"><g id="allle_elemnter" data-name="allle elemnter" class="cls-1"><rect class="cls-2" x="0.8" y="2" width="1920.81" height="785.32"/><rect class="cls-3" y="787.54" width="1920.81" height="296.27"/><rect class="cls-4" y="787.54" width="1920.81" height="296.27"/><path class="cls-5" d="M-2.2,365.51s64-32.65,160.07-11.81,90.9,46.78,115.08,58.16,40.94,32.21,115.42,14.1,109.71-23.64,155.7,7.12-4.86,55.11,61.38,74.05,91-10.83,148.23,0,104.22,56.81,145.57,52.76,142.42-14.42,161-11.58,393.11,26.15,393.11,26.15S940,571.61,874.92,597.31,788.36,649.62,734.82,623s-106.35-62.39-221.6-48.56-82.19,21-170.75,22.85-171.28-53.44-218.76-61S-3,548.31-3,548.31Z"/><path class="cls-6" d="M1917.33,190c-33.38-61.36-244.94-19.41-302,8.16-41.86,20.2-87.11,50-139.72,40.69-18.46-3.26-33.09-11-49.06-17.19-60.89-23.46-148.57-22-206.91,3.43-36.47,15.91-66.69,41.1-112.77,42.33-25.54.68-49.84-6.61-75.39-7.17-60.59-1.34-101.65,32.88-152.59,51.41-56.6,20.6-106.64,14.05-167.69,8.54-54.17-4.9-111.27-.54-166,2.63-76.64,4.42-158.85,20.75-235.4,20.79-14.41,0-304.93,27.06-304.93,27.06S232.9,392.27,353,385.51s60.68-7.28,170,0,232.21,25.71,280.81,23-25.27.54,150.93.27,188.54,14.79,362.49,13.94,191.11-27.75,297.74-37.22,305.9,3.65,305.9,3.65V280c0-20.33,11.42-62.58-3.45-90Z"/><path class="cls-7" d="M1135.32,787.54s-164.63-52.83-326.78-69.19c-80.95-8.16-110.64,28.94-186.55,0s-58-48.3-111.63-48.68-80.37-20.5-169.68-20.5-62.51,36.48-223.26,20.5c-39-3.88-82.61,0-82.61,0V787.54Z"/><path class="cls-7" d="M1402.67,656s-5.74,6.47-34.45,9.7-68.9-18-74.64-16-47.92,8.12-47.92,8.12-13.32-5-22.89-8.25-28.7,17.76-28.7,17.76-38.28-5.24-57.42-1.26-32.53,2.9-47.84,13.68-74.64,3.23-91.87-5.39S951,657.73,935.7,667.1s-32.53,18-36.36,23.39-11.07,22.65-39,29.12-26.3,24.8-26.3,24.8S882.79,770,888,770s514.67,17.54,514.67,17.54Z"/><path class="cls-8" d="M0,580.11s74.43,4.51,93.64,12.62c31.68,13.39,78,14.74,92.36,28.27s66.11,44.08,66.11,44.08L391.37,787.54H0Z"/><path class="cls-8" d="M221.69,665.08s124.86,2.51,132.86,5.22,32,20.74,51.22,14.43,35.8-9.45,46.42-9.16c21.29.59,34.42,21.78,58.43,24.94,22,2.9,81.14,82.52,214.64,87H221.69Z"/><path class="cls-8" d="M581.05,787.54s118.45-44.64,146.1-37.88c34.34,8.4,54.73.8,65.49-6.33,6.05-4,15-6.29,24.31-6.29H925.37l72-23.9s29.05-14.89,57.27-14.89,153.66,14.89,153.66,14.89l109.85-14.89,38.41,89.29Z"/><path class="cls-9" d="M0,638.73s2.4-18,68-18c19.54,0,20.81,9,40,13.53s20.8,3.61,30.41,4.51,32,3.61,32,11.72,22.41,18.94,33.62,20.75S222,704,222,704l267,79L0,787.54Z"/><path class="cls-9" d="M1917,479c17.63-30.67-41.09-368.56-183-139-.09.14-44.83,112-45,112-16.52-3.65-40.61,68.68-53,79s-406.74,13.36-415,25-132.34,12.89-153,35,40.5,39.59,30,68c-5.12,13.86,128,25,128,25s107.63-12.84,84.16-1.2-1.77,34.91-45.67,37.24-144.4,0-144.4,0-18.4-2.33-91.14,9.31S877.42,764,877.42,764L919,788l1001.81-.46V505.9"/><path class="cls-10" d="M1920.81,542.68s-12-18.94-45.62-8.12,21.61,25.71-33.61,21.65-62.43-28-88.84-24.81-40.82,30.23-76.83,25.49-64.83,6.08-79.23,16.9-14.41,29.77-62.43,50.06-38.42,51-48,62.7-14.41,10.35-38.42,26.59-50.42,37.87-57.62,41.93-145.45,13.53-143.56,17.59-139.12,14.88-139.12,14.88h813.3Z"/><g class="cls-11"><path class="cls-7" d="M1135.32,787.5s-164.63,34.23-326.78,44.82c-80.95,5.29-110.64-18.74-186.55,0s-58,31.29-111.63,31.54S430,877.14,340.68,877.14s-62.51-23.63-223.26-13.28c-39,2.51-82.61,0-82.61,0V787.5Z"/><path class="cls-7" d="M1402.67,872.73s-5.74-4.2-34.45-6.29-68.9,11.69-74.64,10.38-47.92-5.25-47.92-5.25-13.32,3.24-22.89,5.34-28.7-11.5-28.7-11.5-38.28,3.39-57.42.81-32.53-1.88-47.84-8.86-74.64-2.1-91.87,3.49S951,871.6,935.7,865.53s-32.53-11.67-36.36-15.16-11.07-14.67-39-18.86S834,815.44,834,815.44s-65.65-27.94-60.45-27.94h629.11Z"/><path class="cls-8" d="M0,921.88S74.43,919,93.64,913.7c31.68-8.67,86.44,8.77,100.84,0s57.63-46.87,57.63-46.87L391.37,787.5H0Z"/><path class="cls-8" d="M221.69,866.83s124.86-1.62,132.86-3.37,32-13.44,51.22-9.35,35.8,6.12,46.42,5.93c21.29-.38,34.42-14.11,58.43-16.16,22-1.87,81.14-53.46,214.64-56.38H221.69Z"/><path class="cls-8" d="M674,788s25.5,28.42,53.15,24c34.34-5.44,54.73-.52,65.49,4.11,6.05,2.59,15,4.07,24.31,4.07H925.37l72,15.48s29.05,9.64,57.27,9.64,153.66-9.64,153.66-9.64l109.85,9.64,38.41-57.84Z"/><path class="cls-9" d="M0,883.9s2.4,11.69,68,11.69c19.54,0,20.81-5.84,40-8.76s20.8-2.34,30.41-2.93,32-2.33,32-7.59,22.41-12.27,33.62-13.44,17.6-6.91,17.6-6.91L581.05,787.5H0Z"/><path class="cls-9" d="M1920.81,970h-43.37s2.48,24.53-26.44,29-24.61,33.48-37,38c-4.88,1.78-45.79,2-53,4-21.93,6-72.36,23.07-65-31,0-.17-27.83,9-28,9-16.52,2.36-39.61-6.32-52-13s-93.84-39.06-102.1-46.6-16.52-21.11-37.18-35.44-59.73-12.5-70.23-30.91c-5.12-9-41.31-37.69-41.31-37.69s-31.55,7.54-55,0-1.77-22.62-45.67-24.13-144.4,0-144.4,0-18.4,1.51-91.14-6-151.53-22.44-151.53-22.44L795.1,787.5H1920.81Z"/><path class="cls-10" d="M1920.81,946.13s-12,12.27-45.62,5.26,21.61-16.65-33.61-14-62.43,18.13-88.84,16.08-40.82-19.59-76.83-16.52S1611.08,933,1596.68,926s-14.41-19.28-62.43-32.42-38.42-33-48-40.62-14.41-6.71-38.42-17.23-50.42-24.53-57.62-27.16-145.45-8.77-143.56-11.4-139.12-9.64-139.12-9.64h813.3Z"/></g><path class="cls-12" d="M1117.06,238.52c12.81,71.1-50.43,138.61-103.88,167.83C974.37,427.56,938,431,923,431c-176.2-.27-254,21.85-428,21s-273.38-30.54-380-40S0,219.16,0,219.16V110C0,89.71,8.51,50.81,3.45,20,0-1,3,20,3,20,20.14-7.11,240-2,305.53,28.12c42.24,19.41,87.12,50,139.72,40.69,18.47-3.26,33.09-11,49.06-17.19,60.9-23.46,148.57-22,206.91,3.43C737.7,71,767.92,96.15,814,97.38c35,.94,37.84-6.92,75.39-7.17C970.83,89.67,1031,133.69,1042,142,1072.15,164.79,1108.76,192.47,1117.06,238.52Z"/></g><path class="cls-13" d="M359.4,199l-25.56,9.07,19.61,59-17.6,6.24-19.62-59-25.56,9.07-5.65-17L353.75,182Z"/><path class="cls-13" d="M457.7,233.79,440,239.2l-8.46-29.94-32.16,9.8L407.79,249l-17.63,5.38-21.81-77.11L386,171.89l8.47,29.93,32.16-9.8-8.47-29.93,17.75-5.41Z"/><path class="cls-13" d="M511.58,136.86l4.12,17.45-38.83,10,3.18,13.43,32.41-8.37,3.86,16.3-32.42,8.37,3.18,13.43,38.83-10L530,214.91l-56.66,14.63-18.46-78Z"/><path class="cls-13" d="M587.72,202.24l-18,3.82-15-78.85,18-3.82Z"/><path class="cls-13" d="M696.21,182.6,678,185.72l-6.08-40.54L660,188.8l-20.23,3.46-24.1-37.46,6.08,40.54-18.13,3.1L591.67,119l20.11-3.44,35,53.82,17.34-62.76,20.22-3.46Z"/><path class="cls-13" d="M770.28,124.05c1.55,15.78-6.4,32.2-25.76,34.5l-16.46,1.95,1.78,18.13-18.36,2.18-7.86-80,34.93-4.15C757.91,94.32,768.76,108.52,770.28,124.05Zm-46.54-7.57,2.57,26.25L740.78,141c7.34-.87,11.89-6,11-14.76S745.55,114,738.2,114.76Z"/><path class="cls-13" d="M849.28,117c.64,11.58-4.17,21.8-12.07,27l17,23-22.77,1.72-12.5-19.12-13.39,1,1.11,20L788.33,172l-4.46-80.36,36.72-2.78C836,87.71,848.3,99.48,849.28,117Zm-46.11-8.74,1.36,24.46,15.74-1.19c6.25-.47,11-6.4,10.59-13.14S825.16,106.57,819,107Z"/><path class="cls-13" d="M922.91,152.17l-36.66,1-4.92,12.7-19.45.55L893.7,85l20.45-.58L947.5,164l-19.56.55Zm-6.51-15.69-12.11-29.76-11.81,30.43Z"/><path class="cls-13" d="M1025.4,145.88c-7.24,12-20.18,20.65-36.26,20.38-23.8-.4-40.46-19.17-39.62-43a41.54,41.54,0,0,1,42.56-40.43c16.2.27,28.65,8.54,35,20.74l-15.87,9.34c-3.32-7.41-10.18-12.39-19.79-12.55-13.29-.22-22.93,9.94-23.4,23.21-.45,12.8,8.43,24.21,21.72,24.43a22.41,22.41,0,0,0,20.43-11.87Z"/><path class="cls-13" d="M1108.85,107.79,1082,106.12l-5,62.46-18.49-1.15,5-62.46-26.85-1.66,1.44-18,72.2,4.48Z"/><path class="cls-13" d="M1133.87,173.3l-18.22-1.71,8.92-80.25,18.22,1.71Z"/><path class="cls-13" d="M1225.18,164.47c-8.47,11.13-22.24,18.36-38.17,16.34-23.56-3-38.07-23.52-34.68-47.16,3.2-22.22,23-38.62,46.58-35.63,16,2,27.5,11.64,32.52,24.49l-16.74,7.57c-2.49-7.74-8.77-13.44-18.28-14.65-13.17-1.68-23.82,7.39-25.71,20.56-1.83,12.7,5.75,25,18.92,26.71a22.29,22.29,0,0,0,21.54-9.6Z"/><path class="cls-13" d="M1287.26,182.22l-36-6.27L1244,187.47l-19.11-3.32,47-73.86,20.09,3.49,17,85-19.21-3.34ZM1284,165.48l-6-31.69-17.49,27.6Z"/><path class="cls-13" d="M1342.14,187.68l38.83,8.55-4.14,17.6-56.66-12.47,18.49-78.75,17.83,3.93Z"/><path class="cls-13" d="M1481.9,227.72l3.19,7.69-15.45,8.77-4.18-9.46a37.17,37.17,0,0,1-17.21-.63c-21.86-6.14-32.68-29.7-26.37-51.17s28.14-35.38,50-29.24,32.92,29.28,26.62,50.75A43.27,43.27,0,0,1,1481.9,227.72Zm-28.55-11a19.47,19.47,0,0,0,4.56.66l-6.59-15.08,15.92-8.76,7.08,16.95a25.57,25.57,0,0,0,6.49-11c3.79-12.9-2.14-25.08-14-28.42s-23.53,3.91-27.32,16.81C1435.83,200.19,1441.56,213.42,1453.35,216.73Z"/><path class="cls-13" d="M1577.6,229.55c-8.67,25.35-28.92,35.72-49,29.09-20.39-6.74-29-26.64-20.3-52l12.77-37.3,17.32,5.72-12.77,37.3c-5.05,14.76-2.14,25.51,8.84,29.14,10.77,3.56,20.54-3,25.59-17.76l12.77-37.29,17.53,5.79Z"/><path class="cls-13" d="M1593,279.66l-17.12-6.26,28.53-75.83,17.13,6.26Z"/><path class="cls-13" d="M1698.7,252.83l-61.54,24.37L1682,295.3,1675.08,312l-69.78-28.17,6.69-16.19L1674.68,244,1632,226.81l6.92-16.75,66.38,26.8Z"/><polyline class="cls-14" points="217.3 720.38 161.25 642.01 139.91 673.15 208.67 765.7 217.3 729.8"/><polyline class="cls-14" points="772.22 732.21 828.27 653.84 849.6 684.98 780.85 777.53 772.22 741.63"/><path class="cls-15" d="M707.56,991.55c38.19-26.89,66.33-18.39,75.86-43,57.06-147.43,11.09-108.72-1-188.21-13-85.62-52.47-213.34-101.31-235.54-50.44-22.92-90.25,65-188.37,61.31C410.71,583,377.57,519.4,334.9,542c-35.18,18.64-17.22,64.34-63.13,137.67-40,64-74.13,61.8-96.73,108.62-17,35.16-26,95,21.38,200l74.84,11.83,110,16.14,116.07,6.45,132.37-21.51Z"/><ellipse class="cls-16" cx="391.41" cy="716.22" rx="52.95" ry="55.93"/><ellipse cx="382.76" cy="715.69" rx="21.89" ry="23.12"/><path class="cls-17" d="M441,694.78c16.12,63.67-24.52,20.37-58.71,20.37-29.25,0-43.79,32-43.79,1.07,0-42.29,44.44-73.61,86.69-44.72A39.9,39.9,0,0,1,441,694.78Z"/><ellipse class="cls-18" cx="598.11" cy="692.56" rx="52.95" ry="55.93"/><ellipse class="cls-19" cx="598.62" cy="679.12" rx="21.89" ry="23.12"/><path class="cls-17" d="M651.05,692.56c0,30.89-16.57-10.75-45.82-10.75s-60.07,41.64-60.07,10.75,23.7-55.92,53-55.92S651.05,661.68,651.05,692.56Z"/><polygon class="cls-17" points="346.61 805.93 346.61 799.26 311.46 782.58 275.6 824.37 283.11 867.74 324.5 896.86 394 902.28 430.72 894.36 511.67 851.82 593.01 889.35 657.77 898.53 728.46 868.5 747.81 826.79 730.04 782.58 691.34 775.9 675.94 793.84 678.31 800.51 693.32 792.59 709.5 794.67 716.61 810.94 683.84 830.13 572.48 772.15 513.64 793.84 457.18 772.15 335.95 840.55 311.46 823.03 316.6 803.01 346.61 805.93"/><path d="M843.72,719.54l11.33-2.4L872.81,522.5l-32,6.78L826.28,715.33Z"/><path d="M297,654.68l1.07,5.74,377.85-51-3-16.19-362,50.19Z"/><polygon class="cls-20" points="892.4 609.51 858.7 605.29 867.69 525.19 901.39 529.41 892.4 609.51"/><polygon class="cls-16" points="926.11 613.73 892.4 609.51 901.39 529.41 935.1 533.63 926.11 613.73"/><polygon class="cls-21" points="959.81 617.95 926.11 613.73 935.1 533.63 968.8 537.85 959.81 617.95"/><path class="cls-22" d="M151,488.72c11.48-34.87,63.39-36.63,47.22,16.55S113.81,772,122.36,745c0,0-59.64,23-38.2-45.3S139.46,523.6,151,488.72Z"/><path class="cls-23" d="M165.79,517.25c-10.61-4.9-17.23.06-14.39,3.48,3.5,4.21,25.51,11.1,26.67,7.6C178.75,526.27,172.32,520.26,165.79,517.25Z"/><path class="cls-23" d="M152.55,554.89c-10.61-4.9-17.23.07-14.38,3.49,3.5,4.2,25.51,11.1,26.66,7.59C165.51,563.91,159.08,557.9,152.55,554.89Z"/><path class="cls-23" d="M139.31,592.53c-10.6-4.89-17.23.07-14.38,3.49,3.5,4.2,25.51,11.1,26.67,7.6C152.28,601.55,145.84,595.55,139.31,592.53Z"/><path class="cls-23" d="M126.08,630.18c-10.61-4.9-17.23.06-14.39,3.48,3.5,4.2,25.51,11.1,26.67,7.6C139,639.2,132.61,633.19,126.08,630.18Z"/><path class="cls-23" d="M112.84,674.27c-10.61-4.9-17.23.07-14.38,3.49,3.5,4.2,25.51,11.1,26.66,7.59C125.8,683.29,119.37,677.28,112.84,674.27Z"/><path class="cls-24" d="M1671.73,800.3c-49.37-14.69-83.06-53.18-77.6-61.14,8.71-12.68,45.46,10.11,78.19,13.38,3,.3,9,0,20.88-.47,47.86-2.07,66.14-10.55,75.76-31.62,11.44-25.08-15.12-59.06-26.42-73.51-15.36-19.66-22-18.33-29.73-33-11.82-22.27-16.4-62.87,12-82.08,29.67-20.07,79.79-6.22,85.21,10.93,5.23,16.51-32.61,31-30,60.75,1.13,13,9.35,21.23,14.83,28.07,29.54,36.9,41.62,112,4.86,149.76C1768,814,1707.47,810.92,1671.73,800.3Z"/><path class="cls-24" d="M1186,587.32c49.37,14.69,83.06,53.18,77.6,61.14-8.71,12.68-45.46-10.11-78.19-13.38-3-.3-9,0-20.88.47-47.86,2.07-66.14,10.55-75.76,31.62-11.44,25.08,15.12,59.06,26.42,73.51,15.36,19.66,22,18.33,29.73,33,11.82,22.27,16.4,62.87-12,82.08-29.66,20.07-79.79,6.22-85.21-10.93-5.23-16.51,32.61-31,30-60.75-1.13-13-9.35-21.23-14.83-28.07-29.54-36.91-41.62-112-4.86-149.76C1089.77,573.63,1150.25,576.7,1186,587.32Z"/><path class="cls-25" d="M1184.86,584.26c-61.38,56.23-26.53,149.78-33.65,221.34-8.77,88.19-36.54,199,30.72,216.69,23.5,6.17,45.23,13.83,52.51,12,38.68-9.49,88.8,11.49,128.5,10.47,129.73-3.37,173.36,30.2,325.94-12.93,14.23-4,22-1.44,60.17-135.63,11.53-40.51,19.34-106.07-15.17-149.27-29.45-36.86-10-69.39-42.54-113.57-30.93-42-79.26-43.35-109.71-80.42-7.13-8.68,10.88-43.54-32.67-40.48-76.6,5.38,21-69.59-41.85-68.49-55.46,1-141.22,46.16-225.09,18.56C1197.42,434.75,1244.43,529.7,1184.86,584.26Z"/><path class="cls-24" d="M1262.45,649.7c-21.56-43.46-13-114.36,8.87-127.88,12.75-7.88,21.42,9,53,21.52,45.36,17.92,60.25-4,123,7.18,32.62,5.8,66.91,11.89,75.58,41.27,7.32,24.85-7.65,52.88-9.13,55.57-11.36,20.66-31.43,35-78.82,41.66C1368.52,698.4,1292,709.2,1262.45,649.7Z"/><path class="cls-16" d="M1369.44,612c19.18,8.92-39.26,50.33-66.14,34.93s-28.33-84.33-8.37-77.61C1302,571.71,1355.4,605.46,1369.44,612Z"/><path class="cls-26" d="M1797.08,647.33c13.69,13.28,22.1,20,33.34,20.06,24.11,0,49.45-31,46.54-55.67-1.27-10.84-7.68-17.82-13.25-24.23-37.14-42.81-64-60.38-75.51-81.16-2.94-5.29-.57-27.19-9.3-51.08-10.38-28.4-18.61-26.13-26-29.57-9.59-4.46-20.39,2.37-42.55,15-11.69,6.65-25.85,14.89-38.29,31.48-8.24,11-16.13,21.49-14.37,32.6,2.4,15.06,20.61,19,40.45,31.18C1737.51,560,1734.29,586.39,1797.08,647.33Z"/><path d="M1707.12,471c0,6.8,7.42,10.32,7.14,17.92a15.64,15.64,0,0,1-2.46,7.26,20.56,20.56,0,0,1-6.72,7.19c-6.35,4.37-16.91,26-10.9,49.52,5.12,20,20.19,33.25,29.11,41.08a103.2,103.2,0,0,0,9,7c27,19,76,38.54,83.46,25.06,2.57-4.62.15-12.92-3.82-17.4-5.28-5.94-13.67-5.54-18.56-5.59-22.85-.24-47.34-11.28-60.14-21.61-1.19-.95-24.69-20.45-25.47-47-.74-25.14,19.38-37.85,24.26-40.93,28.39-17.92,63.67.28,67,2.09,6.69,3.58,34.42,1.82,47.12,21.4,4,6.17,13.28,31.3,14.69,45.57,1.87,19-21.58,22.07-15.74,34.59,3.68,7.89,12.09,16,18.41,15.29,12.24-1.46,18.4-36.45,10.4-66.39-6.36-23.82-30-49.25-58.12-60.71-40.23-16.4-76.18,11.38-90.36-6.72-4.82-6.15-4.82-16.26-9.62-17.43C1712,460.22,1707.09,465.37,1707.12,471Z"/><path class="cls-16" d="M1470.33,584.56c18.08-11.17,15.59,63.11-12,77.09s-81.29-25.19-64.44-38.33C1399.92,618.64,1457.09,592.75,1470.33,584.56Z"/><path d="M1447.53,596.51c5.75,13.69.18,29.59-12.46,35.52s-27.54-.37-33.29-14.06"/><path d="M1364.31,609.16c-6.87,13.15-21.8,18.35-33.36,11.63s-15.38-22.85-8.52-36"/><polygon points="1370.44 603.62 1281.42 576.01 1283.7 561.78 1374.91 575.36 1370.44 603.62"/><polygon points="1481.83 575.66 1397.48 615.48 1385.09 584.58 1476.25 562.48 1481.83 575.66"/><ellipse class="cls-27" cx="959.96" cy="364.23" rx="298.21" ry="151.64"/><ellipse class="cls-28" cx="959.96" cy="361.13" rx="286.8" ry="145.84"/><ellipse class="cls-29" cx="973.61" cy="364.23" rx="261.19" ry="132.81"/><path class="cls-30" d="M795.65,339.72l-18.85,6.43c-1.42-4.16-8-8.2-16.06-5.44-5.66,1.94-11.69,7-10.06,11.75,1.37,4,7.12,3.85,19.26,3.11,13.54-.8,32.51-2.36,38.75,16,5.42,15.88-4.39,30.27-22.78,36.54-24.63,8.4-40.92-5.68-45.34-18.63L759.42,383s6,12.68,21.62,7.36c8.44-2.88,10.27-7.73,9.06-11.28-1.79-5.25-9-4.83-16.92-4.18-12.79,1.09-35.07,3.51-41.36-14.93-5.17-15.15,5.11-31.2,23-37.31C775.32,315.7,791.23,326.77,795.65,339.72Z"/><path class="cls-30" d="M884.76,312.67l-28.9,5.63,13,66.89L849,389.06l-13-66.88L807,327.8l-3.74-19.25L881,293.42Z"/><path class="cls-30" d="M952.67,362.87l-40,2.37-4.69,14-21.22,1.25,30.32-89.7,22.32-1.32,40.8,85.49-21.35,1.27Zm-8-16.85-14.86-32-11.24,33.5Z"/><path class="cls-30" d="M1065.44,328.87c-1.3,12.58-8.24,22.63-17.63,26.72l14.28,28.08-24.79-2.57-10.15-23-14.58-1.51-2.25,21.69-19.93-2.07,9.05-87.29,40,4.15C1056.2,294.82,1067.42,309.87,1065.44,328.87Zm-48.09-18.36-2.76,26.58,17.14,1.78c6.81.7,12.9-4.76,13.66-12.08s-4.1-13.79-10.78-14.48Z"/><path class="cls-30" d="M1156.93,336.73l-28.59-7.06L1112,395.82,1092.3,391l16.35-66.15-28.59-7.06,4.71-19.05,76.86,19Z"/><path class="cls-30" d="M1174.27,404.43a12.32,12.32,0,0,1-15.56,7.61c-6-2.14-9.25-9.33-7-15.65,2.38-6.69,9.51-10.31,15.5-8.18C1173.54,390.47,1176.65,397.74,1174.27,404.43Zm3.43-18.37-16.91-6,18.48-55.48,19.11,6.81Z"/><ellipse class="cls-31" cx="1809.46" cy="112.63" rx="40.32" ry="41.32"/><ellipse class="cls-32" cx="1809.06" cy="112.22" rx="18.95" ry="19.42"/><rect class="cls-33" x="1804.62" y="63.05" width="8.06" height="11.57"/><rect class="cls-33" x="1805.43" y="151.48" width="8.06" height="11.57"/><rect class="cls-33" x="1849.68" y="102.86" width="8.26" height="11.29" transform="translate(1745.31 1962.32) rotate(-90)"/><polygon class="cls-33" points="1847.79 144.1 1842.32 150.17 1834.03 142.32 1839.5 136.25 1847.79 144.1"/><polygon class="cls-33" points="1783.28 82.12 1777.81 88.19 1769.51 80.34 1774.98 74.27 1783.28 82.12"/><rect class="cls-33" x="1760.97" y="102.86" width="8.26" height="11.29" transform="translate(1656.6 1873.61) rotate(-90)"/><polygon class="cls-33" points="1777.88 136.5 1782.53 143.26 1773.29 149.92 1768.65 143.16 1777.88 136.5"/><polygon class="cls-33" points="1842.86 74.41 1847.84 80.91 1838.96 88.05 1833.98 81.55 1842.86 74.41"/><rect class="cls-34" x="380" y="196.47" width="1177" height="742.71"/><path class="cls-35" d="M454.58,332.58h25.35c0,.15,1.05,13.35,18.3,13.35,9.3,0,17.69-5.55,17.69-11.55,0-12.45-22.64-13.35-29.09-14.7-11.4-2.25-30.75-7.35-30.75-25.8,0-17.25,18.45-31.35,40.95-31.35,27.44,0,40.94,14,40.94,27H513.83c0-2.4-4.05-7.5-16.8-7.5-8.55,0-15.6,5.25-15.6,11.85,0,7.95,15.15,7.95,20.55,8.85,13.65,2.55,39.29,5.85,39.29,31.65,0,16.8-19.8,30.89-43,30.89C468.38,365.27,454.58,345.78,454.58,332.58Z"/><path class="cls-35" d="M635.17,347.88c-8.55,9.9-18.9,17.39-33.75,17.39a41,41,0,0,1-40.94-36.74C557.93,305,577,282.78,601.57,282.78c25.65,0,41.4,25.2,37.35,49.35H581.47a21.24,21.24,0,0,0,19.95,13.5c6.3,0,12.15-2.85,17-8.1Zm-53.7-30.6h38.25c0-8.1-9.3-14.85-18.15-14.85C590.62,302.43,581.47,309.63,581.47,317.28Z"/><path class="cls-35" d="M689.17,303.18v24.9c0,15.15,6.15,15,14.55,15.15v20.85c-29,5.09-38.7-9.75-38.7-28.35V303.18H653.63v-17.7H665v-28.8h24.15v28.8h21v17.7Z"/><path class="cls-35" d="M760.42,303.18v24.9c0,15.15,6.15,15,14.55,15.15v20.85c-29,5.09-38.7-9.75-38.7-28.35V303.18h-11.4v-17.7h11.4v-28.8h24.15v28.8h21v17.7Z"/><path class="cls-35" d="M809.17,276.63a13.58,13.58,0,1,1,13.5-13.5A13.57,13.57,0,0,1,809.17,276.63Zm-11.7,9.15h23.4v77h-23.4Z"/><path class="cls-35" d="M916.72,324.48v38.25H893.47V324.48c0-12.3-4.2-18.75-18-18.75-9.9,0-17.4,8.1-17.55,18.3v38.7H834.37V285.48h23.25v6.15a30.18,30.18,0,0,1,20.7-8.7C910,282.93,916.72,306.33,916.72,324.48Z"/><path class="cls-35" d="M1010.92,285.48v75.45c0,20.54-14.55,46.94-46.95,46.94-14.4,0-25.8-7.5-29.1-10.05l15.6-17.4a24,24,0,0,0,13.5,4.2,23.71,23.71,0,0,0,23.55-21.89,42,42,0,1,1-18.9-79.5,29.74,29.74,0,0,1,19,6.6v-4.35Zm-23.25,39.3c0-10.95-9-21.3-21-21.3a20.85,20.85,0,0,0,0,41.7C977.32,345.18,987.67,336.18,987.67,324.78Z"/><path class="cls-35" d="M1098.81,340.23a19.85,19.85,0,0,1-2.85,9.9,25.47,25.47,0,0,1-7.64,7.95,34.17,34.17,0,0,1-11,5.4,43.63,43.63,0,0,1-13.35,2.1,43.07,43.07,0,0,1-15.45-2.7,29.57,29.57,0,0,1-11.1-6.6c-7.35-7.5-8.7-13.2-8.7-18.45h21.9c0,7.05,6.75,10.5,13.35,10.5,4.35,0,12.9-2.25,12.9-8.1,0-7.35-12.3-9.15-18.9-10.05-6.3-.75-13-2.4-18.75-6a17.86,17.86,0,0,1-9.15-15.6c0-14.1,14.85-25.5,33-25.5,10.2,0,18.6,2.4,24.75,6.9,7.64,5.7,8.39,12.15,8.39,16.2h-19.94c0-5.25-9.15-6.6-13-6.6-4.65,0-11.4,1.2-11.4,7.2,0,4.05,6.3,5.1,14.25,6.3,7.05,1.05,15,2.4,21.45,6.15a22.59,22.59,0,0,1,8.1,7.8,25.35,25.35,0,0,1,2.25,5.85A28.64,28.64,0,0,1,1098.81,340.23Z"/><ellipse class="cls-36" cx="151.5" cy="143" rx="112.5" ry="83"/><path class="cls-37" d="M187.48,150.43c-4.64-4.84-5.86-12-4.7-12.69,1.87-1.19,4.51,4,8,6.35a23,23,0,0,0,2.42,1.15c5.61,2.52,5,2,7.55-.26,3-2.68,3.13-6.43,2.83-9-.42-3.52,1.19-5.61,1.3-8,.17-3.66,4.09-14.45,8.65-15.36,4.77-1,11.85,11,11.29,13.62s-10.72-6.18-12.45-2.06c-.76,1.8.52,9.71.68,10.94.86,6.66-2.89,17.4-9.68,20.3C197.56,157.88,190.85,153.94,187.48,150.43Z"/><path class="cls-37" d="M98.33,141.78c5.9-2.23,9.81-7.72,9.11-8.81-1.11-1.74-5.45,1.58-9.4,2.15a21.46,21.46,0,0,1-2.52,0c-5.8-.12-5.08-.32-6.34-3.22-1.49-3.46-.07-6.65,1.23-8.71,1.77-2.8,1.25-5.2,2.12-7.27,1.33-3.14,2.33-13.78-1.19-16.35-3.68-2.69-14.52,4.57-15.1,7s11.62-.95,11.44,3.2c-.08,1.82-4.36,8-5,8.94-3.41,5.26-4.53,15.78.08,20.91C86.75,144.05,94.05,143.4,98.33,141.78Z"/><path class="cls-17" d="M104.68,113.64c-14.75,16.09-20.61,46.12-13.29,56.83,1.56,2.28,2.08,1.3,8.76,5.92,11.52,8,12.43,12.63,19.72,16.65,4.12,2.27,3.13.4,20,3.3,14.56,2.5,16.23,4,23.31,3.58,6.45-.43,10.51-.41,15.51-2.89,3.52-1.76,5-3.41,8.65-3.86,4.26-.52,6.16,1.23,8.86-.68,3-2.14,3.9-6.61,4-7.16,1-5.17-1.44-8.62-2.85-13.76-1.25-4.52-.17-12.83,2-29.44,1.31-10.06,2.37-15.63.53-22.84-.68-2.66-1.23-4.81-2.74-6.88-2.64-3.61-5.77-3.66-19.52-4.27-8.91-.39-10.56-.5-12.45,1.38-4,4-2.58,10.6-5.27,12-4.32,2.19-8.94-12.92-18.78-18.85C129.36,95.51,113.67,103.84,104.68,113.64Z"/><ellipse class="cls-16" cx="126.2" cy="134.38" rx="14.86" ry="21.26"/><ellipse cx="128.43" cy="134.38" rx="4.91" ry="9.07"/><ellipse class="cls-16" cx="149.6" cy="138.33" rx="12.83" ry="18.35"/><ellipse cx="151.52" cy="138.33" rx="4.23" ry="7.83"/><polygon points="170.31 131.63 108.41 116.71 115.4 108.26 166.15 124.86 170.31 131.63"/><g id="Mic"><rect class="cls-38" x="486.83" y="518.65" width="57.55" height="60"/><polygon class="cls-39" points="576.03 491 576.03 602 524.24 568.7 489.71 546.5 576.03 491"/><path class="cls-40" d="M601,515c1.07.89,10,8.7,11.83,25.57,1.49,13.83-2.42,28.19-9.93,36.43"/><path class="cls-40" d="M625,496c1.07,1.44,10,14,11.83,41.25,1.49,22.3-2.42,45.45-9.93,58.75"/><path class="cls-40" d="M654.69,481c1.06,1.87,10,18.25,11.83,53.63,1.48,29-2.42,59.09-9.94,76.37"/></g><g class="cls-11"><rect class="cls-41" x="1447.5" y="226" width="68.75" height="68.75"/><polyline class="cls-42" points="1467.47 240.82 1469.75 243.94 1496.7 280.79"/><polyline class="cls-43" points="1496.7 240.82 1494.42 243.94 1467.47 280.79"/></g><path class="cls-44" d="M543.49,813c7.49-12.23-3.48-97.47,2.61-98.28,15.49-2,94.28-15.52,94.37-16.09,2.87-17.72,1.15,115.77,0,110.89-.52-2.23,0,9.47-4.35,13.92-4.53,4.62-17.73,12-26.53,10-1.31-.29-11.76-4.5-13-13-1.08-7.21,13.49-21.77,24.78-23.49,5.51-.84,6.85,2.54,9.57,2.18,3.19-.42-3.74-43.27,0-58.28,2-8-74.14,13-76.54,12.18-6.94-2.41,1.2,56.76-.43,74.36-1.07,11.54-17.78,22.1-29.14,20-6.25-1.16-13-6.72-13.91-13.92-1.18-9.69,9.09-16.38,10-17C530.38,810.47,540,818.63,543.49,813Z"/><rect class="cls-45" x="1019.5" y="506.5" width="78" height="78"/><rect class="cls-45" x="1019.5" y="726.5" width="78" height="78"/></g></g></svg>