<svg xmlns="http://www.w3.org/2000/svg" width="1370" height="630" viewBox="0 0 1370 630"><defs><style>.cls-1{fill:#ff9c7f;}.cls-2{fill:#fff;}.cls-3{fill:#4a1b00;}.cls-4{fill:#ff6a15;}.cls-5{stroke:#000;stroke-linecap:round;stroke-linejoin:round;stroke-width:4px;}</style></defs><title>Conor</title><g id="Mofo_Muskelmand" data-name="Mofo Muskelmand"><path class="cls-1" d="M400,542.5c21.27,17.41,47.78,30.39,359,12,219.34-13,256.47-22.39,282-57,49.85-67.59,33.9-182.53-10.32-227.61-13.57-13.83-21.28-22.68-36.68-40.39-22.7-26.1-25.38-30.7-25.6-36.39-1.28-33.89,64.91-52.75-11.4-108.61-65-47.55-235.13,58.27-293,36-73.39-28.24-116.07,9.76-168,65-8.56,9.11-47,0-66,57C396.75,342.21,311.61,470.15,400,542.5Z"/><path class="cls-1" d="M1077.14,351.43c-91.25-13.54-153.66-49.34-143.62-56.78,16-11.86,84,9.28,144.42,12.22,5.58.27,16.57,0,38.54-.5,88.36-2.09,122-10.06,139.69-29.75,21-23.43-28.24-55-49.19-68.49-28.47-18.29-40.67-17-55.08-30.65-22-20.73-30.64-58.6,21.64-76.6,54.66-18.83,147.28-6.07,157.39,9.91,9.73,15.39-60,29.07-55.09,56.78,2.17,12.14,17.39,19.77,27.54,26.14,54.76,34.33,77.49,104.36,9.84,139.7C1254.84,363.9,1143.17,361.23,1077.14,351.43Z"/><path class="cls-1" d="M1110,256.5c-14.67,9.51-19.71,24.1-21,28-1.36,4.13-7.17,21.74,0,34,14,24,77.12,26.15,93-5,8.45-16.58,3.73-43-15-57S1124.41,247.16,1110,256.5Z"/><path class="cls-1" d="M312.32,393.43c87.29-12.95,148.2-46.28,144.52-55.66a2.48,2.48,0,0,0-.9-1.12c-14.3-10.71-64.17,23.21-127.94,31.85-20.93,2.84-14.68-.94-52,2-65.7,5.17-74.81,16.06-94,6-6.77-3.55-20.75-21.66-48.71-57.88-2.13-2.77-3.91-5.14-4.71-8.82-4.77-22,35.49-47.85,53.9-59.67,28.47-18.29,40.68-17,55.08-30.65,21.95-20.73,30.65-58.6-21.64-76.6-54.66-18.83-147.28-6.07-157.39,9.91-9.73,15.39,60,29.07,55.09,56.78-2.16,12.14-17.39,19.77-27.54,26.14C31.32,270,8.6,340.07,76.24,375.41,134.62,405.9,246.29,403.23,312.32,393.43Z"/><path class="cls-2" d="M641,353.5c-33.44,6.72-51.45-21.47-50-61,1.14-31.09,4.88-62.94,32-63,38.27-.09,41,25,37,63C658.32,308.5,658.2,350,641,353.5Z"/><path d="M626,260.5c-18.15,21.55-36.45,71.53-35,32,1.14-31.09,4.88-62.94,32-63,38.27-.09,42-11,38,27C659.32,272.5,642,241.5,626,260.5Z"/><ellipse cx="638" cy="312" rx="16" ry="21.5"/><ellipse class="cls-2" cx="642" cy="317.5" rx="2" ry="6"/><path class="cls-2" d="M815,322.5c-33.44,6.72-51.45-21.47-50-61,1.14-31.09,4.88-62.94,32-63,38.27-.09,41,25,37,63C832.32,277.5,832.2,319,815,322.5Z"/><path d="M792,238.5c-15.63,23.45-28.45,62.53-27,23,1.14-31.09,4.88-62.94,32-63,38.27-.09,42-11,38,27C833.32,241.5,808,214.5,792,238.5Z"/><ellipse cx="812" cy="281" rx="16" ry="21.5"/><ellipse class="cls-2" cx="816" cy="286.5" rx="2" ry="6"/><path class="cls-3" d="M638,387.5c-24.35-5.74-53.42-13.92-58-15.34l-.62-.2c-28.07-8.83-40.89-15.28-44.23-17s-7.23-3.85-8.69-4.68c-4.45-2.53-6.9-4.18-13.49-7.79-7-3.84-31.12-17.5-47-13-26.9,7.63-47.92,50.74-41,80,12.75,53.92,122.22,68.66,251,86,186.51,25.12,238.82-5,261-21,31.09-22.46,68.56-64.67,58-88-9.31-20.57-53-20.09-61-20-37.79.41-68.08,8.32-91,18C792.73,405.73,727.29,408.55,638,387.5Z"/><path class="cls-4" d="M590,412.5c-4.89,3.44-132,6-166,86-5.05,11.88,26.79,73.85,68,96,47.52,25.54,113.56-86.42,173-152"/><path class="cls-2" d="M605,378.5c-1,.79-16.08,9.76-13.5,29.5.39,2.94,1.49,14.9,10,20,9.81,5.88,38.23-21.4,50.5-36.5"/><path class="cls-2" d="M535.5,355c-1,.79-17.58,14.26-15,34,.39,2.94,1.49,14.9,10,20,9.81,5.88,37.73-21.9,50-37"/><path class="cls-2" d="M664.5,394c-1,.79-17.58,14.26-15,34,.39,2.94,1.49,14.9,10,20,9.81,5.88,38.23-33.4,50.5-48.5"/><rect class="cls-5" x="542.66" y="187.39" width="298.95" height="22.89" transform="translate(-27.74 179.64) rotate(-14.5)"/></g></svg>
