<svg xmlns="http://www.w3.org/2000/svg" width="910" height="600" viewBox="0 0 910 600"><defs><style>.cls-1,.cls-2{fill:#b9dc32;}.cls-1{stroke:#8cc63f;stroke-linecap:square;stroke-linejoin:round;stroke-width:46px;}.cls-3,.cls-5{fill:#fff;}.cls-4{fill:#009245;}.cls-5,.cls-6{stroke:#006837;stroke-miterlimit:10;}.cls-7{fill:#2e3192;}.cls-8{fill:red;}.cls-9{fill:#edc53b;}.cls-10{fill:#fff35f;}</style></defs><title>Frenchguy</title><g id="French_Mofo" data-name="French Mofo"><polyline class="cls-1" points="144.5 280.86 89.46 208 68.5 236.95 136.02 323 144.5 289.63"/><polyline class="cls-1" points="689.5 291.86 744.54 219 765.5 247.95 697.98 334 689.5 300.63"/><path class="cls-2" d="M626,533c37.5-25,65.14-17.1,74.5-40,56-137.08,10.89-101.09-1-175C686.69,238.39,648,119.64,600,99c-49.54-21.31-88.63,60.39-185,57-80.54-2.83-113.1-62-155-41-34.55,17.33-16.91,59.82-62,128-39.33,59.47-72.8,57.47-95,101-16.67,32.69-25.56,88.28,21,186l73.5,11,108,15,114,6,130-20Z"/><circle class="cls-3" cx="315.5" cy="277" r="52"/><circle cx="307" cy="276.5" r="21.5"/><path class="cls-4" d="M364.17,257.06C380,316.26,340.08,276,306.5,276c-28.72,0-43,29.72-43,1,0-39.32,43.65-68.45,85.13-41.58A37.12,37.12,0,0,1,364.17,257.06Z"/><circle class="cls-5" cx="518.5" cy="255" r="52"/><circle class="cls-6" cx="519" cy="242.5" r="21.5"/><path class="cls-4" d="M570.5,255c0,28.72-16.28-10-45-10s-59,38.72-59,10a52,52,0,0,1,104,0Z"/><polygon class="cls-4" points="271.5 360.41 271.5 354.21 236.98 338.7 201.76 377.55 209.13 417.88 249.78 444.96 318.04 450 354.11 442.63 433.61 403.07 513.5 437.98 577.1 446.51 646.52 418.59 665.53 379.8 648.07 338.7 610.07 332.49 594.94 349.17 597.27 355.37 612.01 348 627.91 349.94 634.89 365.07 602.7 382.91 493.33 329 435.55 349.17 380.09 329 261.03 392.6 236.98 376.31 242.03 357.7 271.5 360.41"/><path d="M759.72,280.09l11.13-2.24,17.44-181-31.41,6.31-14.28,173Z"/><path d="M222.79,219.78l1.05,5.33,371.09-47.46-3-15.06L236.47,209.26Z"/><rect class="cls-7" x="778.73" y="101.08" width="33.33" height="75" transform="translate(21.83 -92.64) rotate(6.76)"/><rect class="cls-3" x="811.83" y="105" width="33.33" height="75" transform="translate(22.53 -96.51) rotate(6.76)"/><rect class="cls-8" x="844.94" y="108.92" width="33.33" height="75" transform="translate(23.22 -100.37) rotate(6.76)"/><path class="cls-9" d="M79.34,65.47C90.62,33,141.59,31.41,125.72,80.85s-82.86,248-74.46,222.9c0,0-58.57,21.38-37.52-42.11S68.06,97.89,79.34,65.47Z"/><path class="cls-10" d="M93.91,92c-10.42-4.55-16.92.06-14.13,3.24,3.44,3.91,25.06,10.32,26.2,7.07C106.64,100.38,100.32,94.79,93.91,92Z"/><path class="cls-10" d="M80.91,127c-10.42-4.55-16.92.06-14.13,3.24,3.44,3.91,25.06,10.32,26.2,7.07C93.64,135.38,87.32,129.79,80.91,127Z"/><path class="cls-10" d="M67.91,162c-10.42-4.55-16.92.06-14.13,3.24,3.44,3.91,25.06,10.32,26.2,7.07C80.64,170.38,74.32,164.79,67.91,162Z"/><path class="cls-10" d="M54.91,197c-10.42-4.55-16.92.06-14.13,3.24,3.44,3.91,25.06,10.32,26.2,7.07C67.64,205.38,61.32,199.79,54.91,197Z"/><path class="cls-10" d="M41.91,238c-10.42-4.55-16.92.06-14.13,3.24,3.44,3.91,25.06,10.32,26.2,7.07C54.64,246.38,48.32,240.79,41.91,238Z"/></g></svg>
