<svg xmlns="http://www.w3.org/2000/svg" xmlns:xlink="http://www.w3.org/1999/xlink" width="1920" height="1080" viewBox="0 0 1920 1080"><defs><style>.cls-1{opacity:0.7;}.cls-2{fill:url(#linear-gradient);}.cls-3{fill:#fde58f;}.cls-4{fill:url(#linear-gradient-2);}.cls-5{opacity:0.3;fill:url(#linear-gradient-3);}.cls-6{opacity:0.08;fill:url(#linear-gradient-4);}.cls-7{fill:#e09686;}.cls-8{fill:#c98273;}.cls-9{fill:#bf6e5d;}.cls-10{fill:#aa6253;}.cls-11{opacity:0.5;}.cls-12{opacity:0.07;fill:url(#linear-gradient-5);}.cls-13{fill:#008a17;}.cls-13,.cls-25,.cls-30,.cls-33{stroke:#000;}.cls-13,.cls-18,.cls-19,.cls-30,.cls-31,.cls-33{stroke-miterlimit:10;}.cls-13,.cls-30{stroke-width:5px;}.cls-14,.cls-15{fill:#b9dc32;}.cls-14{stroke:#8cc63f;stroke-linecap:square;stroke-width:46px;}.cls-14,.cls-25,.cls-32{stroke-linejoin:round;}.cls-16,.cls-18{fill:#fff;}.cls-17{fill:#009245;}.cls-18,.cls-19{stroke:#006837;}.cls-20{fill:#2e3192;}.cls-21{fill:red;}.cls-22{fill:#edc53b;}.cls-23{fill:#fff35f;}.cls-24{fill:#8a7c00;}.cls-25,.cls-31,.cls-32{stroke-linecap:round;stroke-width:4px;}.cls-26{fill:#5f4300;}.cls-27{fill:#001900;}.cls-28{fill:#008a00;}.cls-29{fill:#009400;}.cls-30{fill:#f15a24;}.cls-31,.cls-32{fill:gray;stroke:gray;}.cls-33{fill:#ccc;stroke-width:18px;}.cls-34{fill:#c69c6d;}</style><linearGradient id="linear-gradient" x1="960.21" y1="781.19" x2="960.21" y2="1.05" gradientUnits="userSpaceOnUse"><stop offset="0" stop-color="#f0c57b"/><stop offset="0.17" stop-color="#f0be7a"/><stop offset="0.42" stop-color="#f1ab76"/><stop offset="0.72" stop-color="#f18c6f"/><stop offset="1" stop-color="#f26868"/></linearGradient><linearGradient id="linear-gradient-2" x1="959.41" y1="853.18" x2="959.41" y2="1109.25" gradientUnits="userSpaceOnUse"><stop offset="0" stop-color="#f0c57b"/><stop offset="0.18" stop-color="#f0bb79"/><stop offset="0.5" stop-color="#f19f73"/><stop offset="0.91" stop-color="#f2726a"/><stop offset="1" stop-color="#f26868"/></linearGradient><linearGradient id="linear-gradient-3" x1="724.17" y1="405.02" x2="724.17" y2="568.79" gradientUnits="userSpaceOnUse"><stop offset="0" stop-color="#fff"/><stop offset="0.09" stop-color="#fff" stop-opacity="0.97"/><stop offset="0.22" stop-color="#fff" stop-opacity="0.89"/><stop offset="0.38" stop-color="#fff" stop-opacity="0.75"/><stop offset="0.56" stop-color="#fff" stop-opacity="0.57"/><stop offset="0.76" stop-color="#fff" stop-opacity="0.33"/><stop offset="0.97" stop-color="#fff" stop-opacity="0.04"/><stop offset="1" stop-color="#fff" stop-opacity="0"/></linearGradient><linearGradient id="linear-gradient-4" x1="-3913.9" y1="211.78" x2="-3913.9" y2="382.54" gradientTransform="matrix(-1, 0, 0, 1, -2950, 0)" gradientUnits="userSpaceOnUse"><stop offset="0" stop-color="#fff"/><stop offset="0.18" stop-color="#fff" stop-opacity="0.99"/><stop offset="0.32" stop-color="#fff" stop-opacity="0.95"/><stop offset="0.43" stop-color="#fff" stop-opacity="0.89"/><stop offset="0.54" stop-color="#fff" stop-opacity="0.8"/><stop offset="0.64" stop-color="#fff" stop-opacity="0.69"/><stop offset="0.74" stop-color="#fff" stop-opacity="0.55"/><stop offset="0.83" stop-color="#fff" stop-opacity="0.38"/><stop offset="0.92" stop-color="#fff" stop-opacity="0.2"/><stop offset="1" stop-color="#fff" stop-opacity="0"/></linearGradient><linearGradient id="linear-gradient-5" x1="704.19" y1="94.65" x2="704.19" y2="385.04" gradientTransform="translate(-145.82)" xlink:href="#linear-gradient-4"/></defs><title>Gamestart</title><g id="Titelskærm"><g id="allle_elemnter" data-name="allle elemnter" class="cls-1"><rect class="cls-2" x="-0.2" width="1920.81" height="785.32"/><rect class="cls-3" x="-1" y="785.54" width="1920.81" height="296.27"/><rect class="cls-4" x="-1" y="785.54" width="1920.81" height="296.27"/><path class="cls-5" d="M-3.2,363.51s64-32.65,160.07-11.81,90.9,46.78,115.08,58.16,40.94,32.21,115.42,14.1,109.71-23.64,155.7,7.12-4.86,55.11,61.38,74.05,91-10.83,148.23,0,104.22,56.81,145.57,52.76,142.42-14.42,161-11.58,393.11,26.15,393.11,26.15S939,569.61,873.92,595.31,787.36,647.62,733.82,621s-106.35-62.39-221.6-48.56-82.19,21-170.75,22.85-171.28-53.44-218.76-61S-4,546.31-4,546.31Z"/><path class="cls-6" d="M1916.33,188c-33.38-61.36-244.94-19.41-302,8.16-41.86,20.2-87.11,50-139.72,40.69-18.46-3.26-33.09-11-49.06-17.19-60.89-23.46-148.57-22-206.91,3.43-36.47,15.91-66.69,41.1-112.77,42.33-25.54.68-49.84-6.61-75.39-7.17-60.59-1.34-101.65,32.88-152.59,51.41-56.6,20.6-106.64,14.05-167.69,8.54-54.17-4.9-111.27-.54-166,2.63-76.64,4.42-158.85,20.75-235.4,20.79-14.41,0-304.93,27.06-304.93,27.06S231.9,390.27,352,383.51s60.68-7.28,170,0,232.21,25.71,280.81,23-25.27.54,150.93.27,188.54,14.79,362.49,13.94,191.11-27.75,297.74-37.22,305.9,3.65,305.9,3.65V278c0-20.33,11.42-62.58-3.45-90Z"/><path class="cls-7" d="M1134.32,785.54s-164.63-52.83-326.78-69.19c-80.95-8.16-110.64,28.94-186.55,0s-58-48.3-111.63-48.68-80.37-20.5-169.68-20.5-62.51,36.48-223.26,20.5c-39-3.88-82.61,0-82.61,0V785.54Z"/><path class="cls-7" d="M1401.67,654s-5.74,6.47-34.45,9.7-68.9-18-74.64-16-47.92,8.12-47.92,8.12-13.32-5-22.89-8.25-28.7,17.76-28.7,17.76-38.28-5.24-57.42-1.26-32.53,2.9-47.84,13.68-74.64,3.23-91.87-5.39S950,655.73,934.7,665.1s-32.53,18-36.36,23.39-11.07,22.65-39,29.12-26.3,24.8-26.3,24.8S881.79,768,887,768s514.67,17.54,514.67,17.54Z"/><path class="cls-8" d="M-1,578.11s74.43,4.51,93.64,12.62c31.68,13.39,78,14.74,92.36,28.27s66.11,44.08,66.11,44.08L390.37,785.54H-1Z"/><path class="cls-8" d="M220.69,663.08s124.86,2.51,132.86,5.22,32,20.74,51.22,14.43,35.8-9.45,46.42-9.16c21.29.59,34.42,21.78,58.43,24.94,22,2.9,81.14,82.52,214.64,87H220.69Z"/><path class="cls-8" d="M580.05,785.54s118.45-44.64,146.1-37.88c34.34,8.4,54.73.8,65.49-6.33,6.05-4,15-6.29,24.31-6.29H924.37l72-23.9s29.05-14.89,57.27-14.89,153.66,14.89,153.66,14.89l109.85-14.89,38.41,89.29Z"/><path class="cls-9" d="M-1,636.73s2.4-18,68-18c19.54,0,20.81,9,40,13.53s20.8,3.61,30.41,4.51,32,3.61,32,11.72,22.41,18.94,33.62,20.75S221,702,221,702l267,79L-1,785.54Z"/><path class="cls-9" d="M1916,477c17.63-30.67-41.09-368.56-183-139-.09.14-44.83,112-45,112-16.52-3.65-40.61,68.68-53,79s-406.74,13.36-415,25-132.34,12.89-153,35,40.5,39.59,30,68c-5.12,13.86,128,25,128,25s107.63-12.84,84.16-1.2-1.77,34.91-45.67,37.24-144.4,0-144.4,0-18.4-2.33-91.14,9.31S876.42,762,876.42,762L918,786l1001.81-.46V503.9"/><path class="cls-10" d="M1919.81,540.68s-12-18.94-45.62-8.12,21.61,25.71-33.61,21.65-62.43-28-88.84-24.81-40.82,30.23-76.83,25.49-64.83,6.08-79.23,16.9-14.41,29.77-62.43,50.06-38.42,51-48,62.7-14.41,10.35-38.42,26.59-50.42,37.87-57.62,41.93-145.45,13.53-143.56,17.59-139.12,14.88-139.12,14.88h813.3Z"/><g class="cls-11"><path class="cls-7" d="M1134.32,785.5s-164.63,34.23-326.78,44.82c-80.95,5.29-110.64-18.74-186.55,0s-58,31.29-111.63,31.54S429,875.14,339.68,875.14s-62.51-23.63-223.26-13.28c-39,2.51-82.61,0-82.61,0V785.5Z"/><path class="cls-7" d="M1401.67,870.73s-5.74-4.2-34.45-6.29-68.9,11.69-74.64,10.38-47.92-5.25-47.92-5.25-13.32,3.24-22.89,5.34-28.7-11.5-28.7-11.5-38.28,3.39-57.42.81-32.53-1.88-47.84-8.86-74.64-2.1-91.87,3.49S950,869.6,934.7,863.53s-32.53-11.67-36.36-15.16-11.07-14.67-39-18.86S833,813.44,833,813.44s-65.65-27.94-60.45-27.94h629.11Z"/><path class="cls-8" d="M-1,919.88S73.43,917,92.64,911.7c31.68-8.67,86.44,8.77,100.84,0s57.63-46.87,57.63-46.87L390.37,785.5H-1Z"/><path class="cls-8" d="M220.69,864.83s124.86-1.62,132.86-3.37,32-13.44,51.22-9.35,35.8,6.12,46.42,5.93c21.29-.38,34.42-14.11,58.43-16.16,22-1.87,81.14-53.46,214.64-56.38H220.69Z"/><path class="cls-8" d="M673,786s25.5,28.42,53.15,24c34.34-5.44,54.73-.52,65.49,4.11,6.05,2.59,15,4.07,24.31,4.07H924.37l72,15.48s29.05,9.64,57.27,9.64,153.66-9.64,153.66-9.64l109.85,9.64,38.41-57.84Z"/><path class="cls-9" d="M-1,881.9s2.4,11.69,68,11.69c19.54,0,20.81-5.84,40-8.76s20.8-2.34,30.41-2.93,32-2.33,32-7.59,22.41-12.27,33.62-13.44,17.6-6.91,17.6-6.91L580.05,785.5H-1Z"/><path class="cls-9" d="M1919.81,968h-43.37s2.48,24.53-26.44,29-24.61,33.48-37,38c-4.88,1.78-45.79,2-53,4-21.93,6-72.36,23.07-65-31,0-.17-27.83,9-28,9-16.52,2.36-39.61-6.32-52-13s-93.84-39.06-102.1-46.6-16.52-21.11-37.18-35.44-59.73-12.5-70.23-30.91c-5.12-9-41.31-37.69-41.31-37.69s-31.55,7.54-55,0-1.77-22.62-45.67-24.13-144.4,0-144.4,0-18.4,1.51-91.14-6-151.53-22.44-151.53-22.44L794.1,785.5H1919.81Z"/><path class="cls-10" d="M1919.81,944.13s-12,12.27-45.62,5.26,21.61-16.65-33.61-14-62.43,18.13-88.84,16.08-40.82-19.59-76.83-16.52S1610.08,931,1595.68,924s-14.41-19.28-62.43-32.42-38.42-33-48-40.62-14.41-6.71-38.42-17.23-50.42-24.53-57.62-27.16-145.45-8.77-143.56-11.4-139.12-9.64-139.12-9.64h813.3Z"/></g><path class="cls-12" d="M1116.06,236.52c12.81,71.1-50.43,138.61-103.88,167.83C973.37,425.56,937,429,922,429c-176.2-.27-254,21.85-428,21s-273.38-30.54-380-40S-1,217.16-1,217.16V108c0-20.33,8.51-59.23,3.45-90C-1-3,2,18,2,18,19.14-9.11,239-4,304.53,26.12c42.24,19.41,87.12,50,139.72,40.69,18.47-3.26,33.09-11,49.06-17.19,60.9-23.46,148.57-22,206.91,3.43C736.7,69,766.92,94.15,813,95.38c35,.94,37.84-6.92,75.39-7.17C969.83,87.67,1030,131.69,1041,140,1071.15,162.79,1107.76,190.47,1116.06,236.52Z"/></g><path class="cls-13" d="M361.4,177l-25.56,9.07,19.61,59-17.6,6.24-19.62-59-25.56,9.07-5.65-17L355.75,160Z"/><path class="cls-13" d="M459.7,211.79,442,217.2l-8.46-29.94-32.16,9.8L409.79,227l-17.63,5.38-21.81-77.11L388,149.89l8.47,29.93,32.16-9.8-8.47-29.93,17.75-5.41Z"/><path class="cls-13" d="M513.58,114.86l4.12,17.45-38.83,10,3.18,13.43,32.41-8.37,3.86,16.3-32.42,8.37,3.18,13.43,38.83-10L532,192.91l-56.66,14.63-18.46-78Z"/><path class="cls-13" d="M589.72,180.24l-18,3.82-15-78.85,18-3.82Z"/><path class="cls-13" d="M698.21,160.6,680,163.72l-6.08-40.54L662,166.8l-20.23,3.46-24.1-37.46,6.08,40.54-18.13,3.1L593.67,97l20.11-3.44,35,53.82,17.34-62.76,20.22-3.46Z"/><path class="cls-13" d="M772.28,102.05c1.55,15.78-6.4,32.2-25.76,34.5l-16.46,1.95,1.78,18.13-18.36,2.18-7.86-80,34.93-4.15C759.91,72.32,770.76,86.52,772.28,102.05Zm-46.54-7.57,2.57,26.25L742.78,119c7.34-.87,11.89-6.05,11-14.76S747.55,92,740.2,92.76Z"/><path class="cls-13" d="M851.28,95c.64,11.58-4.17,21.8-12.07,27l17,23-22.77,1.72-12.5-19.12-13.39,1,1.11,20L790.33,150l-4.46-80.36,36.72-2.78C838,65.71,850.3,77.48,851.28,95Zm-46.11-8.74,1.36,24.46,15.74-1.19c6.25-.47,11-6.4,10.59-13.14S827.16,84.57,821,85Z"/><path class="cls-13" d="M924.91,130.17l-36.66,1-4.92,12.7-19.45.55L895.7,63l20.45-.58L949.5,142l-19.56.55Zm-6.51-15.69L906.29,84.72l-11.81,30.43Z"/><path class="cls-13" d="M1027.4,123.88c-7.24,12-20.18,20.65-36.26,20.38-23.8-.4-40.46-19.17-39.62-43a41.54,41.54,0,0,1,42.56-40.43c16.2.27,28.65,8.54,35,20.74l-15.87,9.34c-3.32-7.41-10.18-12.39-19.79-12.55-13.29-.22-22.93,9.94-23.4,23.21-.45,12.8,8.43,24.21,21.72,24.43a22.41,22.41,0,0,0,20.43-11.87Z"/><path class="cls-13" d="M1110.85,85.79,1084,84.12l-5,62.46-18.49-1.15,5-62.46-26.85-1.66,1.44-18,72.2,4.48Z"/><path class="cls-13" d="M1135.87,151.3l-18.22-1.71,8.92-80.25,18.22,1.71Z"/><path class="cls-13" d="M1227.18,142.47c-8.47,11.13-22.24,18.36-38.17,16.34-23.56-3-38.07-23.52-34.68-47.16,3.2-22.22,23-38.62,46.58-35.63,16,2,27.5,11.64,32.52,24.49l-16.74,7.57c-2.49-7.74-8.77-13.44-18.28-14.65-13.17-1.68-23.82,7.39-25.71,20.56-1.83,12.7,5.75,25,18.92,26.71a22.29,22.29,0,0,0,21.54-9.6Z"/><path class="cls-13" d="M1289.26,160.22l-36-6.27L1246,165.47l-19.11-3.32,47-73.86L1294,91.78l17,85-19.21-3.34ZM1286,143.48l-6-31.69-17.49,27.6Z"/><path class="cls-13" d="M1344.14,165.68l38.83,8.55-4.14,17.6-56.66-12.47,18.49-78.75,17.83,3.93Z"/><path class="cls-13" d="M1483.9,205.72l3.19,7.69-15.45,8.77-4.18-9.46a37.17,37.17,0,0,1-17.21-.63c-21.86-6.14-32.68-29.7-26.37-51.17s28.14-35.38,50-29.24,32.92,29.28,26.62,50.75A43.27,43.27,0,0,1,1483.9,205.72Zm-28.55-11a19.47,19.47,0,0,0,4.56.66l-6.59-15.08,15.92-8.76,7.08,16.95a25.57,25.57,0,0,0,6.49-11c3.79-12.9-2.14-25.08-14-28.42s-23.53,3.91-27.32,16.81C1437.83,178.19,1443.56,191.42,1455.35,194.73Z"/><path class="cls-13" d="M1579.6,207.55c-8.67,25.35-28.92,35.72-49,29.09-20.39-6.74-29-26.64-20.3-52l12.77-37.3,17.32,5.72-12.77,37.3c-5.05,14.76-2.14,25.51,8.84,29.14,10.77,3.56,20.54-3,25.59-17.76l12.77-37.29,17.53,5.79Z"/><path class="cls-13" d="M1595,257.66l-17.12-6.26,28.53-75.83,17.13,6.26Z"/><path class="cls-13" d="M1700.7,230.83l-61.54,24.37L1684,273.3,1677.08,290l-69.78-28.17,6.69-16.19L1676.68,222,1634,204.81l6.92-16.75,66.38,26.8Z"/><polyline class="cls-14" points="219.3 698.38 163.25 620.01 141.91 651.15 210.67 743.7 219.3 707.8"/><polyline class="cls-14" points="774.22 710.21 830.27 631.84 851.6 662.98 782.85 755.53 774.22 719.63"/><path class="cls-15" d="M709.56,969.55c38.19-26.89,66.33-18.39,75.86-43,57.06-147.43,11.09-108.72-1-188.21-13-85.62-52.47-213.34-101.31-235.54-50.44-22.92-90.25,65-188.37,61.31C412.71,561,379.57,497.4,336.9,520c-35.18,18.64-17.22,64.34-63.13,137.67-40,64-74.13,61.8-96.73,108.62-17,35.16-26,95,21.38,200l74.84,11.83,110,16.14,116.07,6.45,132.37-21.51Z"/><ellipse class="cls-16" cx="393.41" cy="694.22" rx="52.95" ry="55.93"/><ellipse cx="384.76" cy="693.69" rx="21.89" ry="23.12"/><path class="cls-17" d="M443,672.78c16.12,63.67-24.52,20.37-58.71,20.37-29.25,0-43.79,32-43.79,1.07,0-42.29,44.44-73.61,86.69-44.72A39.9,39.9,0,0,1,443,672.78Z"/><ellipse class="cls-18" cx="600.11" cy="670.56" rx="52.95" ry="55.93"/><ellipse class="cls-19" cx="600.62" cy="657.12" rx="21.89" ry="23.12"/><path class="cls-17" d="M653.05,670.56c0,30.89-16.57-10.75-45.82-10.75s-60.07,41.64-60.07,10.75,23.7-55.92,53-55.92S653.05,639.68,653.05,670.56Z"/><polygon class="cls-17" points="348.61 783.93 348.61 777.26 313.46 760.58 277.6 802.37 285.11 845.74 326.5 874.86 396 880.28 432.72 872.36 513.67 829.82 595.02 867.35 659.77 876.53 730.46 846.5 749.81 804.79 732.04 760.58 693.34 753.9 677.94 771.84 680.31 778.51 695.32 770.59 711.51 772.67 718.61 788.94 685.84 808.13 574.48 750.15 515.64 771.84 459.18 750.15 337.95 818.55 313.46 801.03 318.6 781.01 348.61 783.93"/><path d="M845.72,697.54l11.33-2.4L874.81,500.5l-32,6.78L828.28,693.33Z"/><path d="M299,632.68l1.07,5.74,377.85-51-3-16.19-362,50.19Z"/><polygon class="cls-20" points="894.41 587.51 860.7 583.29 869.69 503.19 903.39 507.41 894.41 587.51"/><polygon class="cls-16" points="928.11 591.73 894.41 587.51 903.39 507.41 937.1 511.63 928.11 591.73"/><polygon class="cls-21" points="961.81 595.95 928.11 591.73 937.1 511.63 970.8 515.85 961.81 595.95"/><path class="cls-22" d="M153,466.72c11.48-34.87,63.39-36.63,47.22,16.55S115.81,750,124.36,723c0,0-59.64,23-38.2-45.3S141.46,501.6,153,466.72Z"/><path class="cls-23" d="M167.79,495.25c-10.61-4.9-17.23.06-14.39,3.48,3.5,4.21,25.52,11.1,26.67,7.6C180.75,504.27,174.32,498.26,167.79,495.25Z"/><path class="cls-23" d="M154.55,532.89c-10.61-4.9-17.23.07-14.38,3.49,3.5,4.2,25.51,11.1,26.66,7.59C167.51,541.91,161.08,535.9,154.55,532.89Z"/><path class="cls-23" d="M141.31,570.53c-10.6-4.89-17.23.07-14.38,3.49,3.5,4.2,25.51,11.1,26.67,7.6C154.28,579.55,147.84,573.55,141.31,570.53Z"/><path class="cls-23" d="M128.08,608.18c-10.61-4.9-17.23.06-14.39,3.48,3.5,4.2,25.52,11.1,26.67,7.6C141,617.2,134.61,611.19,128.08,608.18Z"/><path class="cls-23" d="M114.84,652.27c-10.61-4.9-17.23.07-14.38,3.49,3.5,4.2,25.51,11.1,26.66,7.59C127.8,661.29,121.37,655.28,114.84,652.27Z"/><path class="cls-24" d="M1673.73,778.3c-49.37-14.69-83.06-53.18-77.6-61.14,8.71-12.68,45.46,10.11,78.19,13.38,3,.3,9,0,20.88-.47,47.86-2.07,66.14-10.55,75.76-31.62,11.44-25.08-15.12-59.06-26.42-73.51-15.36-19.66-22-18.33-29.73-33-11.82-22.27-16.4-62.87,12-82.08,29.67-20.07,79.79-6.22,85.21,10.93,5.23,16.51-32.61,31-30,60.75,1.13,13,9.35,21.23,14.83,28.07,29.55,36.9,41.62,112,4.86,149.76C1770,792,1709.47,788.92,1673.73,778.3Z"/><path class="cls-24" d="M1188,565.32c49.37,14.69,83.06,53.18,77.6,61.14-8.71,12.68-45.46-10.11-78.19-13.38-3-.3-9,0-20.88.47-47.86,2.07-66.14,10.55-75.76,31.62-11.44,25.08,15.12,59.06,26.42,73.51,15.36,19.66,22,18.33,29.73,33,11.82,22.27,16.4,62.87-12,82.08-29.67,20.07-79.8,6.22-85.22-10.93-5.23-16.51,32.61-31,30-60.75-1.13-13-9.35-21.23-14.83-28.07-29.54-36.91-41.62-112-4.86-149.76C1091.77,551.63,1152.25,554.7,1188,565.32Z"/><path class="cls-25" d="M1186.86,562.26c-61.37,56.23-26.53,149.78-33.65,221.34-8.77,88.19-36.54,199,30.72,216.69,23.5,6.17,45.24,13.83,52.51,12.05,38.68-9.49,88.8,11.49,128.5,10.47,129.73-3.37,173.36,30.2,325.94-12.93,14.23-4,22-1.44,60.18-135.63,11.52-40.51,19.33-106.07-15.18-149.27-29.45-36.86-10-69.39-42.54-113.57-30.93-42-79.26-43.35-109.71-80.42-7.13-8.68,10.88-43.54-32.67-40.48-76.6,5.38,21-69.59-41.85-68.49-55.46,1-141.22,46.16-225.09,18.56C1199.42,412.75,1246.43,507.7,1186.86,562.26Z"/><path class="cls-24" d="M1264.45,627.7c-21.56-43.46-13-114.36,8.87-127.88,12.75-7.88,21.42,9,53,21.52,45.36,17.92,60.25-4,123,7.18,32.62,5.8,66.91,11.89,75.58,41.27,7.32,24.85-7.65,52.88-9.13,55.57-11.35,20.66-31.43,35-78.82,41.66C1370.52,676.4,1294,687.2,1264.45,627.7Z"/><path class="cls-16" d="M1371.44,590c19.18,8.92-39.26,50.33-66.14,34.93s-28.33-84.33-8.37-77.61C1304,549.71,1357.4,583.46,1371.44,590Z"/><path class="cls-26" d="M1799.08,625.33c13.69,13.28,22.1,20,33.34,20.06,24.11,0,49.45-31,46.54-55.67-1.27-10.84-7.68-17.82-13.25-24.23-37.14-42.81-64-60.38-75.51-81.16-2.94-5.29-.57-27.19-9.3-51.08-10.38-28.4-18.61-26.13-26-29.57-9.6-4.46-20.4,2.37-42.55,15-11.7,6.65-25.86,14.89-38.3,31.48-8.24,11-16.13,21.49-14.36,32.6,2.39,15.06,20.6,19,40.44,31.18C1739.51,538,1736.29,564.39,1799.08,625.33Z"/><path d="M1709.12,449c0,6.8,7.42,10.32,7.14,17.92a15.64,15.64,0,0,1-2.46,7.26,20.56,20.56,0,0,1-6.72,7.19c-6.35,4.37-16.91,26-10.9,49.52,5.12,20,20.19,33.25,29.11,41.08a103.2,103.2,0,0,0,9,7c27,19,76,38.54,83.46,25.06,2.57-4.62.15-12.92-3.82-17.4-5.28-5.94-13.67-5.54-18.56-5.59-22.85-.24-47.34-11.28-60.14-21.61-1.19-.95-24.69-20.45-25.47-47-.74-25.14,19.38-37.85,24.26-40.93,28.39-17.92,63.67.28,67,2.09,6.69,3.58,34.42,1.82,47.12,21.4,4,6.17,13.28,31.3,14.69,45.57,1.88,19-21.58,22.07-15.74,34.59,3.68,7.89,12.09,16,18.41,15.29,12.24-1.46,18.4-36.45,10.4-66.39-6.36-23.82-30-49.25-58.12-60.71-40.23-16.4-76.18,11.38-90.36-6.72-4.82-6.15-4.82-16.26-9.62-17.43C1714,438.22,1709.09,443.37,1709.12,449Z"/><path class="cls-16" d="M1472.33,562.56c18.08-11.17,15.59,63.11-12,77.09s-81.29-25.19-64.44-38.33C1401.92,596.64,1459.09,570.75,1472.33,562.56Z"/><path d="M1449.53,574.51c5.75,13.69.18,29.59-12.46,35.52s-27.54-.37-33.29-14.06"/><path d="M1366.31,587.16c-6.87,13.15-21.8,18.35-33.36,11.63s-15.38-22.85-8.52-36"/><polygon points="1372.44 581.62 1283.42 554.01 1285.7 539.78 1376.92 553.36 1372.44 581.62"/><polygon points="1483.83 553.66 1399.48 593.48 1387.09 562.58 1478.25 540.48 1483.83 553.66"/><ellipse class="cls-27" cx="961.96" cy="342.23" rx="298.21" ry="151.64"/><ellipse class="cls-28" cx="961.96" cy="339.13" rx="286.8" ry="145.84"/><ellipse class="cls-29" cx="975.61" cy="342.23" rx="261.19" ry="132.81"/><path class="cls-30" d="M797.65,317.72l-18.85,6.43c-1.42-4.16-8-8.2-16.06-5.44-5.66,1.94-11.69,7-10.06,11.75,1.37,4,7.12,3.85,19.26,3.11,13.54-.8,32.51-2.36,38.75,16,5.42,15.88-4.39,30.27-22.78,36.54-24.63,8.4-40.92-5.68-45.34-18.63L761.42,361s6,12.68,21.62,7.36c8.44-2.88,10.27-7.73,9.06-11.28-1.79-5.25-9-4.83-16.92-4.18-12.79,1.09-35.07,3.51-41.36-14.93-5.17-15.15,5.11-31.2,23-37.31C777.32,293.7,793.23,304.77,797.65,317.72Z"/><path class="cls-30" d="M886.76,290.67l-28.9,5.63,13,66.89L851,367.06l-13-66.88L809,305.8l-3.74-19.25L883,271.42Z"/><path class="cls-30" d="M954.67,340.87l-40,2.37-4.69,14-21.22,1.25,30.32-89.7,22.32-1.32,40.8,85.49-21.35,1.27Zm-8-16.85-14.86-32-11.24,33.5Z"/><path class="cls-30" d="M1067.44,306.87c-1.3,12.58-8.24,22.63-17.63,26.72l14.28,28.08-24.79-2.57-10.15-23-14.58-1.51-2.25,21.69-19.93-2.07,9.05-87.29,40,4.15C1058.2,272.82,1069.42,287.87,1067.44,306.87Zm-48.09-18.36-2.76,26.58,17.14,1.78c6.81.7,12.9-4.76,13.66-12.08s-4.1-13.79-10.78-14.48Z"/><path class="cls-30" d="M1158.93,314.73l-28.59-7.06L1114,373.82,1094.3,369l16.35-66.15-28.59-7.06,4.71-19.05,76.86,19Z"/><path class="cls-30" d="M1176.27,382.43a12.32,12.32,0,0,1-15.56,7.61c-6-2.14-9.25-9.33-7-15.65,2.38-6.69,9.51-10.31,15.5-8.18C1175.54,368.47,1178.65,375.74,1176.27,382.43Zm3.43-18.37-16.91-6,18.48-55.48,19.11,6.81Z"/><ellipse class="cls-31" cx="1811.46" cy="90.63" rx="40.32" ry="41.32"/><ellipse class="cls-9" cx="1811.06" cy="90.22" rx="18.95" ry="19.42"/><rect class="cls-32" x="1806.62" y="41.05" width="8.06" height="11.57"/><rect class="cls-32" x="1807.43" y="129.48" width="8.06" height="11.57"/><rect class="cls-32" x="1851.68" y="80.86" width="8.26" height="11.29" transform="translate(1769.31 1942.32) rotate(-90)"/><polygon class="cls-32" points="1849.8 122.1 1844.32 128.17 1836.03 120.32 1841.5 114.25 1849.8 122.1"/><polygon class="cls-32" points="1785.28 60.12 1779.81 66.19 1771.51 58.34 1776.98 52.27 1785.28 60.12"/><rect class="cls-32" x="1762.97" y="80.86" width="8.26" height="11.29" transform="translate(1680.6 1853.61) rotate(-90)"/><polygon class="cls-32" points="1779.88 114.5 1784.53 121.26 1775.29 127.92 1770.65 121.16 1779.88 114.5"/><polygon class="cls-32" points="1844.86 52.41 1849.84 58.91 1840.96 66.05 1835.98 59.55 1844.86 52.41"/><ellipse class="cls-33" cx="141.5" cy="143" rx="112.5" ry="83"/><path class="cls-34" d="M177.48,150.43c-4.64-4.84-5.86-12-4.7-12.69,1.87-1.19,4.51,4,8,6.35a23,23,0,0,0,2.42,1.15c5.61,2.52,5,2,7.55-.26,3-2.68,3.13-6.43,2.83-9-.42-3.52,1.19-5.61,1.3-8,.17-3.66,4.09-14.45,8.65-15.36,4.77-1,11.85,11,11.29,13.62s-10.72-6.18-12.45-2.06c-.76,1.8.52,9.71.68,10.94.86,6.66-2.89,17.4-9.68,20.3C187.56,157.88,180.85,153.94,177.48,150.43Z"/><path class="cls-34" d="M88.33,141.78c5.9-2.23,9.81-7.72,9.11-8.81-1.11-1.74-5.45,1.58-9.4,2.15a21.46,21.46,0,0,1-2.52,0c-5.8-.12-5.08-.32-6.34-3.22-1.49-3.46-.07-6.65,1.23-8.71,1.77-2.8,1.25-5.2,2.12-7.27,1.33-3.14,2.33-13.78-1.19-16.35-3.68-2.69-14.52,4.57-15.1,7s11.62-.95,11.44,3.2c-.08,1.82-4.36,8-5,8.94-3.41,5.26-4.53,15.78.08,20.91C76.75,144.05,84.05,143.4,88.33,141.78Z"/><path class="cls-17" d="M94.68,113.64c-14.75,16.09-20.61,46.12-13.29,56.83,1.56,2.28,2.08,1.3,8.76,5.92,11.52,8,12.43,12.63,19.72,16.65,4.12,2.27,3.13.4,20,3.3,14.56,2.5,16.23,4,23.31,3.58,6.45-.43,10.51-.41,15.51-2.89,3.52-1.76,5-3.41,8.65-3.86,4.26-.52,6.16,1.23,8.86-.68,3-2.14,3.9-6.61,4-7.16,1-5.17-1.44-8.62-2.85-13.76-1.25-4.52-.17-12.83,2-29.44,1.31-10.06,2.37-15.63.53-22.84-.68-2.66-1.23-4.81-2.74-6.88-2.64-3.61-5.77-3.66-19.52-4.27-8.91-.39-10.56-.5-12.45,1.38-4,4-2.58,10.6-5.27,12-4.32,2.19-8.94-12.92-18.78-18.85C119.36,95.51,103.67,103.84,94.68,113.64Z"/><ellipse class="cls-16" cx="116.2" cy="134.38" rx="14.86" ry="21.26"/><ellipse cx="118.43" cy="134.38" rx="4.91" ry="9.07"/><ellipse class="cls-16" cx="139.6" cy="138.33" rx="12.83" ry="18.35"/><ellipse cx="141.52" cy="138.33" rx="4.23" ry="7.83"/><polygon points="160.31 131.63 98.41 116.71 105.4 108.26 156.15 124.86 160.31 131.63"/></g></svg>
