<svg xmlns="http://www.w3.org/2000/svg" xmlns:xlink="http://www.w3.org/1999/xlink" width="1920" height="1080" viewBox="0 0 1920 1080"><defs><style>.cls-1{opacity:0.7;}.cls-2{fill:url(#linear-gradient);}.cls-3{fill:#fde58f;}.cls-4{fill:url(#linear-gradient-2);}.cls-5{opacity:0.3;fill:url(#linear-gradient-3);}.cls-6{opacity:0.08;fill:url(#linear-gradient-4);}.cls-7{fill:#e09686;}.cls-8{fill:#c98273;}.cls-9{fill:#bf6e5d;}.cls-10{fill:#aa6253;}.cls-11{opacity:0.5;}.cls-12{opacity:0.07;fill:url(#linear-gradient-5);}.cls-13{fill:#0d7400;}.cls-14{fill:#001900;}.cls-15{fill:#008a00;}.cls-16{fill:#009400;}.cls-17{fill:#3d0000;}.cls-18{fill:#9f0000;}.cls-19{fill:red;}</style><linearGradient id="linear-gradient" x1="960.21" y1="781.19" x2="960.21" y2="1.05" gradientUnits="userSpaceOnUse"><stop offset="0" stop-color="#f0c57b"/><stop offset="0.17" stop-color="#f0be7a"/><stop offset="0.42" stop-color="#f1ab76"/><stop offset="0.72" stop-color="#f18c6f"/><stop offset="1" stop-color="#f26868"/></linearGradient><linearGradient id="linear-gradient-2" x1="959.41" y1="853.18" x2="959.41" y2="1109.25" gradientUnits="userSpaceOnUse"><stop offset="0" stop-color="#f0c57b"/><stop offset="0.18" stop-color="#f0bb79"/><stop offset="0.5" stop-color="#f19f73"/><stop offset="0.91" stop-color="#f2726a"/><stop offset="1" stop-color="#f26868"/></linearGradient><linearGradient id="linear-gradient-3" x1="724.17" y1="405.02" x2="724.17" y2="568.79" gradientUnits="userSpaceOnUse"><stop offset="0" stop-color="#fff"/><stop offset="0.09" stop-color="#fff" stop-opacity="0.97"/><stop offset="0.22" stop-color="#fff" stop-opacity="0.89"/><stop offset="0.38" stop-color="#fff" stop-opacity="0.75"/><stop offset="0.56" stop-color="#fff" stop-opacity="0.57"/><stop offset="0.76" stop-color="#fff" stop-opacity="0.33"/><stop offset="0.97" stop-color="#fff" stop-opacity="0.04"/><stop offset="1" stop-color="#fff" stop-opacity="0"/></linearGradient><linearGradient id="linear-gradient-4" x1="9304.1" y1="211.78" x2="9304.1" y2="382.54" gradientTransform="matrix(-1, 0, 0, 1, 10268, 0)" gradientUnits="userSpaceOnUse"><stop offset="0" stop-color="#fff"/><stop offset="0.18" stop-color="#fff" stop-opacity="0.99"/><stop offset="0.32" stop-color="#fff" stop-opacity="0.95"/><stop offset="0.43" stop-color="#fff" stop-opacity="0.89"/><stop offset="0.54" stop-color="#fff" stop-opacity="0.8"/><stop offset="0.64" stop-color="#fff" stop-opacity="0.69"/><stop offset="0.74" stop-color="#fff" stop-opacity="0.55"/><stop offset="0.83" stop-color="#fff" stop-opacity="0.38"/><stop offset="0.92" stop-color="#fff" stop-opacity="0.2"/><stop offset="1" stop-color="#fff" stop-opacity="0"/></linearGradient><linearGradient id="linear-gradient-5" x1="704.19" y1="94.65" x2="704.19" y2="385.04" gradientTransform="translate(-145.82)" xlink:href="#linear-gradient-4"/></defs><title>Stagecomplete</title><g id="Level_Complete" data-name="Level Complete"><g id="allle_elemnter" data-name="allle elemnter" class="cls-1"><rect class="cls-2" x="-0.2" width="1920.81" height="785.32"/><rect class="cls-3" x="-1" y="785.54" width="1920.81" height="296.27"/><rect class="cls-4" x="-1" y="785.54" width="1920.81" height="296.27"/><path class="cls-5" d="M-3.2,363.51s64-32.65,160.07-11.81,90.9,46.78,115.08,58.16,40.94,32.21,115.42,14.1,109.71-23.64,155.7,7.12-4.86,55.11,61.38,74.05,91-10.83,148.23,0,104.22,56.81,145.57,52.76,142.42-14.42,161-11.58,393.11,26.15,393.11,26.15S939,569.61,873.92,595.31,787.36,647.62,733.82,621s-106.35-62.39-221.6-48.56-82.19,21-170.75,22.85-171.28-53.44-218.76-61S-4,546.31-4,546.31Z"/><path class="cls-6" d="M1916.33,188c-33.38-61.36-244.94-19.41-302,8.16-41.86,20.2-87.11,50-139.72,40.69-18.46-3.26-33.09-11-49.06-17.19-60.89-23.46-148.57-22-206.91,3.43-36.47,15.91-66.69,41.1-112.77,42.33-25.54.68-49.84-6.61-75.39-7.17-60.59-1.34-101.65,32.88-152.59,51.41-56.6,20.6-106.64,14.05-167.69,8.54-54.17-4.9-111.27-.54-166,2.63-76.64,4.42-158.85,20.75-235.4,20.79-14.41,0-304.93,27.06-304.93,27.06S231.9,390.27,352,383.51s60.68-7.28,170,0,232.21,25.71,280.81,23-25.27.54,150.93.27,188.54,14.79,362.49,13.94,191.11-27.75,297.74-37.22,305.9,3.65,305.9,3.65V278c0-20.33,11.42-62.58-3.45-90Z"/><path class="cls-7" d="M1134.32,785.54s-164.63-52.83-326.78-69.19c-80.95-8.16-110.64,28.94-186.55,0s-58-48.3-111.63-48.68-80.37-20.5-169.68-20.5-62.51,36.48-223.26,20.5c-39-3.88-82.61,0-82.61,0V785.54Z"/><path class="cls-7" d="M1401.67,654s-5.74,6.47-34.45,9.7-68.9-18-74.64-16-47.92,8.12-47.92,8.12-13.32-5-22.89-8.25-28.7,17.76-28.7,17.76-38.28-5.24-57.42-1.26-32.53,2.9-47.84,13.68-74.64,3.23-91.87-5.39S950,655.73,934.7,665.1s-32.53,18-36.36,23.39-11.07,22.65-39,29.12-26.3,24.8-26.3,24.8S881.79,768,887,768s514.67,17.54,514.67,17.54Z"/><path class="cls-8" d="M-1,578.11s74.43,4.51,93.64,12.62c31.68,13.39,78,14.74,92.36,28.27s66.11,44.08,66.11,44.08L390.37,785.54H-1Z"/><path class="cls-8" d="M220.69,663.08s124.86,2.51,132.86,5.22,32,20.74,51.22,14.43,35.8-9.45,46.42-9.16c21.29.59,34.42,21.78,58.43,24.94,22,2.9,81.14,82.52,214.64,87H220.69Z"/><path class="cls-8" d="M580.05,785.54s118.45-44.64,146.1-37.88c34.34,8.4,54.73.8,65.49-6.33,6.05-4,15-6.29,24.31-6.29H924.37l72-23.9s29.05-14.89,57.27-14.89,153.66,14.89,153.66,14.89l109.85-14.89,38.41,89.29Z"/><path class="cls-9" d="M-1,636.73s2.4-18,68-18c19.54,0,20.81,9,40,13.53s20.8,3.61,30.41,4.51,32,3.61,32,11.72,22.41,18.94,33.62,20.75S221,702,221,702l267,79L-1,785.54Z"/><path class="cls-9" d="M1916,477c17.63-30.67-41.09-368.56-183-139-.09.14-44.83,112-45,112-16.52-3.65-40.61,68.68-53,79s-406.74,13.36-415,25-132.34,12.89-153,35,40.5,39.59,30,68c-5.12,13.86,128,25,128,25s107.63-12.84,84.16-1.2-1.77,34.91-45.67,37.24-144.4,0-144.4,0-18.4-2.33-91.14,9.31S876.42,762,876.42,762L918,786l1001.81-.46V503.9"/><path class="cls-10" d="M1919.81,540.68s-12-18.94-45.62-8.12,21.61,25.71-33.61,21.65-62.43-28-88.84-24.81-40.82,30.23-76.83,25.49-64.83,6.08-79.23,16.9-14.41,29.77-62.43,50.06-38.42,51-48,62.7-14.41,10.35-38.42,26.59-50.42,37.87-57.62,41.93-145.45,13.53-143.56,17.59-139.12,14.88-139.12,14.88h813.3Z"/><g class="cls-11"><path class="cls-7" d="M1134.32,785.5s-164.63,34.23-326.78,44.82c-80.95,5.29-110.64-18.74-186.55,0s-58,31.29-111.63,31.54S429,875.14,339.68,875.14s-62.51-23.63-223.26-13.28c-39,2.51-82.61,0-82.61,0V785.5Z"/><path class="cls-7" d="M1401.67,870.73s-5.74-4.2-34.45-6.29-68.9,11.69-74.64,10.38-47.92-5.25-47.92-5.25-13.32,3.24-22.89,5.34-28.7-11.5-28.7-11.5-38.28,3.39-57.42.81-32.53-1.88-47.84-8.86-74.64-2.1-91.87,3.49S950,869.6,934.7,863.53s-32.53-11.67-36.36-15.16-11.07-14.67-39-18.86S833,813.44,833,813.44s-65.65-27.94-60.45-27.94h629.11Z"/><path class="cls-8" d="M-1,919.88S73.43,917,92.64,911.7c31.68-8.67,86.44,8.77,100.84,0s57.63-46.87,57.63-46.87L390.37,785.5H-1Z"/><path class="cls-8" d="M220.69,864.83s124.86-1.62,132.86-3.37,32-13.44,51.22-9.35,35.8,6.12,46.42,5.93c21.29-.38,34.42-14.11,58.43-16.16,22-1.87,81.14-53.46,214.64-56.38H220.69Z"/><path class="cls-8" d="M673,786s25.5,28.42,53.15,24c34.34-5.44,54.73-.52,65.49,4.11,6.05,2.59,15,4.07,24.31,4.07H924.37l72,15.48s29.05,9.64,57.27,9.64,153.66-9.64,153.66-9.64l109.85,9.64,38.41-57.84Z"/><path class="cls-9" d="M-1,881.9s2.4,11.69,68,11.69c19.54,0,20.81-5.84,40-8.76s20.8-2.34,30.41-2.93,32-2.33,32-7.59,22.41-12.27,33.62-13.44,17.6-6.91,17.6-6.91L580.05,785.5H-1Z"/><path class="cls-9" d="M1919.81,968h-43.37s2.48,24.53-26.44,29-24.61,33.48-37,38c-4.88,1.78-45.79,2-53,4-21.93,6-72.36,23.07-65-31,0-.17-27.83,9-28,9-16.52,2.36-39.61-6.32-52-13s-93.84-39.06-102.1-46.6-16.52-21.11-37.18-35.44-59.73-12.5-70.23-30.91c-5.12-9-41.31-37.69-41.31-37.69s-31.55,7.54-55,0-1.77-22.62-45.67-24.13-144.4,0-144.4,0-18.4,1.51-91.14-6-151.53-22.44-151.53-22.44L794.1,785.5H1919.81Z"/><path class="cls-10" d="M1919.81,944.13s-12,12.27-45.62,5.26,21.61-16.65-33.61-14-62.43,18.13-88.84,16.08-40.82-19.59-76.83-16.52S1610.08,931,1595.68,924s-14.41-19.28-62.43-32.42-38.42-33-48-40.62-14.41-6.71-38.42-17.23-50.42-24.53-57.62-27.16-145.45-8.77-143.56-11.4-139.12-9.64-139.12-9.64h813.3Z"/></g><path class="cls-12" d="M1116.06,236.52c12.81,71.1-50.43,138.61-103.88,167.83C973.37,425.56,937,429,922,429c-176.2-.27-254,21.85-428,21s-273.38-30.54-380-40S-1,217.16-1,217.16V108c0-20.33,8.51-59.23,3.45-90C-1-3,2,18,2,18,19.14-9.11,239-4,304.53,26.12c42.24,19.41,87.12,50,139.72,40.69,18.47-3.26,33.09-11,49.06-17.19,60.9-23.46,148.57-22,206.91,3.43C736.7,69,766.92,94.15,813,95.38c35,.94,37.84-6.92,75.39-7.17C969.83,87.67,1030,131.69,1041,140,1071.15,162.79,1107.76,190.47,1116.06,236.52Z"/></g><path class="cls-13" d="M512.51,224.93H462.22c0-16.43-12.34-38.66-33.93-38.66-15.12,0-33.63,10.63-33.63,29.48,0,15.94,13.88,22.22,43.5,34.3,33,13.53,79.59,30.93,79.59,103.41,0,62.81-35.18,102-84.23,102-65.71,0-93.17-69.58-93.17-120.8h50.29s4,52.18,45.66,52.19c22.52,0,30.85-15,30.85-29,0-20.78-17.58-28-37-35.28-31.47-11.6-86.69-30-86.69-102.92,0-59.91,37.65-104.37,85.47-104.36C483.51,115.25,512.51,173.71,512.51,224.93Z"/><path class="cls-13" d="M733.1,194.5H658.74V449.62H607.52V194.49H533.18V121.05H733.1Z"/><path class="cls-13" d="M880.86,398.41H779.67l-13.89,51.21H712.1l89.79-328.56h56.46l90.08,328.57h-54Zm-17.58-64.75-32.7-122.73L797.26,333.66Z"/><path class="cls-13" d="M1160.39,187.27l-43.81,34.79c-10.49-20.78-26.84-32.38-50.91-32.38-36.71,0-62.32,40.1-62.32,94.7,0,52.19,26.22,97.12,62.93,97.13,22.52,0,40.42-11.12,51.53-27.54V322.08h-63.87V261.19h108.59V383c-1.54,4.83-34.56,72.48-96,72.47-69.42,0-114.15-81.66-114.15-170.08,0-91.32,47.83-170.08,113.85-170.08C1106.71,115.27,1139.41,143.78,1160.39,187.27Z"/><path class="cls-13" d="M1361.54,121.08v73.44H1251.4v56.53h91.94v68.61h-91.94V376.2h110.14v73.45H1200.79V121.07Z"/><path class="cls-13" d="M1570.08,449.65h-51.21V228.35c-12,22.23-42.57,35.76-43.5,36.72l-10.79-73.44c12.65-10.15,43.19-30.44,54.3-70.54h51.21Z"/><path class="cls-13" d="M281,661c-18.82,49.28-53.68,85.52-98.11,85.52-65.71,0-113.53-75.38-113.53-172.5,0-91.32,47.83-167.67,113.54-167.66,44.74,0,79.91,32.86,98.73,82.14l-42.89,39.14c-9.87-30-29.31-49.77-55.84-49.77-36.71,0-62.32,42-62.32,96.15,0,52.18,25.6,98.09,62.31,98.09,25.92,0,45-20.78,55.23-49.77Z"/><path class="cls-13" d="M511.73,576.44c0,93.74-48.76,170.08-108.3,170.08-60.16,0-108.29-76.35-108.28-170.09,0-93.25,48.13-170.08,108.29-170.07C463,406.36,511.73,483.19,511.73,576.44Zm-170.31,0c0,53.63,27.77,96.63,62,96.63,33.63,0,61.4-43,61.4-96.63,0-53.15-27.76-96.16-61.39-96.16C369.19,480.28,341.43,523.28,341.42,576.44Z"/><path class="cls-13" d="M803.57,740.74h-50.9V573.07L702.38,740.73H645.92L595.64,573.06V740.73H545l0-328.57H601.2l73.11,241.11,72.82-241.1h56.45Z"/><path class="cls-13" d="M1025.09,538.77c0,64.75-26.23,127.56-79.91,127.56H899.52v74.41H848.61l0-328.57H945.5C999.18,412.18,1025.1,475,1025.09,538.77ZM899.53,485.62V593.37h40.11c20.36,0,34.25-18.84,34.25-54.6,0-35.27-13.88-52.67-34.24-53.15Z"/><path class="cls-13" d="M1114.55,667.3H1224.7v73.44H1064V412.18h50.59Z"/><path class="cls-13" d="M1421.54,412.2v73.44H1311.39v56.54h91.94v68.61h-91.93v56.53h110.14v73.44H1260.78l0-328.56Z"/><path class="cls-13" d="M1650.14,485.65h-74.35V740.77h-51.22V485.64h-74.35V412.2h199.92Z"/><path class="cls-13" d="M1845.43,412.21v73.45H1735.28v56.53h91.94V610.8h-91.94v56.53h110.14v73.45H1684.68V412.21Z"/><ellipse class="cls-14" cx="945.26" cy="909.86" rx="291.6" ry="130.94"/><ellipse class="cls-15" cx="945.26" cy="907.18" rx="280.45" ry="125.93"/><ellipse class="cls-16" cx="958.61" cy="909.86" rx="255.4" ry="114.69"/><path d="M826.32,900.08,817,902.57c-.55-2.05-3.58-4.21-7.58-3.15-2.8.75-5.87,3-5.24,5.35.53,2,3.31,2.09,9.2,2.13,6.56.06,15.77-.08,18.19,9,2.1,7.84-3.11,14.47-12.19,16.9-12.17,3.25-19.58-4.08-21.29-10.47l9.32-2.49s2.48,6.32,10.19,4.25c4.17-1.11,5.22-3.4,4.75-5.15-.7-2.59-4.19-2.63-8-2.57-6.21.11-17.05.55-19.48-8.56-2-7.48,3.48-14.9,12.33-17.27C817.29,887.82,824.61,893.69,826.32,900.08Z"/><path d="M868.45,887.8l-14,2.64,6.12,32.41-9.64,1.82-6.13-32.41-14,2.65L829,885.58l37.65-7.11Z"/><path d="M901.23,910.55,882,912.74l-1.9,6.88-10.22,1.16,12.29-44.15,10.75-1.22,22,40.25-10.29,1.17Zm-4.3-7.94-8-15.06L884.36,904Z"/><path d="M953.7,880.81l-8.28,4.72c-2.08-2.64-5.25-4-9.86-3.93-7,.19-11.81,5.5-11.62,12.56.18,6.74,5.36,12.41,12.4,12.23,4.31-.12,7.7-1.64,9.77-3.82l-.11-4.13-12.23.33-.21-7.87,20.81-.55.42,15.74a22.83,22.83,0,0,1-18.14,9.85c-13.3.35-22.16-10-22.46-21.4a21.93,21.93,0,0,1,39.51-13.73Z"/><path d="M994.68,874.39l-.55,9.48-21.08-1.22-.42,7.29,17.59,1-.51,8.85-17.59-1-.42,7.3,21.07,1.21-.55,9.48L961.47,915l2.45-42.4Z"/><path d="M1046,895.7c-1.84,11.28-19.27,16.42-19.27,16.42l15.53,2.52-1.48,9.07L1011.59,919l1.47-9.06s22-8.06,23.3-15.77a5,5,0,0,0-4.45-6.16c-3.16-.52-5.64,1.86-6.22,5.44l-9.75-1.59c1.39-8.57,8.25-14.6,17.47-13.1C1043.39,880.34,1047.23,888.05,1046,895.7Z"/><path d="M1059.12,922.43A5.8,5.8,0,1,1,1047.8,920a5.81,5.81,0,1,1,11.32,2.48Zm.53-9-8.5-1.86,5.48-27.77,9.59,2.1Z"/><path d="M1075.86,926.62a5.8,5.8,0,1,1-11.23-2.88,5.81,5.81,0,1,1,11.23,2.88Zm.84-9-8.42-2.16,6.45-27.56,9.51,2.44Z"/><path d="M1092.45,931.39a5.8,5.8,0,1,1-11.12-3.27,5.81,5.81,0,1,1,11.12,3.27Zm1.16-9-8.34-2.45,7.42-27.31,9.42,2.77Z"/><ellipse class="cls-17" cx="1730.45" cy="986.86" rx="131.07" ry="58.85"/><ellipse class="cls-18" cx="1730.45" cy="985.65" rx="126.05" ry="56.6"/><ellipse class="cls-19" cx="1736.45" cy="986.86" rx="114.79" ry="51.55"/><path d="M1688.61,977.61l-3.32,2.7a5.09,5.09,0,0,0-4.66-1,5.24,5.24,0,0,0-4.24,6.42,5.47,5.47,0,0,0,6.38,4.52,6.16,6.16,0,0,0,4.06-2.4l-.35-1.82-5.4,1-.66-3.47,9.18-1.76,1.33,7a10.24,10.24,0,0,1-7.32,5.69,9.88,9.88,0,1,1,5-16.83Z"/><path d="M1699,991.71l-4.32.57-2.47-18.94,4.32-.56Z"/><path d="M1714.34,990.36l-4.77.31-9.23-18.53,4.81-.31,6.48,13.25,4.68-14,4.8-.31Z"/><path d="M1738.23,971.09l-.07,4.26-9.48-.16-.06,3.29,7.92.13-.07,4-7.92-.13,0,3.28,9.48.16-.07,4.27-13.84-.23.32-19.1Z"/><path d="M1764.83,983.15c-.79,6.27-5,9.58-10,9s-8.07-4.87-7.28-11.13l1.16-9.22,4.33.54-1.17,9.22c-.46,3.65.75,6,3.49,6.36s4.65-1.62,5.11-5.27l1.16-9.22,4.38.55Z"/><path d="M1783.48,985.06c-.78,3.68-3.75,6.77-8.27,5.81l-3.85-.82-.9,4.23-4.29-.92,4-18.67,8.16,1.74C1782.83,977.4,1784.26,981.43,1783.48,985.06Zm-9.93-5.28-1.31,6.12,3.38.72c1.72.37,3.12-.45,3.55-2.48a2.78,2.78,0,0,0-2.24-3.64Z"/><path d="M1788.94,996.35a2.6,2.6,0,1,1-5-1.38,2.61,2.61,0,1,1,5,1.38Zm.45-4-3.77-1,3.12-12.33,4.25,1.17Z"/><path d="M1796.35,998.62a2.6,2.6,0,1,1-5-1.55,2.61,2.61,0,1,1,5,1.55Zm.59-4-3.73-1.17,3.55-12.21,4.21,1.32Z"/><path d="M1803.68,1001.16a2.6,2.6,0,1,1-4.91-1.73,2.61,2.61,0,1,1,4.91,1.73Zm.73-4-3.68-1.3,4-12.09,4.16,1.47Z"/></g></svg>
